<svg width="55" height="50" viewBox="0 0 55 50" fill="none" xmlns="http://www.w3.org/2000/svg">
<path d="M47.738 16.9891C47.9603 15.2107 47.8492 13.3212 47.1823 11.5428C46.4043 9.43101 45.0705 7.65265 43.2921 6.31887C41.5137 4.9851 39.4019 4.20706 37.179 4.09591C35.2895 3.98477 33.3999 4.42936 31.6216 5.20739C28.0648 0.872623 22.3963 -1.01689 16.6166 0.53918C13.8379 1.31722 11.2815 2.98443 9.50315 5.31854C7.72478 7.43035 6.72445 9.98675 6.39101 12.7655C3.94575 13.7658 1.83394 15.7664 0.833609 18.2117C-0.27787 20.7681 -0.27787 23.8802 0.833609 26.4366C1.94509 28.993 4.16805 30.9937 6.72445 31.7717C8.05822 32.2163 9.392 32.2163 10.7258 32.2163L13.9491 32.1052V32.9944V33.9947V34.995C14.0602 36.44 14.2825 37.7737 14.7271 39.1075C15.6163 41.7751 17.1724 44.2203 19.2842 46.1098C20.2845 46.999 21.5071 47.8882 22.7297 48.5551C23.9524 49.222 25.2861 49.6666 26.6199 50H27.0645C28.3983 49.6666 29.7321 49.1108 30.9547 48.4439C32.1773 47.777 33.2888 46.8879 34.2891 45.9987C36.2898 43.998 37.8459 41.6639 38.5127 38.9964C38.9573 37.6626 39.0685 36.3288 39.1796 34.995C39.1796 34.1059 39.1796 33.1055 39.0685 32.2163C41.5137 32.3275 43.8479 32.4386 46.2931 32.5498C47.6269 32.6609 48.9607 32.4386 50.1833 31.7717C51.4059 31.216 52.5174 30.2157 53.1843 29.1042C54.7403 26.7701 54.8515 23.6579 53.5177 21.1015C52.5174 18.7674 50.1833 17.3225 47.738 16.9891ZM52.4062 28.3262C51.8505 29.3265 50.9613 30.2157 49.961 30.7714C48.9607 31.4383 47.738 31.6606 46.5154 31.6606C44.0701 31.7717 41.736 31.8829 39.2908 31.994C39.2908 31.6606 39.4019 33.439 38.8462 22.9911L38.4016 30.9937C38.2905 31.994 38.2905 32.8832 38.2905 33.8836C38.0682 33.6613 37.7347 33.5501 37.5124 33.439C36.6232 33.1055 35.7341 33.1055 34.8449 33.439C34.4003 33.6613 33.9557 33.8836 33.5111 34.3281C33.9557 34.7727 34.4003 34.995 34.8449 35.2173C35.7341 35.5508 36.6232 35.5508 37.5124 35.2173C37.7347 35.1062 37.957 34.995 38.2905 34.8839C38.1793 36.1065 37.957 37.4403 37.4013 38.5518C36.5121 40.8859 35.0672 42.9977 33.2888 44.6649C32.3996 45.4429 31.2881 46.221 30.2878 46.7767C29.5098 47.1102 28.7317 47.4436 27.9537 47.6659C28.2871 46.8879 28.2871 46.1098 27.9537 45.2206C27.7314 44.7761 27.5091 44.4426 27.0645 43.998C26.6199 44.4426 26.3976 44.7761 26.1753 45.2206C26.0642 45.6652 25.953 45.9987 25.953 46.4433C25.953 46.7767 26.0642 47.2213 26.1753 47.5547C25.3973 47.3325 24.6193 46.999 23.9524 46.5544C22.8409 45.9987 21.8406 45.2206 20.9514 44.4426C19.173 42.7754 17.8392 40.6636 17.0612 38.3295C16.7278 37.218 16.5055 36.1065 16.3943 34.995C16.5055 34.995 16.5055 35.1062 16.6166 35.1062C17.5058 35.4396 18.395 35.4396 19.2842 35.1062C19.7288 34.8839 20.1733 34.6616 20.6179 34.217C20.1733 33.7724 19.7288 33.5501 19.2842 33.3278C18.395 32.9944 17.5058 32.9944 16.6166 33.3278C16.5055 33.3278 16.3943 33.439 16.3943 33.439C16.3943 33.3278 16.3943 30.6603 16.3943 30.7714L16.2832 23.8802C17.0612 23.9914 17.8392 23.9914 18.5061 23.8802C19.6176 23.8802 20.7291 23.5468 21.8406 23.3245C23.2855 22.8799 24.7304 22.213 26.1753 21.1015C26.0642 21.3238 26.0642 21.6573 26.0642 21.8796C26.0642 22.3242 26.1753 22.6576 26.2865 23.1022C26.5088 23.5468 26.7311 23.8802 27.1757 24.3248C27.6203 23.8802 27.8426 23.5468 28.0648 23.1022C28.176 22.6576 28.2871 22.3242 28.2871 21.8796C28.2871 21.5461 28.176 21.2127 28.176 20.8792C29.3986 21.7684 31.0658 22.4353 32.6219 22.7688C33.7334 22.9911 34.7337 23.1022 35.8452 23.1022C36.4009 23.1022 36.9567 22.9911 37.5124 22.9911C38.0682 22.8799 38.5127 22.7688 39.0685 22.6576C38.5127 22.6576 37.957 22.7688 37.5124 22.7688C36.9567 22.7688 36.4009 22.7688 35.9563 22.6576C34.956 22.5465 33.8445 22.3242 32.8442 21.9907C30.6213 21.7684 28.6206 20.5458 27.2868 19.212C27.0645 18.9897 26.6199 18.9897 26.3976 19.212C25.7307 19.8789 24.8416 20.4347 23.9524 20.8792C23.0632 21.3238 22.0629 21.7684 21.1737 21.9907C20.1733 22.213 19.173 22.4353 18.1727 22.3242C17.1724 22.3242 16.172 22.213 15.1717 22.1019H15.0605C14.5048 22.1019 14.0602 22.5465 14.0602 22.9911L13.9491 30.8826V31.8829H10.7258C9.392 31.8829 8.05822 31.6606 6.94674 31.216C4.61264 30.3268 2.61198 28.215 1.83394 25.8809C0.944757 23.5468 1.05591 20.8792 2.16738 18.6563C3.05657 16.8779 4.39034 15.433 6.16871 14.5438C6.16871 14.8773 6.05756 15.2107 6.16871 15.5441C6.16871 16.211 6.39101 16.7668 6.72445 17.3225C7.05789 17.8783 7.39134 18.434 8.05822 18.7674C8.28052 18.1006 8.39167 17.5448 8.39167 16.8779C8.39167 16.3222 8.39167 15.7664 8.39167 15.3219C8.39167 14.7661 8.28052 14.3215 8.16937 13.7658C8.16937 13.6546 8.16937 13.6546 8.05822 13.5435C8.05822 13.4323 8.16937 13.3212 8.16937 13.21C8.50282 10.6536 9.50315 8.31953 11.1704 6.43002C12.7264 4.5405 14.9494 3.09558 17.3946 2.42869C19.8399 1.76181 22.3963 1.87296 24.7304 2.65099C26.7311 3.31788 28.5094 4.5405 29.9544 6.09658C29.8432 6.09658 29.8432 6.20772 29.7321 6.20772C29.3986 6.54117 29.0652 6.87461 28.8429 7.3192C28.6206 7.76379 28.5094 8.31953 28.6206 8.87527C29.2875 8.76413 29.7321 8.65298 30.0655 8.54183C30.5101 8.31953 30.8435 8.20839 31.0658 7.87494C31.2881 7.76379 31.5104 7.5415 31.6216 7.3192C31.7327 7.3192 31.955 7.20806 32.0662 7.20806C33.6222 6.31887 35.4006 5.87428 37.179 5.98543C38.9573 6.09658 40.7357 6.65232 42.1806 7.76379C43.6256 8.87527 44.8482 10.3202 45.5151 11.9874C46.0708 13.5435 46.2931 15.3219 45.9597 16.9891C45.7374 16.8779 45.6262 16.8779 45.4039 16.8779C44.4036 16.7668 43.4033 17.1002 42.7364 17.8783C42.4029 18.3228 42.1806 18.7674 42.1806 19.4343C42.8475 19.5455 43.2921 19.4343 43.6256 19.4343C44.4036 19.3232 44.9593 19.1009 45.7374 18.6563C45.8485 18.5451 46.0708 18.434 46.182 18.3228C46.4043 18.5451 46.6265 18.5451 46.8488 18.5451C49.0718 18.434 51.4059 19.6566 52.5174 21.6573C53.4066 23.6579 53.6289 26.3255 52.4062 28.3262Z" fill="#39FF14"/>
<path d="M29.3987 28.5486C28.6207 28.104 27.7315 27.8817 26.9535 28.104C27.7315 28.2151 28.5096 28.6597 28.9542 29.2155C29.5099 29.7712 29.7322 30.4381 29.8433 31.105C29.9545 31.7719 29.7322 32.4387 29.5099 32.9945C29.1764 33.5502 28.7319 33.9948 28.1761 34.2171C27.8427 34.3283 27.7315 34.6617 27.6204 34.9952C27.6204 35.9955 27.5092 38.5519 27.5092 38.3296V38.7742V38.9965V39.1076C27.5092 39.2188 27.5092 39.3299 27.3981 39.3299C27.2869 39.3299 27.0646 39.4411 26.8423 39.4411C26.62 39.4411 26.5089 39.3299 26.2866 39.2188C26.2866 39.1076 26.1755 38.9965 26.1755 38.9965V38.8853V38.663V38.2184C26.1755 37.107 26.0643 35.9955 26.0643 34.884V34.7729C26.0643 34.4394 25.842 34.106 25.5086 33.9948C24.9528 33.7725 24.5082 33.3279 24.1748 32.7722C23.9525 32.3276 23.8413 31.6607 23.9525 30.9938C24.0636 30.3269 24.3971 29.6601 24.8417 29.1043C25.3974 28.5486 26.0643 28.2151 26.8423 27.9928C26.0643 27.8817 25.1751 27.9928 24.3971 28.5486C23.6191 28.9932 22.9522 29.7712 22.7299 30.6604C22.3964 31.5496 22.3964 32.5499 22.841 33.5502C23.1745 34.3283 23.6191 34.884 24.2859 35.4397C24.2859 36.3289 24.1748 37.3293 24.1748 38.2184V38.663V38.8853V39.2188C24.1748 39.6634 24.3971 40.108 24.6194 40.4414C25.064 41.2194 26.0643 41.664 26.9535 41.664C27.8427 41.664 28.7319 41.2194 29.2876 40.4414C29.5099 40.108 29.7322 39.6634 29.7322 39.2188V38.8853V38.663V38.2184L29.5099 35.4397C30.1768 34.9952 30.6214 34.3283 30.9548 33.5502C31.2883 32.661 31.2883 31.5496 31.066 30.6604C30.7325 29.7712 30.0656 28.9932 29.3987 28.5486Z" fill="#39FF14"/>
</svg>
