<svg width="50" height="50" viewBox="0 0 50 50" fill="none" xmlns="http://www.w3.org/2000/svg">
<path d="M25.1006 26.7153C24.697 27.018 24.4952 27.4216 24.2934 27.7243C23.9907 28.4306 23.9907 29.1369 24.2934 29.8432C24.4952 30.1459 24.697 30.5495 25.1006 30.8521C25.5042 30.5495 25.706 30.1459 25.9078 29.8432C26.2105 29.1369 26.2105 28.4306 25.9078 27.7243C25.706 27.4216 25.5042 27.1189 25.1006 26.7153Z" fill="#39FF14"/>
<path d="M19.4502 17.7353C19.5511 19.8542 19.5511 19.6524 19.652 21.4686H19.5511H19.1475C18.9457 21.4686 18.643 21.4686 18.4412 21.5695C17.5331 21.8722 16.9277 22.7802 16.9277 23.6883V25.3027C16.9277 27.018 17.0286 28.8341 17.1295 31.7602C17.1295 32.0629 17.1295 32.2647 17.2304 32.5674C17.2304 32.87 17.3313 33.1727 17.4322 33.4754C17.634 34.0808 18.0376 34.5853 18.5421 34.9889C19.0466 35.3925 19.652 35.5943 20.2574 35.6952C20.8628 35.7961 21.3672 35.6952 21.9726 35.5943C23.0825 35.4934 24.0915 35.3925 25.2014 35.2916C24.0915 35.1907 23.0825 35.0898 21.9726 34.9889C21.4681 34.888 20.8628 34.9889 20.4592 34.7871C19.5511 34.5853 18.8448 33.879 18.643 32.9709C18.5421 32.5674 18.5421 32.1638 18.643 31.5584C18.7439 28.6323 18.8448 26.9171 18.8448 25.1009V23.4865C18.8448 23.2847 18.9457 23.1838 19.1475 23.1838H25.3023H31.457C31.5579 23.1838 31.7597 23.3856 31.7597 23.4865C31.7597 25.5045 31.7597 26.1099 31.8606 28.3296L31.9615 31.5584C31.9615 32.1638 32.0624 32.5674 31.9615 32.9709C31.7597 33.7781 31.0535 34.5853 30.1454 34.7871C29.7418 34.888 29.1364 34.888 28.6319 34.9889C27.522 35.0898 26.513 35.1907 25.4032 35.2916C26.513 35.3925 27.522 35.4934 28.6319 35.5943C29.1364 35.5943 29.6409 35.6952 30.3472 35.6952C30.9526 35.5943 31.5579 35.3925 32.0624 34.9889C32.5669 34.5853 32.9705 34.0808 33.1723 33.4754C33.475 32.8701 33.3741 32.1638 33.475 31.6593C33.5759 28.5314 33.6768 27.1189 33.6768 25.2018V23.5874C33.6768 22.6793 33.0714 21.7713 32.1633 21.4686C31.9615 21.3677 31.6588 21.3677 31.457 21.3677H31.0535H30.9526C31.0535 19.5515 31.0535 19.7533 31.1544 17.6344C31.1544 17.13 31.1544 16.4237 30.9526 15.8183C30.6499 14.6075 29.9436 13.4976 28.9346 12.7913C27.9256 11.9842 26.7148 11.5806 25.4032 11.5806C24.1924 11.5806 22.8807 11.9842 21.8717 12.7913C20.8628 13.4976 20.1565 14.6075 19.8538 15.8183C19.4502 16.5246 19.3493 17.13 19.4502 17.7353ZM21.0646 17.7353C21.0646 17.2309 21.1655 16.8273 21.2664 16.4237C21.7708 14.8093 23.3852 13.5985 25.1005 13.6994C26.8157 13.6994 28.3292 14.8093 28.9346 16.4237C29.0355 16.8273 29.1364 17.2309 29.1364 17.7353C29.2373 19.8542 29.2373 19.6524 29.3382 21.4686C29.2373 21.4686 24.7978 21.4686 25.1005 21.4686C24.8987 21.4686 20.5601 21.4686 20.8628 21.4686C20.9637 19.5515 20.9637 19.8542 21.0646 17.7353Z" fill="#39FF14"/>
<path d="M0.0781882 37.0069C0.380882 40.2356 1.59166 43.5652 3.91231 45.9868C6.33387 48.4083 9.6635 49.6191 12.8922 49.9218C16.121 50.2245 19.3497 49.6191 22.3766 48.6101C23.3856 48.3074 24.3946 47.9039 25.3027 47.3994C26.009 47.7021 26.7153 47.9039 27.4216 48.1057C30.4485 49.0137 33.5763 49.5182 36.7042 49.1146C38.2176 48.9128 39.832 48.6101 41.2446 47.9039C42.6572 47.2985 43.9688 46.2895 45.0787 45.2805C42.758 47.3994 39.7311 48.4083 36.7042 48.6101C33.6772 48.8119 30.6503 48.2065 27.7242 47.1976C27.3207 47.0967 27.018 46.8949 26.6144 46.794C30.8521 44.6751 34.6862 41.7491 38.1167 38.3185C41.4464 34.7871 44.3724 30.8521 46.3904 26.4126C46.5922 26.9171 46.794 27.4216 46.9958 27.926C48.0047 30.7512 48.6101 33.879 48.4083 36.906C48.2065 39.9329 47.1976 42.9599 45.0787 45.2805C46.1886 44.1706 47.1976 42.9599 47.7021 41.4464C48.4083 40.0338 48.711 38.4194 48.9128 36.906C49.2155 33.7781 48.8119 30.5494 47.9038 27.6234C47.6012 26.7153 47.2985 25.9081 46.9958 25C47.2985 24.0919 47.702 23.2847 47.9038 22.3767C48.8119 19.3497 49.3164 16.2219 48.9128 13.094C48.711 11.5806 48.4083 9.9662 47.7021 8.55362C47.0967 7.14105 46.0877 5.82938 45.0787 4.7195C47.1976 7.04015 48.2065 10.0671 48.4083 13.094C48.6101 16.121 48.0047 19.2488 46.9958 22.074C46.794 22.5784 46.5922 23.0829 46.3904 23.5874C44.3724 19.1479 41.4464 15.112 38.1167 11.6815C34.7871 8.25093 30.8521 5.32489 26.6144 3.20603C27.018 3.10513 27.3207 2.90333 27.7242 2.80243C30.5494 1.79345 33.6772 1.18807 36.7042 1.38986C39.7311 1.59166 42.758 2.60064 45.0787 4.7195C43.9688 3.60962 42.758 2.60064 41.2446 2.09615C39.832 1.38986 38.2176 1.08717 36.7042 0.885372C33.5763 0.582678 30.3476 0.98627 27.4216 1.89435C26.7153 2.09615 26.009 2.39884 25.3027 2.60064C24.2937 2.19705 23.3856 1.79345 22.3766 1.38986C19.3497 0.380882 16.121 -0.224506 12.8922 0.0781882C9.6635 0.380882 6.33387 1.59166 3.91231 4.01321C1.49076 6.43476 0.279984 9.7644 0.0781882 12.9931C-0.224506 16.2219 0.380882 19.4506 1.38986 22.4776C1.69256 23.2847 1.99525 24.1928 2.29794 25C1.99525 25.8072 1.59166 26.6144 1.38986 27.4216C0.380882 30.5494 -0.224506 33.7781 0.0781882 37.0069ZM37.1078 12.7913C39.2266 14.9102 41.2446 17.3318 42.9598 19.8542C44.0697 21.4686 45.0787 23.2847 45.8859 25.1009C45.0787 26.9171 44.0697 28.6323 42.9598 30.3476C41.2446 32.87 39.3275 35.1907 37.1078 37.4105C33.3745 40.9419 29.1368 43.9688 24.3946 45.9868C22.7802 45.1796 21.1659 44.2715 19.6524 43.2625C17.13 41.5473 14.8093 39.6302 12.5895 37.4105C9.15901 33.7781 6.23297 29.7422 4.21501 25.2018C6.23297 20.6614 9.15901 16.6255 12.5895 12.9931C14.7084 10.8743 17.13 8.85632 19.6524 7.14105C21.1659 6.13207 22.7802 5.22399 24.3946 4.4168C29.1368 6.23297 33.3745 9.25991 37.1078 12.7913ZM3.20603 21.9731C2.29794 19.1479 1.79345 16.121 1.99525 13.1949C2.29794 10.2689 3.40782 7.44374 5.32489 5.42578C7.34285 3.40782 10.168 2.29794 13.094 2.09615C16.0201 1.79345 19.047 2.39884 21.8722 3.30693C22.2758 3.40782 22.5784 3.60962 22.982 3.71052C18.7443 5.72848 15.0111 8.55362 11.5806 11.6815C9.36081 13.9012 7.34285 16.3228 5.52668 18.9461C4.7195 20.1569 4.01321 21.3677 3.40782 22.5784C3.30692 22.3767 3.20603 22.1749 3.20603 21.9731ZM3.20603 28.0269C3.30692 27.8251 3.40782 27.5225 3.40782 27.3207C4.01321 28.6323 4.82039 29.8431 5.52668 30.953C7.24195 33.5763 9.25991 35.9979 11.5806 38.2176C14.9102 41.4464 18.7443 44.2715 22.982 46.1886C22.5784 46.2895 22.2758 46.4913 21.8722 46.5922C19.047 47.5003 16.0201 48.0047 13.094 47.803C10.168 47.5003 7.44374 46.4913 5.32489 44.4733C3.30692 42.4554 2.19705 39.6302 1.99525 36.7042C1.79345 33.879 2.29794 30.953 3.20603 28.0269Z" fill="#39FF14"/>
</svg>
