<svg width="50" height="50" viewBox="0 0 50 50" fill="none" xmlns="http://www.w3.org/2000/svg">
<path d="M0.398406 36.8526C0.398406 37.1514 0.398406 37.5498 0.59761 37.8486C0.896414 38.5458 1.39442 39.0438 2.09163 39.3426C2.39044 39.4422 2.78884 39.5418 3.08765 39.5418C3.28685 39.5418 12.749 39.3426 12.5498 39.3426C16.0359 39.243 19.5219 39.243 23.008 39.1434C24.004 39.3426 25 39.5418 25.8964 39.5418C28.1872 39.5418 30.4781 38.9442 32.4701 37.8486C32.5697 38.0478 32.6693 38.247 32.8685 38.4462L33.3665 39.1434C33.4661 39.243 33.4661 39.3426 33.6653 39.5418C34.1633 39.9402 34.761 39.9402 35.259 39.741C35.3586 39.6414 35.5578 39.5418 35.5578 39.5418C36.753 41.6335 38.1474 43.5259 39.5418 45.5179C40.3386 46.6135 40.5378 46.9123 41.3347 47.9084C41.4343 48.008 41.5339 48.2072 41.6335 48.3068C41.7331 48.506 41.9323 48.6056 42.0319 48.8048C43.2271 50 45.2191 50.2988 46.8127 49.7012C48.4064 49.1036 49.502 47.4104 49.6016 45.7171C49.7012 44.4223 49.2032 43.1275 48.3068 42.3307C48.008 42.0319 47.7092 41.9323 47.4104 41.6335C45.2191 40.0398 43.0279 38.5458 40.737 37.1514C42.5299 39.1434 44.5219 41.0359 46.4143 42.8287C47.012 43.3267 47.2112 43.6255 47.51 44.1235C47.7092 44.6215 47.8088 45.1195 47.7092 45.6175C47.6096 46.6135 46.9123 47.51 46.0159 47.8088C45.1195 48.2072 44.0239 48.008 43.2271 47.4104C43.1275 47.3108 43.0279 47.2112 42.9283 47.1116C42.8287 47.012 42.7291 46.9123 42.6295 46.7131C41.8327 45.8167 41.5339 45.5179 40.6375 44.4223C39.0438 42.6295 37.3506 40.9363 35.6574 39.3426C35.8566 39.1434 36.0558 39.0438 36.255 38.8446C36.9522 38.1474 37.8486 37.3506 38.5458 36.5538L39.0438 35.9562L39.1434 35.757C39.243 35.6574 39.3426 35.5578 39.3426 35.3586C39.5418 34.8606 39.5418 34.2629 39.1434 33.7649C39.1434 33.6653 39.0438 33.6653 39.0438 33.6653L38.9442 33.5657L38.745 33.4661L38.0478 32.9681C37.8486 32.8685 37.6494 32.7689 37.4502 32.5697C38.5458 30.5777 39.1434 28.2869 39.1434 25.996C39.1434 22.51 37.6494 19.0239 35.0598 16.6335C32.5697 14.243 29.0837 12.9482 25.6972 13.0478C22.3108 13.1474 19.0239 14.741 16.8327 17.2311C19.3227 15.0398 22.51 13.8446 25.6972 14.0438C28.8845 14.1434 31.8725 15.5378 33.9641 17.7291C36.0558 19.9203 37.251 23.008 37.251 25.996C37.251 28.9841 35.9562 31.9721 33.8645 34.0637C31.7729 36.255 28.7849 37.4502 25.7968 37.4502C22.8088 37.5498 19.7211 36.255 17.5299 34.1633C15.3386 32.0717 13.9442 29.0837 13.8446 25.8964C13.6454 22.7092 14.8406 19.5219 17.0319 17.0319C14.5418 19.2231 13.0478 22.51 12.8486 25.8964C12.749 29.2829 14.0438 32.7689 16.4343 35.259C18.0279 36.9522 20.1195 38.1474 22.3108 38.745C12.4502 38.5458 14.8406 38.5458 5.47809 38.4462C5.07968 38.4462 2.78884 38.4462 2.88845 38.4462C2.58964 38.4462 2.39044 38.3466 2.19123 38.3466C1.79283 38.1474 1.49402 37.8486 1.29482 37.4502C1.19522 37.251 1.19522 37.0518 1.19522 36.753C1.19522 34.761 1.39442 28.6853 1.59363 9.26295C15.6374 9.36255 29.0837 9.26295 43.0279 9.06375L43.1275 15.8367L43.3267 23.4064C43.5259 28.3865 43.5259 33.4661 43.8247 38.4462C44.0239 33.4661 44.1235 28.3865 44.3227 23.4064L44.5219 15.8367L44.6215 8.26693C44.6215 8.16733 44.6215 8.16733 44.6215 8.06773C44.6215 7.96813 44.7211 2.58964 44.7211 2.98805C44.7211 2.19124 44.4223 1.39442 43.8247 0.796813C43.5259 0.498008 43.1275 0.298805 42.7291 0.199203C42.5299 0.0996016 42.3307 0.0996016 42.1315 0.0996016H41.8327C41.5339 0.0996016 36.255 0 36.3546 0C31.8725 0.0996016 27.1912 0.0996016 22.51 0.0996016L8.46614 0.199203C8.36653 0.199203 2.88845 0.199203 2.98805 0.199203H2.68924C2.49004 0.199203 2.29084 0.298805 2.09163 0.298805C1.69323 0.498008 1.29482 0.697211 0.996016 0.996016C0.398406 1.59363 0.0996016 2.49004 0.0996016 3.18725C0.0996016 3.58566 0.199203 7.96813 0.199203 7.86853C-7.4209e-08 8.06773 0 8.26693 0 8.46614C0.0996016 28.6853 0.298805 34.8606 0.398406 36.8526ZM37.251 33.2669C37.3506 33.4661 37.4502 33.5657 37.5498 33.7649L38.0478 34.4622L38.1474 34.6614C38.1474 34.6614 38.1474 34.761 38.247 34.761C38.3466 34.761 38.1474 34.761 38.1474 34.6614L37.9482 34.761L37.3506 35.259C36.6534 35.8566 35.757 36.753 35.0598 37.5498C34.8606 37.749 34.6614 37.9482 34.5618 38.1474L34.4622 38.3466H34.5618V38.4462C34.5618 38.5458 34.3625 38.3466 34.2629 38.247L33.5657 37.749C33.3665 37.6494 33.2669 37.5498 33.0677 37.4502C34.8606 36.3546 36.1554 35.0598 37.251 33.2669ZM1.69323 3.18725C1.69323 2.78884 1.89243 2.49004 2.09163 2.29084C2.29084 2.19124 2.39044 2.09163 2.58964 1.99203H2.78884H2.88845C2.98805 1.99203 4.98008 1.99203 4.88048 1.99203H8.36653L22.51 2.09163C27.1912 2.09163 31.8725 2.09163 36.5538 1.99203C36.753 1.99203 42.1315 1.89243 41.8327 1.89243H42.0319H42.1315H42.4303C42.5299 2.09163 42.7291 2.19124 42.8287 2.29084C43.1275 2.49004 43.2271 2.78884 43.2271 3.28685V5.07968L43.3267 7.86853C29.2829 7.47012 15.7371 7.47012 1.69323 7.56972C1.69323 7.17131 1.69323 3.08765 1.69323 3.18725Z" fill="#39FF14"/>
<path d="M39.7411 5.57749C39.9403 5.37829 40.0399 5.17909 40.2391 4.78068C40.0399 4.38228 39.9403 4.18307 39.7411 3.98387C39.4423 3.68506 39.1435 3.68506 38.8447 3.98387C38.6455 4.18307 38.5459 4.38228 38.3467 4.78068C38.5459 5.17909 38.6455 5.37829 38.8447 5.57749C39.1435 5.8763 39.4423 5.8763 39.7411 5.57749Z" fill="#39FF14"/>
<path d="M36.0556 5.57749C36.2548 5.37829 36.3544 5.17909 36.5536 4.78068C36.3544 4.38228 36.2548 4.18307 36.0556 3.98387C35.7567 3.68506 35.4579 3.68506 35.1591 3.98387C34.9599 4.18307 34.8603 4.38228 34.6611 4.78068C34.8603 5.17909 34.9599 5.37829 35.1591 5.57749C35.4579 5.8763 35.7567 5.8763 36.0556 5.57749Z" fill="#39FF14"/>
<path d="M18.2275 5.77719C20.3192 5.77719 22.4108 5.67759 24.602 5.57799C26.6937 5.47838 28.7853 5.17958 30.9765 4.78117C28.8849 4.38277 26.7933 4.18356 24.602 3.98436C22.5104 3.78516 20.4188 3.78516 18.2275 3.78516C16.1359 3.78516 14.0443 3.88476 11.853 3.98436C9.76138 4.08396 7.66975 4.38277 5.47852 4.78117C7.57015 5.17958 9.66178 5.37878 11.853 5.57799C13.9447 5.67759 16.1359 5.77719 18.2275 5.77719Z" fill="#39FF14"/>
<path d="M20.0195 23.5064C20.3183 23.7056 20.7167 23.8052 21.0155 23.9048H21.6131H21.7127V24.4028C21.7127 24.9008 21.6131 25.3988 21.6131 25.8968C21.5135 25.8968 21.4139 25.7972 21.3143 25.7972C21.1151 25.7972 21.0155 25.8968 20.8163 25.9964C20.6171 26.1957 20.5175 26.3949 20.3183 26.7933C20.5175 27.1917 20.6171 27.3909 20.8163 27.5901C21.0155 27.6897 21.1151 27.7893 21.3143 27.7893H21.5135V28.0881C21.5135 28.5861 21.6131 28.9845 21.8123 29.3829C21.6131 29.3829 21.5135 29.3829 21.3143 29.3829C20.9159 29.4825 20.5175 29.6817 20.1191 29.8809L19.9199 29.9805C19.7207 30.1797 19.6211 30.3789 19.6211 30.6777C19.6211 30.9765 19.7207 31.2753 19.9199 31.5741C20.1191 31.8729 20.3183 32.1717 20.6171 32.4706C21.0155 32.1717 21.1151 31.8729 21.3143 31.5741C21.3143 31.4745 21.4139 31.3749 21.4139 31.2753C21.7127 31.0761 21.9119 30.9765 22.1111 30.6777C22.2107 30.5781 22.3103 30.4785 22.3103 30.3789C23.1072 31.4745 24.5016 32.1717 25.896 32.1717C27.2904 32.1717 28.5852 31.4745 29.4817 30.3789C29.5813 30.4785 29.6809 30.5781 29.6809 30.6777C29.8801 30.8769 30.1789 31.0761 30.3781 31.2753C30.3781 31.3749 30.4777 31.4745 30.4777 31.5741C30.6769 31.8729 30.8761 32.1717 31.1749 32.4706C31.5733 32.1717 31.6729 31.8729 31.8721 31.5741C31.9717 31.2753 32.0713 30.9765 32.1709 30.6777C32.1709 30.3789 32.0713 30.1797 31.8721 29.9805L31.7725 29.8809C31.4737 29.5821 31.0753 29.4825 30.5773 29.3829C30.4777 29.3829 30.2785 29.3829 30.0793 29.3829C30.2785 28.9845 30.2785 28.4865 30.3781 28.0881C30.3781 27.9885 30.3781 27.8889 30.3781 27.7893H30.5773C30.7765 27.7893 30.8761 27.6897 31.0753 27.5901C31.2745 27.3909 31.3741 27.1917 31.5733 26.7933C31.3741 26.3949 31.2745 26.1957 31.0753 25.9964C30.8761 25.8968 30.7765 25.7972 30.5773 25.7972C30.4777 25.7972 30.3781 25.7972 30.2785 25.8968C30.2785 25.3988 30.1789 24.9008 30.1789 24.4028V23.9048H30.2785H30.8761C31.2745 23.9048 31.5733 23.7056 31.8721 23.606H31.9717C32.2705 23.4068 32.4697 23.108 32.3701 22.8092C32.3701 22.5104 32.2705 22.2116 32.1709 21.9128C31.9717 21.614 31.7725 21.3152 31.3741 21.0164C30.9757 21.3152 30.7765 21.614 30.5773 21.9128C30.4777 22.0124 30.4777 22.112 30.4777 22.2116C30.3781 22.3112 30.1789 22.4108 30.0793 22.61V22.7096C30.0793 22.61 29.9797 22.5104 29.9797 22.4108C29.7805 22.112 29.4817 21.9128 29.1828 21.9128C29.1828 21.8132 29.1828 21.8132 29.1828 21.7136V21.4148C29.1828 21.3152 29.1828 21.116 29.1828 21.0164C29.1828 20.5184 28.9836 20.0204 28.6848 19.5223C28.1868 18.6259 27.0912 18.0283 25.9956 18.0283C24.9 18.0283 23.8044 18.6259 23.3064 19.5223C23.0075 20.0204 22.9079 20.5184 22.9079 21.0164V21.4148V21.7136V21.9128C22.6091 22.0124 22.3103 22.112 22.1111 22.4108C22.0115 22.5104 22.0115 22.61 22.0115 22.7096C21.9119 22.5104 21.8123 22.4108 21.6131 22.3112C21.6131 22.2116 21.5135 22.112 21.5135 22.0124C21.3143 21.7136 21.1151 21.4148 20.7167 21.116C20.3183 21.4148 20.1191 21.7136 19.9199 22.0124C19.8203 22.3112 19.7207 22.61 19.7207 22.9088C19.6211 23.0084 19.7207 23.3072 20.0195 23.5064ZM28.9836 22.9088V23.4068L28.884 24.3032C28.7844 25.0004 28.6848 26.9925 28.5852 27.7893C28.4856 28.2873 28.386 28.6857 28.0872 28.9845C27.5892 29.6817 26.6928 30.1797 25.896 30.1797C24.9996 30.1797 24.2028 29.7813 23.7048 28.9845C23.406 28.5861 23.3064 28.1877 23.2068 27.7893C23.2068 27.2913 23.1071 26.5941 23.1071 25.9964C23.1071 25.3988 23.0075 24.8012 23.0075 24.2036L22.9079 23.3072V22.8092C22.9079 22.7096 22.9079 22.7096 22.9079 22.61C22.9079 22.5104 23.0075 22.4108 23.1071 22.4108C23.2068 22.5104 23.406 22.61 23.5056 22.61C24.3024 22.5104 25.0992 22.3112 25.896 22.0124C26.6928 22.3112 27.4896 22.5104 28.2864 22.61C28.4856 22.61 28.5852 22.61 28.6848 22.4108C28.7844 22.5104 28.884 22.5104 28.884 22.61C28.9836 22.8092 28.9836 22.8092 28.9836 22.9088ZM24.3024 21.2156L24.402 21.0164C24.5016 20.7176 24.6012 20.5184 24.8004 20.3192C25.0992 19.9207 25.5972 19.7215 25.9956 19.7215C26.4936 19.7215 26.892 19.9207 27.1908 20.3192C27.39 20.5184 27.4896 20.7176 27.5892 20.9168V21.116V21.4148V21.5144C26.9916 21.614 26.4936 21.8132 25.896 22.0124C25.2984 21.8132 24.8004 21.7136 24.2028 21.5144V21.4148L24.3024 21.2156Z" fill="#39FF14"/>
</svg>
