<svg width="51" height="50" viewBox="0 0 51 50" fill="none" xmlns="http://www.w3.org/2000/svg">
<path d="M21.5826 22.9035C21.4803 22.699 21.2758 22.4945 21.0713 22.29C20.6623 21.9832 20.2533 21.6765 19.7421 21.5742C18.7196 21.3697 17.5949 21.6765 16.8791 22.4945C16.1634 23.2102 15.8566 24.4372 16.1634 25.4597C16.2656 25.6642 16.3679 25.971 16.4701 26.1755C16.5724 26.4822 16.6746 26.4822 16.7769 26.6867L17.3904 27.6069C17.4926 27.7092 19.2309 30.4699 19.1286 30.2654L19.4353 30.7767C19.5376 30.9812 19.7421 31.1857 19.9466 31.3902C20.7646 32.1059 21.8893 32.3104 22.9118 31.9014C23.4231 31.7992 23.8321 31.3902 24.1388 31.0834L24.8546 30.3677L26.3883 28.8339C27.4108 27.8114 28.4333 26.7889 29.3536 25.7665C30.376 24.744 31.2963 23.7215 32.3188 22.699C32.5233 22.3922 32.83 22.1877 33.0345 21.881C33.3413 21.5742 33.4435 21.1652 33.5458 20.7562C33.648 19.9382 33.3413 19.2225 32.83 18.7112C33.4435 19.5292 33.3413 20.7562 32.6255 21.3697C31.3985 22.3922 30.8873 22.699 28.5356 24.744C27.4108 25.6642 26.3883 26.5845 25.2636 27.5047L23.5253 29.0384L22.7073 29.7542C22.5028 29.9587 22.4006 30.0609 22.1961 30.0609C21.6848 30.1632 21.1736 29.9587 20.9691 29.5497L20.6623 29.1407C20.5601 29.0384 18.8219 26.2777 18.9241 26.4822L18.3106 25.562C18.1061 25.2552 18.0039 25.0507 17.9016 24.9485C17.7994 24.6417 17.9016 24.1305 18.1061 23.926C18.3106 23.6192 18.7196 23.517 19.1286 23.517C19.3331 23.517 19.5376 23.6192 19.6398 23.7215L19.8443 23.926C19.9466 24.0282 20.0488 24.2327 20.1511 24.335C20.2533 24.4372 21.4803 26.2777 21.3781 26.1755C21.6848 26.5845 22.2983 26.6867 22.7073 26.2777C24.3433 24.6417 25.8771 23.0057 27.4108 21.3697C28.2288 20.5517 28.9446 19.7337 29.7625 18.9157C30.376 18.0977 31.7053 17.9955 32.6255 18.7112C32.3188 18.3022 31.7053 17.8932 31.0918 17.8932C30.4783 17.791 29.8648 17.9955 29.3536 18.4045C28.4333 19.1202 27.6153 19.836 26.6951 20.5517C25.2636 21.7787 23.7298 23.0057 22.2983 24.2327L21.6848 23.3125C21.6848 23.2102 21.6848 23.108 21.5826 22.9035Z" fill="#39FF14"/>
<path d="M24.8548 11.6564C25.6728 11.6564 26.4908 11.2474 27.002 10.6339C27.2065 10.3272 27.411 9.9182 27.5133 9.5092C27.5133 9.3047 27.6155 9.1002 27.5133 8.89571C27.5133 8.79346 27.5133 8.07771 27.1043 5.31697C27.002 4.29448 26.7975 3.16973 26.6953 2.14724C26.6953 1.84049 26.6953 1.63599 26.593 1.32924C26.4908 1.0225 26.3885 0.817996 26.184 0.613497C25.775 0.204499 25.2638 0 24.7525 0C25.2638 0 25.775 0.306748 26.0818 0.715746C26.3885 1.12474 26.3885 1.63599 26.3885 2.24949C26.184 4.60123 25.8773 6.33947 25.6728 8.69121V9.1002C25.6728 9.20245 25.6728 9.20245 25.5705 9.3047C25.5705 9.40695 25.4683 9.5092 25.366 9.61145C25.1615 9.81595 24.957 9.9182 24.7525 9.9182C24.548 9.9182 24.3435 9.81595 24.139 9.61145C24.0368 9.5092 23.9345 9.40695 23.9345 9.3047C23.9345 9.20245 23.9345 9.20245 23.8323 9.1002V8.69121C23.6278 6.33947 23.321 4.60123 23.1165 2.24949C23.0143 1.73824 23.1165 1.22699 23.4233 0.715746C23.73 0.306748 24.2413 0 24.7525 0C24.2413 0 23.73 0.204499 23.321 0.613497C23.1165 0.817996 23.0143 1.0225 22.912 1.32924C22.8098 1.63599 22.8098 1.84049 22.8098 2.14724C22.7075 3.16973 22.6053 4.29448 22.4008 5.31697C22.1963 8.07771 22.1963 8.79346 22.1963 8.89571V9.5092C22.2985 9.9182 22.4008 10.3272 22.7075 10.6339C23.2188 11.2474 24.0368 11.6564 24.8548 11.6564Z" fill="#39FF14"/>
<path d="M26.7975 40.3884C26.7975 40.0817 26.7975 39.8772 26.6953 39.5705C26.593 39.2637 26.4908 39.0592 26.2863 38.8547C25.8773 38.4457 25.366 38.2412 24.8548 38.2412C25.366 38.2412 25.8773 38.548 26.184 38.957C26.4908 39.366 26.4908 39.8772 26.4908 40.4907C26.2863 42.8424 25.9795 44.5807 25.775 46.9324V47.3414C25.775 47.4437 25.775 47.4437 25.6728 47.5459C25.6728 47.6482 25.5705 47.7504 25.4683 47.8527C25.0593 48.2617 24.548 48.1594 24.2413 47.8527C24.139 47.6482 24.0368 47.5459 23.9345 47.3414V46.9324C23.73 44.5807 23.4233 42.8424 23.2188 40.4907C23.1165 39.9795 23.2188 39.4682 23.5255 38.957C23.8323 38.548 24.3435 38.2412 24.8548 38.2412C24.3435 38.2412 23.8323 38.4457 23.4233 38.8547C23.2188 39.0592 23.1165 39.2637 23.0143 39.5705C22.912 39.8772 22.912 40.0817 22.912 40.3884C22.8098 41.4109 22.7075 42.5357 22.503 43.5582C22.1963 46.4212 22.1963 47.1369 22.1963 47.2392V47.8527C22.2985 48.2617 22.4008 48.6707 22.7075 48.9774C23.2188 49.5909 24.0368 49.9999 24.8548 49.9999C25.6728 49.9999 26.4908 49.5909 27.002 48.9774C27.2065 48.6707 27.411 48.2617 27.5133 47.8527C27.5133 47.6482 27.6155 47.4437 27.5133 47.2392C27.5133 47.1369 27.5133 46.4212 27.1043 43.6604C27.002 42.5357 26.8998 41.5132 26.7975 40.3884Z" fill="#39FF14"/>
<path d="M41.0094 11.5542L42.0319 10.3272C42.2364 10.1227 42.3386 9.91818 42.5431 9.71368C42.7476 9.50918 42.7476 9.20243 42.8499 8.89568C43.0544 7.56644 42.0319 6.54395 40.9071 6.54395C41.4184 6.54395 41.9296 6.85069 42.2364 7.25969C42.5431 7.66869 42.6454 8.28219 42.4409 8.69118C42.3386 9.20243 41.9296 9.40693 41.5206 9.81593L40.2936 10.8384C39.4756 11.4519 38.5554 12.1677 37.7374 12.8834C37.3284 13.1902 36.9194 13.5992 36.5104 13.9059L36.4082 14.0082L36.3059 14.1104C36.3059 14.1104 36.2037 14.2127 36.1014 14.2127C35.9992 14.2127 35.8969 14.3149 35.7947 14.3149C35.3857 14.3149 34.8744 13.9059 34.8744 13.3947C34.8744 13.2924 34.8744 13.0879 34.9767 12.9857C34.9767 12.8834 35.2834 12.5767 35.3857 12.4744L36.4082 11.2474C37.0217 10.4294 37.7374 9.50918 38.4532 8.69118L39.4757 7.46419C39.8846 6.85069 40.3959 6.54395 40.9071 6.54395C40.3959 6.54395 39.8846 6.74844 39.4757 7.15744L38.2487 8.17994C37.4307 8.89568 36.6127 9.50918 35.6924 10.2249L34.4654 11.2474C34.2609 11.4519 34.0564 11.5542 33.7497 11.8609C33.5452 12.1677 33.2384 12.4744 33.2384 12.8834C33.0339 13.5992 33.2384 14.5194 33.6474 15.2352C34.1587 15.8486 34.9767 16.2576 35.7947 16.2576C36.4082 16.2576 37.0217 16.0531 37.5329 15.6441C37.6352 15.5419 37.7374 15.5419 37.7374 15.4397L37.8397 15.3374C38.2487 14.9284 38.5554 14.5194 38.8622 14.1104C39.7824 13.1902 40.3959 12.3722 41.0094 11.5542Z" fill="#39FF14"/>
<path d="M13.8114 33.6396C14.3227 33.6396 14.8339 33.9464 15.1407 34.3554C15.4474 34.7644 15.5497 35.3779 15.3452 35.7869C15.2429 36.2981 14.8339 36.5026 14.4249 36.9116L13.1979 37.9341C12.3799 38.5476 11.4597 39.2634 10.6417 39.9791C10.2327 40.2859 9.82371 40.6949 9.41471 41.0016L9.31246 41.1039L9.21021 41.2061C9.21021 41.2061 9.10796 41.3084 9.00571 41.3084C9.00571 41.3084 8.90346 41.3084 8.80121 41.3084C8.28996 41.3084 7.88097 40.8994 7.88097 40.2859C7.88097 40.1836 7.88097 39.9791 7.98322 39.8769C7.98322 39.7746 8.28996 39.4679 8.39221 39.3656L9.41471 38.1386C10.0282 37.3206 10.744 36.4004 11.4597 35.5824L12.4822 34.3554C12.7889 33.9464 13.3002 33.6396 13.8114 33.6396C13.3002 33.6396 12.7889 33.8441 12.3799 34.2531L11.153 35.2756C10.335 35.9914 9.51696 36.6049 8.59671 37.3206L7.36972 38.3431C7.16522 38.5476 6.96072 38.6499 6.65397 38.9566C6.44947 39.2634 6.14273 39.5701 6.14273 39.9791C5.93823 40.6949 6.14273 41.6151 6.55172 42.3309C7.06297 42.9444 7.88097 43.3533 8.69896 43.3533C9.31246 43.3533 9.92596 43.1489 10.4372 42.7399C10.5395 42.6376 10.6417 42.6376 10.6417 42.5354L10.744 42.4331C11.153 42.0241 11.4597 41.6151 11.7664 41.2061C12.4822 40.3881 13.0957 39.5701 13.8114 38.6499L14.8339 37.4229C15.0384 37.2184 15.1407 37.0139 15.3452 36.8094C15.5497 36.6049 15.5497 36.2981 15.6519 35.9914C15.9587 34.6621 14.9362 33.6396 13.8114 33.6396Z" fill="#39FF14"/>
<path d="M48.781 22.1879C48.4742 22.0856 48.0652 21.9834 47.6562 21.9834L46.8382 22.0856C44.691 22.3924 42.5438 22.5969 40.3965 22.5969C42.5438 22.5969 44.691 22.8014 46.8382 23.1081L47.6562 23.2104C47.8607 23.2104 47.963 23.3126 48.0652 23.4149C48.372 23.6194 48.4742 23.9261 48.4742 24.2329C48.4742 24.8464 48.0652 25.2554 47.554 25.1531C45.4067 25.1531 43.2595 25.3576 41.1123 25.6644L40.2943 25.7666C40.0898 25.7666 39.8853 25.7666 39.6808 25.6644C39.2718 25.5621 38.8628 25.1531 38.7605 24.6419C38.6583 24.1306 38.6583 23.6194 38.965 23.2104C39.2718 22.8014 39.783 22.4946 40.2943 22.4946C39.1695 22.4946 38.2493 23.5171 38.3515 24.7441C38.4538 25.3576 38.7605 25.8689 39.2718 26.1756C39.5785 26.3801 39.8853 26.4824 40.192 26.4824L41.01 26.5846C43.1573 26.8914 45.3045 27.0959 47.4517 27.0959C48.2697 27.0959 49.0877 26.6869 49.599 26.0734C50.1102 25.4599 50.2125 24.5396 50.008 23.7216C50.008 23.1081 49.3945 22.4946 48.781 22.1879Z" fill="#39FF14"/>
<path d="M8.49448 23.1088L9.31248 23.2111C9.51698 23.2111 9.61923 23.3133 9.72148 23.4156C10.0282 23.6201 10.1305 23.9268 10.1305 24.2336C10.1305 24.8471 9.72148 25.2561 9.21023 25.1538C7.06299 25.1538 4.91575 25.3583 2.76851 25.6651L1.95051 25.7673C1.74602 25.7673 1.54152 25.7673 1.33702 25.6651C0.92802 25.5628 0.519022 25.1538 0.416772 24.6426C0.314523 24.1313 0.314523 23.6201 0.621271 23.2111C0.92802 22.8021 1.43927 22.4953 1.95051 22.4953C0.82577 22.4953 -0.0944753 23.5178 0.00777416 24.7448C0.110024 25.3583 0.416772 25.8696 0.92802 26.1763C1.23477 26.3808 1.54152 26.4831 1.84827 26.4831L2.66626 26.5853C4.8135 26.8921 6.96074 27.0966 9.10798 27.0966C9.92597 27.0966 10.744 26.6876 11.2552 26.0741C11.7665 25.4606 11.8687 24.5403 11.6642 23.7223C11.4597 22.9043 10.8462 22.2908 10.2327 22.0863C9.92598 21.9841 9.51698 21.8818 9.10798 21.8818L8.28998 21.9841C6.14274 22.2908 3.9955 22.4953 1.84827 22.4953C4.30225 22.5976 6.44949 22.9043 8.49448 23.1088Z" fill="#39FF14"/>
<path d="M43.055 38.957C42.7482 38.6503 42.5437 38.548 42.3392 38.3435L41.1122 37.321C40.2942 36.7075 39.374 35.9918 38.556 35.276L37.329 34.2535C36.92 33.8445 36.4087 33.64 35.8975 33.64C36.4087 33.64 36.92 33.9468 37.2267 34.3558L38.2492 35.5828C38.965 36.4008 39.5785 37.2188 40.2942 38.139L41.3167 39.366C41.419 39.5705 41.7257 39.8773 41.7257 39.8773C41.828 39.9795 41.828 40.184 41.828 40.2863C41.828 40.8998 41.419 41.3088 40.9077 41.2065C40.8055 41.2065 40.7032 41.2065 40.601 41.1043C40.4987 41.1043 40.4987 41.1043 40.3965 41.002L40.2942 40.8998L40.192 40.7975L38.965 39.775C38.147 39.0593 37.329 38.4458 36.4087 37.73L35.1817 36.7075C34.7727 36.4008 34.3637 36.094 34.2615 35.5828C34.1592 35.0715 34.1592 34.5603 34.466 34.1513C34.7727 33.7423 35.284 33.4355 35.7952 33.4355C34.6705 33.4355 33.7503 34.458 33.8525 35.685C33.8525 35.9918 33.9547 36.2985 34.1592 36.503C34.3637 36.8098 34.466 36.912 34.6705 37.1165L35.693 38.3435C36.3065 39.1615 37.0222 40.0818 37.738 40.8998L38.7605 42.1268L38.8627 42.229C39.0672 42.4335 39.374 42.638 39.5785 42.7403C39.9875 42.9448 40.3965 43.047 40.8055 43.047C41.6235 43.047 42.4415 42.638 42.9527 42.0245C43.464 41.411 43.5662 40.4908 43.3617 39.6728C43.464 39.5705 43.2595 39.2638 43.055 38.957Z" fill="#39FF14"/>
<path d="M15.9586 11.8609C15.6518 11.5542 15.4473 11.4519 15.2428 11.2474L14.0158 10.2249C13.1978 9.61143 12.2776 8.89568 11.4596 8.17994L10.2326 7.15744C9.8236 6.85069 9.31235 6.54395 8.8011 6.54395C9.31235 6.54395 9.8236 6.85069 10.1303 7.25969L11.1528 8.48669C11.8686 9.30468 12.4821 10.1227 13.1978 11.0429L14.2203 12.2699C14.3226 12.4744 14.6293 12.7812 14.6293 12.7812C14.7316 12.8834 14.7316 13.0879 14.7316 13.1902C14.7316 13.8037 14.3226 14.2127 13.8113 14.1104C13.7091 14.1104 13.6068 14.1104 13.5046 14.0082C13.4023 14.0082 13.4023 14.0082 13.3001 13.9059L13.1978 13.8037L13.0956 13.7014L11.8686 12.6789C11.0506 11.9632 10.2326 11.3497 9.31235 10.6339L8.08535 9.61143C7.67636 9.30468 7.26736 8.99793 7.16511 8.48669C7.06286 7.97544 7.06286 7.46419 7.36961 7.05519C7.77861 6.85069 8.28985 6.54395 8.8011 6.54395C7.67636 6.54395 6.75611 7.56644 6.85836 8.79343C6.85836 9.10018 6.96061 9.40693 7.16511 9.61143C7.36961 9.91818 7.47186 10.0204 7.67636 10.2249L8.69885 11.4519C9.31235 12.2699 10.0281 13.1902 10.7438 14.0082L11.7663 15.2352L11.8686 15.3374C12.0731 15.5419 12.3798 15.7464 12.5843 15.8486C12.9933 16.0531 13.4023 16.1554 13.8113 16.1554C14.6293 16.1554 15.4473 15.7464 15.9586 15.1329C16.4698 14.5194 16.5721 13.5992 16.4698 12.7812C16.3676 12.4744 16.1631 12.1677 15.9586 11.8609Z" fill="#39FF14"/>
</svg>
