<svg width="37" height="50" viewBox="0 0 37 50" fill="none" xmlns="http://www.w3.org/2000/svg">
<path d="M14.6996 41.0997C14.2996 40.9997 14.0996 40.7997 13.8996 40.5997C13.6996 40.3997 13.5996 40.0997 13.6996 39.6997C13.6996 39.2997 13.9996 38.7997 14.5996 38.3997C13.9996 37.8997 12.8996 38.1997 12.2996 38.8997C11.6996 39.6997 11.6996 40.8997 12.2996 41.6997C12.8996 42.5997 14.0996 42.8997 14.9996 42.5997C15.8996 42.2997 16.4996 41.2997 16.2996 40.5997C15.6996 41.0997 15.0996 41.1997 14.6996 41.0997Z" fill="#39FF14"/>
<path d="M13.5996 4.7C14.1996 5 14.8996 5 15.5996 4.7C15.8996 4.5 16.2996 4.3 16.5996 3.9C16.2996 3.5 15.8996 3.3 15.5996 3.1C14.8996 2.8 14.2996 2.8 13.5996 3.1C13.2996 3.3 12.8996 3.5 12.5996 3.9C12.8996 4.3 13.1996 4.5 13.5996 4.7Z" fill="#39FF14"/>
<path d="M0.1 36.1C3.7998e-07 39.6 0 41 0 41.8V42.1C0 42.9 0.4 43.7 0.9 44.2C1.4 44.6 1.9 44.9 2.6 45H3.1H3.4H4C7.2 44.9 10.9 44.6 14.1 44.1C11 43.5 7.2 43.3 4 43.2H3.4H3.1C3 43.2 3 43.2 2.9 43.2C2.7 43.2 2.5 43.1 2.3 42.9C2.1 42.7 2 42.5 2 42.3C2 42.2 2 42.2 2 42.1C2 42 2 41.9 2 41.8V41.2C2 39.8 1.9 38.3 1.9 36.9C2.8 36.8 3.8 36.8 4.7 36.7C5.5 36.6 6.3 36.5 7.1 36.4C9.1 36.3 11.1 36.3 13 36.2C13.6 36.9 14.1 37.7 14.7 38.4C14.2 37.7 13.7 36.9 13.2 36.2C10 31.2 10.7 32.4 10.1 31.5C9.4 30.7 9.7 29.4 10.5 28.9C11.1 28.5 11.9 28.5 12.5 29C12.7 29.1 12.8 29.3 13 29.6L17.5 35.1C17.6 35.2 17.8 35.3 18 35.3C18.4 35.3 18.7 35 18.7 34.7C18.9 25.1 18.9 27.9 19.1 18.4C19.2 18 19.4 17.6 19.8 17.5C20.1 17.3 20.6 17.3 20.9 17.5C21.3 17.7 21.5 18 21.5 18.4V19.3V20.3L21.4 28.5C21.4 28.7 21.5 28.9 21.5 29C21.4 29.6 21.3 30.2 21.3 30.8C21.3 31.5 21.4 32.2 21.5 32.9C21.7 33.6 21.9 34.3 22.3 35C22.7 34.3 22.9 33.6 23.1 32.9C23.2 32.2 23.3 31.5 23.3 30.8C23.3 30.2 23.2 29.6 23.1 29C23.2 28.9 23.2 28.7 23.3 28.5C23.3 28.1 23.5 27.8 23.8 27.6C24.5 27.1 25.5 27.5 25.6 28.4V28.8V29.8C25.6 30 25.7 30.1 25.7 30.3C25.6 30.7 25.6 31.2 25.6 31.6C25.6 32.2 25.7 32.8 25.8 33.4C26 34 26.2 34.6 26.6 35.2C27 34.6 27.2 34 27.4 33.4C27.5 32.8 27.6 32.2 27.6 31.6C27.6 31.2 27.5 30.7 27.5 30.3C27.6 30.2 27.6 30 27.6 29.9C27.6 29.5 27.8 29.2 28.1 29C28.4 28.8 28.8 28.7 29.1 28.8C29.5 28.9 29.7 29.2 29.9 29.5C29.9 29.6 30 29.7 30 29.8V30.2V31.2C30 31.3 30 31.4 30.1 31.5C30 31.8 30 32.1 30 32.4C30 32.9 30.1 33.3 30.2 33.8C30.4 34.3 30.6 34.7 31 35.2C31.4 34.7 31.6 34.3 31.8 33.8C31.9 33.3 32 32.9 32 32.4C32 32.1 32 31.8 31.9 31.5C31.9 31.4 32 31.3 32 31.1C32 30.5 32.5 30 33.1 29.9C33.7 29.8 34.3 30.3 34.4 30.9V31.1V31.5C34.4 31.7 34.4 37.1 34.4 37V40.1C34.3 40.6 34.3 41 34.1 41.5C34 42 33.8 42.3 33.5 42.9C32.7 44.7 32.3 46.7 32.2 48.7C28.3 48.8 24.3 48.9 20.4 49C19.9 46.4 18.8 43.9 17.1 41.9L16.5 41.1L17.1 42C18.6 44.2 19.6 46.8 19.9 49.4C19.9 49.5 20 49.7 20.2 49.7C22.5 49.8 25.5 49.9 32.9 50C33.2 50 33.5 49.7 33.5 49.4C33.6 47.4 34.1 45.4 34.9 43.6C35.1 43.2 35.4 42.6 35.6 42.1C35.8 41.6 35.9 41 36 40.4C36.1 39.8 36.1 39.2 36.1 38.7V37.1C36.1 37 36.2 32.1 36.2 32.4V31.6V31.2C36.2 31 36.2 30.8 36.1 30.6C35.8 29.1 34.3 28 32.8 28.1C32.4 28.1 31.9 28.3 31.6 28.5C31.2 27.8 30.5 27.2 29.7 26.9C29.3 26.8 28.8 26.7 28.3 26.8C28.5 23.7 28.6 20.6 28.7 17.5C28.8 14.1 28.9 10.7 29 7.4C29 7.4 29 7.4 29 7.3C28.9 4.6 29 3.2 29 3.4C29 3.2 29 3.1 29 2.8C29 2.5 28.9 2.3 28.8 2C28.4 0.9 27.4 0.2 26.3 0.1H23.9C20.8 2.23517e-08 17.7 0.1 14.5 0C11.4 0 8.3 2.23517e-08 5.1 0.1H2.7C1.7 0.1 0.7 0.9 0.3 1.9C0.2 2.2 0.1 2.4 0.1 2.7V3.3C0.1 4 0.2 6.3 0.2 6.1C0.0999998 6.4 0 6.6 0 6.9V14.2L0.1 21.5C0.2 26.1 0.3 30.8 0.5 35.4C0.3 35.6 0.2 35.8 0.1 36.1ZM27.2 26.8C26.8 26.1 26.1 25.5 25.3 25.2C24.6 25 23.9 25 23.2 25.3C23.2 25.1 23.2 18.7 23.2 19C23.2 18.7 23.2 18.4 23.2 17.8C23.1 16.8 22.4 15.9 21.5 15.5C20.6 15.1 19.5 15.1 18.7 15.6C17.8 16.1 17.3 17 17.2 17.9V18.3V18.6V19.1C17.2 19.2 17.2 22.4 17.2 22.2V26.3V32.7L13.7 28.7C13.5 28.5 13.3 28.2 13 28C12.7 27.8 12.4 27.7 12 27.6C11.3 27.5 10.5 27.7 10 28.1C9.4 28.5 9.1 29.2 9 29.9C8.9 30.6 9.2 31.3 9.6 31.8C10.7 33.3 11.8 34.7 12.9 36.2C10.9 36.1 9 36.1 7 36C6.2 35.9 5.4 35.8 4.6 35.7C3.5 35.6 2.4 35.5 1.3 35.4C1.5 30.8 1.6 26.2 1.7 21.5L1.8 14.2V7.9H14.4C18.7 7.8 23 7.8 27.3 7.7C27.4 10.9 27.4 14.1 27.6 17.2C27.7 20.3 27.8 23.4 28 26.5C27.8 26.5 27.5 26.6 27.2 26.8ZM1.8 3.4C1.8 3.1 1.8 2.8 1.9 2.5C2.1 2.1 2.5 1.8 2.9 1.8H5.2C8.3 1.9 11.4 1.8 14.6 1.9C17.7 1.9 20.8 1.9 24 1.8H26.3C26.7 1.8 27.2 2.1 27.3 2.5C27.3 2.6 27.4 2.7 27.4 2.8V3.3C27.4 3.6 27.5 6.2 27.5 6.1C23.2 6 18.9 5.9 14.6 5.9C8.6 5.9 6.6 5.8 1.7 5.9V4.6L1.8 3.4Z" fill="#39FF14"/>
</svg>
