<svg width="50" height="50" viewBox="0 0 50 50" fill="none" xmlns="http://www.w3.org/2000/svg">
<path d="M1 50C3.3 50 5.7 49.9 8 49.8C10.3 49.7 12.7 49.4 15 49C12.7 48.6 10.3 48.4 8 48.2C6 48.1 4 48 2 48C2 46 1.9 44 1.8 42C1.7 39.7 1.4 37.3 1 35C0.6 37.3 0.4 39.7 0.2 42C0.1 44.3 0 46.7 0 49C0 49.6 0.5 50 1 50Z" fill="#39FF14"/>
<path d="M1 15.1C1.4 12.8 1.6 10.4 1.8 8.1C1.9 6 2 4 2 2C4 2 6 1.9 8 1.8C10.3 1.7 12.7 1.4 15 1C12.7 0.6 10.3 0.4 8 0.2C5.7 0.1 3.3 0 1 0C0.4 0 0 0.5 0 1C0 3.3 0.1 5.7 0.2 8C0.4 10.4 0.6 12.7 1 15.1Z" fill="#39FF14"/>
<path d="M49 0C46.7 0 44.3 0.1 42 0.2C39.7 0.3 37.3 0.6 35 1C37.3 1.4 39.7 1.6 42 1.8C44 1.9 46 2 48 2C48 4 48.1 6 48.2 8C48.3 10.3 48.6 12.7 49 15C49.4 12.7 49.6 10.3 49.8 8C49.9 5.7 50 3.3 50 1C50 0.4 49.5 0 49 0Z" fill="#39FF14"/>
<path d="M49 34.9004C48.6 37.2004 48.4 39.6004 48.2 41.9004C48.1 43.9004 48 45.9004 48 47.9004C46 47.9004 44 48.0004 42 48.1004C39.7 48.2004 37.3 48.5004 35 48.9004C37.3 49.3004 39.7 49.5004 42 49.7004C44.3 49.9004 46.7 49.9004 49 49.9004C49.5 49.9004 50 49.4004 50 48.9004C50 46.6004 49.9 44.2004 49.8 41.9004C49.6 39.6004 49.4 37.3004 49 34.9004Z" fill="#39FF14"/>
<path d="M24.8004 43.4004C20.0004 43.2004 15.5004 40.3004 13.4004 36.1004C12.8004 35.1004 12.5004 33.9004 12.2004 32.8004C12.0004 31.6004 11.9004 30.5004 11.9004 29.2004C11.8004 26.7004 11.8004 24.1004 11.7004 21.6004L11.6004 19.7004C11.6004 19.1004 11.6004 18.5004 11.7004 17.9004C11.8004 16.7004 12.1004 15.5004 12.5004 14.4004C13.3004 12.1004 14.9004 10.0004 16.8004 8.40039C14.6004 9.70039 12.8004 11.7004 11.6004 14.0004C11.0004 15.2004 10.6004 16.4004 10.4004 17.8004C10.3004 18.5004 10.2004 19.1004 10.2004 19.8004L10.1004 21.7004C10.0004 24.2004 10.0004 26.8004 9.90039 29.3004C9.90039 30.5004 9.90039 31.9004 10.1004 33.3004C10.4004 34.6004 10.8004 35.9004 11.4004 37.1004C12.0004 38.3004 12.8004 39.4004 13.7004 40.4004C14.6004 41.4004 15.7004 42.3004 16.8004 43.0004C21.4004 45.8004 27.4004 45.9004 32.0004 42.8004C34.2004 41.3004 35.9004 39.3004 36.9004 37.0004C34.5004 41.2004 29.6004 43.7004 24.8004 43.4004Z" fill="#39FF14"/>
<path d="M38.1 22.2004C38.2 24.9004 38.5 27.6004 38.9 30.3004C39.3 27.6004 39.5 24.9004 39.7 22.2004C39.8 20.8004 39.9 19.5004 39.8 18.0004C39.7 16.6004 39.3 15.1004 38.8 13.8004C37.6 11.1004 35.7 8.80036 33.2 7.40036C30.6 6.00036 27.7 5.40036 25 5.80036C27.7 6.20036 30.2 7.20036 32.2 8.80036C34.2 10.3004 35.9 12.4004 36.8 14.7004C37.3 15.9004 37.6 17.1004 37.8 18.3004C38 19.5004 38 20.9004 38.1 22.2004Z" fill="#39FF14"/>
<path d="M31.7004 14.3005C32.7004 15.4005 33.4004 16.7005 33.7004 18.2005C33.9004 18.9005 33.9004 19.7005 33.9004 20.5005L34.1004 22.8005C34.2004 21.3005 34.4004 19.7005 34.2004 18.1005C34.0004 16.5005 33.4004 15.0005 32.5004 13.7005C31.5004 12.4005 30.2004 11.3005 28.7004 10.6005C27.2004 9.90051 25.5004 9.70051 23.8004 9.80051C20.4004 10.1005 17.3004 12.3005 15.9004 15.4005C15.5004 16.2005 15.3004 17.0005 15.1004 17.8005C14.9004 18.6005 14.9004 19.5005 14.9004 20.3005V24.9005V29.5005C14.9004 30.2005 14.9004 31.1005 15.1004 32.0005C15.2004 32.8005 15.5004 33.7005 15.9004 34.4005C17.3004 37.5005 20.4004 39.7005 23.8004 40.1005C25.5004 40.3005 27.2004 40.0005 28.7004 39.4005C30.2004 38.7005 31.5004 37.7005 32.5004 36.4005C33.4004 35.1005 34.1004 33.6005 34.3004 32.0005C34.5004 30.4005 34.3004 28.9005 34.2004 27.3005L34.0004 29.6005C34.0004 30.4005 33.9004 31.1005 33.7004 31.9005C33.4004 33.4005 32.6004 34.7005 31.7004 35.8005C29.8004 38.0005 26.7004 39.1005 24.0004 38.6005C21.2004 38.2005 18.7004 36.3005 17.7004 33.7005C17.4004 33.1005 17.2004 32.4005 17.1004 31.7005C17.0004 31.0005 17.0004 30.4005 17.0004 29.6005V25.0005V20.4005C17.0004 19.6005 17.0004 19.0005 17.1004 18.3005C17.2004 17.6005 17.4004 17.0005 17.7004 16.3005C18.8004 13.7005 21.3004 11.9005 24.1004 11.5005C26.8004 11.0005 29.8004 12.1005 31.7004 14.3005Z" fill="#39FF14"/>
<path d="M22.0996 32.1001C21.8996 31.8001 21.7996 31.5001 21.6996 31.2001C21.5996 30.8001 21.5996 30.6001 21.4996 30.1001C21.3996 26.6001 21.0996 23.2001 20.6996 19.7001C20.2996 23.2001 20.0996 26.6001 19.8996 30.1001C19.7996 31.0001 19.9996 32.1001 20.5996 33.0001C21.0996 33.9001 21.8996 34.7001 22.8996 35.1001C24.7996 36.0001 27.2996 35.6001 28.7996 34.1001C29.4996 33.3001 30.0996 32.4001 30.1996 31.3001C30.1996 31.0001 30.2996 30.8001 30.2996 30.5001C30.2996 30.2001 30.2996 30.1001 30.2996 29.8001V28.5001C30.1996 26.8001 30.1996 25.0001 30.0996 23.3001L29.9996 20.7001C29.9996 20.3001 29.9996 19.9001 29.8996 19.4001C29.7996 18.9001 29.6996 18.4001 29.4996 18.0001C29.0996 17.1001 28.3996 16.4001 27.5996 15.9001C26.7996 15.4001 25.8996 15.3001 24.9996 15.4001C26.7996 15.6001 28.1996 16.9001 28.5996 18.4001C28.6996 18.8001 28.7996 19.1001 28.7996 19.5001L28.6996 20.8001L28.5996 23.4001C28.4996 25.1001 28.4996 26.9001 28.3996 28.6001V29.9001V30.5001C28.3996 30.7001 28.3996 30.8001 28.2996 31.0001C28.1996 31.7001 27.7996 32.3001 27.3996 32.7001C26.4996 33.7001 24.8996 34.0001 23.6996 33.4001C22.9996 33.1001 22.3996 32.7001 22.0996 32.1001Z" fill="#39FF14"/>
<path d="M25.7996 26.8996C26.0996 25.5996 26.0996 24.2996 25.7996 22.9996C25.5996 22.3996 25.3996 21.6996 24.9996 21.0996C24.5996 21.6996 24.3996 22.3996 24.1996 22.9996C23.8996 24.1996 23.8996 25.5996 24.1996 26.8996C24.3996 27.4996 24.5996 28.1996 24.9996 28.7996C25.3996 28.1996 25.5996 27.5996 25.7996 26.8996Z" fill="#39FF14"/>
</svg>
