<svg width="51" height="50" viewBox="0 0 51 50" fill="none" xmlns="http://www.w3.org/2000/svg">
<path d="M21.3134 17.0037C24.776 17.9203 28.6459 18.2258 32.5158 17.8185C34.3489 17.6148 36.1821 17.2074 38.0152 16.5964C36.1821 16.3927 34.3489 16.2909 32.5158 16.189C29.5625 15.9853 25.7944 15.7817 21.7208 15.3743C19.8876 15.1706 18.1564 14.9669 16.3232 14.5596C17.749 15.7817 19.4803 16.4945 21.3134 17.0037Z" fill="#39FF14"/>
<path d="M40.9683 17.3091C41.5794 17.7165 42.2922 17.9202 42.9033 17.7165C44.2272 17.411 44.7364 16.2907 44.7364 15.3742C44.7364 15.8834 44.4309 16.3926 44.1254 16.5963C43.718 16.9018 43.2088 16.9018 42.9033 16.6981C42.4959 16.5963 42.2922 16.2907 42.1904 16.0871C42.0886 15.8834 42.0886 15.5779 42.0886 15.3742C42.0886 15.1705 42.0886 14.9668 42.1904 14.6613C42.2922 14.4576 42.4959 14.1521 42.9033 14.0502C43.2088 13.9484 43.718 13.9484 44.1254 14.1521C44.5327 14.3558 44.7364 14.865 44.7364 15.3742C44.7364 14.4576 44.1254 13.3374 42.9033 13.0318C42.2922 12.93 41.5794 13.0318 40.9683 13.4392C40.3573 13.8466 40.0518 14.6613 40.0518 15.3742C40.0518 16.1889 40.4591 16.9018 40.9683 17.3091Z" fill="#39FF14"/>
<path d="M34.1445 28.7159C35.4684 28.5122 36.7923 28.1048 38.0144 27.5956C36.6905 27.3919 35.3666 27.2901 34.0427 27.1883C31.1911 26.9846 28.9507 26.9846 26.3028 27.0864C24.9789 27.0864 23.7568 27.1883 22.3311 27.3919C23.5531 28.003 24.8771 28.4103 26.0991 28.614C28.747 29.1232 31.3948 29.2251 34.1445 28.7159Z" fill="#39FF14"/>
<path d="M42.9033 28.8171C44.2272 28.5116 44.7364 27.3913 44.7364 26.4748C44.7364 26.984 44.4309 27.4932 44.1254 27.6968C43.718 28.0024 43.2088 28.0024 42.9033 27.7987C42.4959 27.6968 42.2922 27.3913 42.1904 27.1876C42.0886 26.984 42.0886 26.6784 42.0886 26.4748C42.0886 26.2711 42.0886 26.0674 42.1904 25.7619C42.2922 25.5582 42.4959 25.2527 42.9033 25.1508C43.2088 25.049 43.718 25.049 44.1254 25.2527C44.5327 25.4564 44.7364 25.9656 44.7364 26.4748C44.7364 25.5582 44.1254 24.438 42.9033 24.1324C42.2922 24.0306 41.5794 24.1324 40.9683 24.5398C40.3573 24.9472 40.0518 25.7619 40.0518 26.4748C40.0518 27.1876 40.4591 28.0024 40.9683 28.4097C41.5794 28.8171 42.2922 28.9189 42.9033 28.8171Z" fill="#39FF14"/>
<path d="M34.1445 39.7139C35.4684 39.5102 36.7923 39.1029 38.0144 38.5937C36.6905 38.39 35.3666 38.2882 34.0427 38.1863C31.1911 37.9826 28.9507 37.9826 26.3028 38.0845C24.9789 38.0845 23.7568 38.1863 22.3311 38.39C23.5531 39.001 24.8771 39.4084 26.201 39.6121C27.5249 39.9176 28.8488 40.0194 30.1727 40.0194C31.4967 40.0194 32.8206 39.9176 34.1445 39.7139Z" fill="#39FF14"/>
<path d="M42.9033 39.8161C44.2272 39.5106 44.7364 38.3903 44.7364 37.4738C44.7364 37.983 44.4309 38.4922 44.1254 38.6959C43.718 39.0014 43.2088 39.0014 42.9033 38.7977C42.4959 38.6959 42.2922 38.3903 42.1904 38.1867C42.0886 37.983 42.0886 37.6775 42.0886 37.4738C42.0886 37.2701 42.0886 37.0664 42.1904 36.7609C42.2922 36.5572 42.4959 36.2517 42.9033 36.1499C43.2088 36.048 43.718 36.048 44.1254 36.2517C44.5327 36.4554 44.7364 36.9646 44.7364 37.4738C44.7364 36.5572 44.1254 35.437 42.9033 35.1315C42.2922 35.0296 41.5794 35.1315 40.9683 35.5388C40.3573 35.9462 40.0518 36.7609 40.0518 37.4738C40.0518 38.1867 40.4591 39.0014 40.9683 39.4087C41.5794 39.8161 42.2922 39.9179 42.9033 39.8161Z" fill="#39FF14"/>
<path d="M5.22236 28.8173C4.50948 29.0209 3.69476 29.2246 2.88004 29.3265C2.47268 29.4283 2.06532 29.4283 1.65796 29.4283C1.2506 29.4283 0.843236 29.4283 0.435876 29.4283C0.843236 29.5301 1.2506 29.632 1.65796 29.632C2.06532 29.632 2.47268 29.7338 2.88004 29.7338C3.69476 29.7338 4.50948 29.632 5.3242 29.5301C6.64812 29.2246 8.17572 28.6136 9.29597 27.697C8.68492 30.6504 8.48124 33.9093 8.48124 36.9645C6.03708 37.0663 3.38924 37.27 0.945076 37.881C0.843236 36.8626 0.639556 33.0945 0.435876 29.4283L0.130355 35.335C0.130355 36.3534 -0.0733249 37.3718 0.0285152 38.3902C0.0285152 39.4086 0.232195 40.427 0.537716 41.4454C1.14876 43.4822 2.269 45.3154 3.7966 46.843C4.61132 47.5558 5.42604 48.2687 6.3426 48.7779C7.25916 49.2871 8.27756 49.6945 9.29597 50H9.70333C10.7217 49.6945 11.7401 49.389 12.7585 48.8798C13.6751 48.3706 14.5917 47.7595 15.4064 47.0466C17.0358 45.6209 18.2579 43.6859 18.8689 41.6491C19.1745 40.6307 19.3781 39.5105 19.48 38.4921V37.6773V36.9645V35.4369C19.48 35.2332 19.3781 29.3265 19.3781 29.4283C19.3781 28.9191 18.8689 28.5117 18.3597 28.6136C17.6469 28.7154 16.8321 28.8173 16.1193 28.8173C15.4064 28.8173 14.5917 28.7154 13.8788 28.5117C13.4714 28.4099 13.1659 28.3081 12.8604 28.2062L13.064 23.1142L13.1659 19.448C13.2677 19.5498 13.4714 19.7535 13.5732 19.8553C14.1843 20.3645 14.7953 20.6701 15.4064 20.9756C17.8505 22.1977 20.4984 22.8087 23.1462 23.1142C25.7941 23.5216 28.3401 23.7253 30.9879 23.7253C33.5339 23.7253 36.0799 23.5216 38.5241 23.2161H38.8296C39.4406 23.1142 39.9498 23.0124 40.5609 22.9105C40.7646 22.9105 40.9682 22.8087 41.1719 22.8087C42.8014 22.5032 44.5326 21.994 46.1621 21.2811C46.875 20.9756 47.486 20.6701 48.1989 20.1609C48.1989 25.151 48.3007 26.1694 48.3007 27.5952C48.3007 27.697 48.1989 27.7989 48.1989 27.9007V28.0025C48.1989 28.5117 47.486 29.3265 46.5694 29.8357C45.6529 30.3449 44.6345 30.8541 43.5142 31.1596C41.3756 31.8725 39.0333 32.3817 36.691 32.6872C34.3486 32.9927 32.0063 33.1964 29.664 33.2982C27.3217 33.4001 24.9793 33.2982 22.5352 33.0945H22.637C22.637 33.0945 22.637 33.0945 22.5352 33.0945C22.637 33.0945 22.7389 33.0945 22.8407 33.1964C25.0812 33.7056 27.3217 34.0111 29.5621 34.2148C31.9045 34.4185 34.3486 34.4185 36.7928 34.2148C39.237 34.0111 41.5793 33.7056 43.9216 32.9927C45.1437 32.5853 46.2639 32.178 47.3842 31.5669C47.5878 31.4651 47.7915 31.2614 47.9952 31.1596V38.8994V39.1031V39.205V39.3068C47.8934 39.5105 47.7915 39.7141 47.5878 40.0197C47.1805 40.5289 46.5694 40.9362 45.8566 41.2418C44.4308 41.9546 42.9032 42.4638 41.2738 42.8712C38.0149 43.6859 34.756 44.0933 31.3953 44.1951C28.0345 44.3988 24.6738 44.297 21.3131 43.8896C22.9425 44.3988 24.6738 44.7043 26.3033 44.908C28.0345 45.1117 29.664 45.3154 31.3953 45.3154C34.8578 45.4172 38.3204 45.2135 41.6811 44.5006C43.4124 44.0933 45.0418 43.6859 46.7731 42.8712C47.5878 42.4638 48.4026 41.9546 49.1154 41.2418C49.421 40.8344 49.8283 40.3252 49.9302 39.7142L50.032 39.205V39.0013V38.7976C50.032 37.1681 50.032 36.4553 50.032 27.9007C50.032 27.7989 50.032 27.697 49.9302 27.4933C50.032 22.9105 50.032 22.0958 50.032 16.902C50.032 16.6983 50.032 16.5964 49.9302 16.4946C49.9302 16.1891 49.9302 15.9854 49.9302 15.6799V13.7449L49.8283 6.61612C49.8283 6.41244 49.9302 6.20876 49.9302 6.00508C49.9302 5.69956 49.8283 5.39404 49.7265 5.19036C49.6246 4.98668 49.5228 4.68116 49.3191 4.47748L48.8099 3.86644C48.6062 3.66276 48.4026 3.56092 48.3007 3.35724C47.5878 2.74619 46.7731 2.33883 45.9584 2.03331C44.329 1.42227 42.6995 1.01491 40.9682 0.709392C37.6075 0.200192 34.2468 -0.00348857 30.8861 0.302032C34.1449 0.302032 37.5057 0.709392 40.6627 1.52411C42.2922 1.93147 43.9216 2.44067 45.3474 3.05171C46.0602 3.35723 46.7731 3.7646 47.2823 4.2738C47.8934 4.783 48.1989 5.2922 48.1989 5.8014C48.1989 6.3106 47.7915 6.8198 47.1805 7.22716C46.5694 7.63452 45.9584 8.04188 45.2455 8.3474C43.8198 8.95844 42.1903 9.3658 40.6627 9.67132C37.5057 10.2824 34.1449 10.5879 30.8861 10.486C27.6272 10.486 24.3683 10.2824 21.1094 9.56948C19.48 9.26396 17.9524 8.8566 16.5266 8.24556C15.8137 8.04188 15.1009 7.63452 14.4898 7.22716C13.8788 6.8198 13.4714 6.3106 13.4714 5.8014C13.4714 5.2922 13.7769 4.783 14.388 4.2738C14.8972 3.7646 15.6101 3.35723 16.3229 3.05171C17.7487 2.33883 19.3781 1.82963 20.9057 1.52411C24.0628 0.709392 27.4235 0.302032 30.7842 0.0983516C27.4235 -0.105329 24.0628 -0.00348851 20.7021 0.505712C19.0726 0.811232 17.3413 1.21859 15.7119 1.82963C14.8972 2.13515 14.0824 2.54251 13.3696 3.15355C13.1659 3.35723 12.9622 3.45907 12.8604 3.66276L12.3512 4.2738C12.2493 4.47748 12.0456 4.783 11.9438 4.98668C11.842 5.2922 11.842 5.59772 11.7401 5.8014C11.7401 6.00508 11.842 6.20876 11.842 6.41244L11.7401 13.5412V15.4762C11.7401 16.1891 11.6383 16.5964 11.842 17.7167C11.9438 18.0222 12.1475 18.3277 12.2493 18.5314L12.3512 22.9105L12.5548 28.0025C12.2493 27.9007 11.842 27.697 11.5364 27.5952C10.8236 27.2897 10.2125 26.7805 9.70333 26.3731C9.49964 26.1694 9.09228 26.1694 8.8886 26.3731C8.17572 27.2897 6.64812 28.3081 5.22236 28.8173ZM40.9682 11.5044C42.5977 11.0971 44.329 10.6897 45.9584 9.875C46.7731 9.46764 47.486 9.06028 48.3007 8.44924L48.1989 13.4394V15.3744V16.1891C48.097 16.2909 48.097 16.4946 48.097 16.6983C48.097 17.1056 47.7915 17.513 47.1805 18.0222C46.6713 18.4296 45.9584 18.8369 45.2455 19.1425C43.8198 19.7535 42.2922 20.1609 40.6627 20.5682C40.1535 20.6701 39.5425 20.7719 39.0333 20.8737C38.8296 20.8737 38.7278 20.9756 38.5241 20.9756C35.9781 21.3829 33.5339 21.4848 30.9879 21.4848C28.4419 21.4848 25.8959 21.3829 23.4517 20.9756C21.0076 20.5682 18.4616 20.059 16.2211 19.0406C15.1009 18.5314 14.0824 17.8185 13.7769 17.1056C13.6751 16.902 13.6751 16.0872 13.6751 15.4762V13.5412L13.5732 8.55108C14.2861 9.16212 15.1009 9.56948 15.9156 9.97684C17.545 10.6897 19.1745 11.1989 20.9057 11.6063C24.2665 12.3192 27.6272 12.6247 31.0897 12.6247C34.2468 12.5228 37.7094 12.2173 40.9682 11.5044ZM7.05548 47.1485C6.24076 46.7411 5.42604 46.2319 4.815 45.6209C3.38924 44.3988 2.37084 42.7694 1.65796 41.0381C1.35244 40.1215 1.14876 39.205 1.04692 38.1866C1.04692 38.0847 1.04692 37.9829 1.04692 37.881C3.38924 38.4921 6.03708 38.6958 8.48124 38.6958C8.48124 41.6491 8.68492 44.908 9.29597 47.7595C8.48124 47.7595 7.76836 47.454 7.05548 47.1485ZM16.934 40.8344C16.3229 42.5657 15.3045 44.0933 13.9806 45.4172C13.2677 46.0282 12.5548 46.5374 11.7401 47.0466C11.0272 47.3522 10.3144 47.6577 9.60148 47.9632C10.1107 45.1117 10.3144 41.751 10.4162 38.8994C12.6567 38.8994 15.2027 38.6958 17.4432 38.1866V38.2884C17.3413 39.1031 17.2395 40.0197 16.934 40.8344ZM11.1291 28.7154C11.5364 28.9191 11.9438 29.2246 12.3512 29.3265C12.453 29.4283 12.5548 29.5301 12.6567 29.5301C12.6567 29.5301 12.8604 29.5301 13.064 29.632C13.1659 29.632 13.2677 29.7338 13.4714 29.7338C14.2861 29.9375 15.2027 30.1412 16.0174 30.243H17.545L17.4432 35.2332V37.5755C15.2027 37.0663 12.6567 36.8626 10.4162 36.8626C10.4162 33.9093 10.2125 30.5485 9.60148 27.697C10.1107 28.0025 10.6199 28.4099 11.1291 28.7154Z" fill="#39FF14"/>
</svg>
