<svg width="50" height="50" viewBox="0 0 50 50" fill="none" xmlns="http://www.w3.org/2000/svg">
<path d="M48.6094 40.1096C48.712 40.007 48.8145 39.9045 48.9171 39.802C49.4298 39.0842 49.7374 38.0587 49.7374 36.9308C49.7374 35.7003 49.4298 34.7774 48.9171 34.0596C48.4043 33.3418 47.584 32.9316 46.5586 32.9316C45.5331 32.9316 44.7128 33.3418 44.2001 34.0596C43.7899 34.5723 43.5848 35.2901 43.4823 36.1104C42.867 35.7002 42.3543 35.1875 41.7391 34.7774C41.6365 34.5723 41.534 34.2647 41.3289 34.0596C40.8162 33.4443 40.2009 33.0341 39.2781 33.0341C38.1501 32.2138 37.0221 31.3935 35.7916 30.6757C35.8942 30.5731 35.9967 30.368 36.0992 30.2655C36.3043 29.9579 36.3043 29.5477 36.3043 29.2401C36.3043 28.8299 36.0992 28.4197 35.7916 28.0096L35.6891 27.907L35.5865 27.8045C36.612 27.8045 37.4323 27.3943 37.945 26.6765C38.4577 25.9587 38.7653 24.9333 38.7653 23.8053C38.7653 22.5748 38.4577 21.6519 37.945 20.9341C37.4323 20.2163 36.612 19.8062 35.5865 19.8062C35.6891 19.0884 35.6891 18.268 35.6891 17.5502C35.6891 16.5248 35.5865 15.4994 35.3814 14.474H35.484C36.5094 14.474 37.3298 14.0638 37.8425 13.346C38.3552 12.6282 38.6628 11.6028 38.6628 10.4748C38.6628 9.24429 38.3552 8.3214 37.8425 7.60361C37.3298 6.88581 36.5094 6.47564 35.484 6.47564C34.4586 6.47564 33.6382 6.88581 33.1255 7.60361C33.023 7.70615 32.9204 7.91123 32.8179 8.11632C32.1001 6.98835 31.1772 5.86038 30.2543 4.9375C26.8704 1.65614 22.1535 -0.189626 17.539 0.0154592C13.0272 -0.0870833 8.51531 1.96377 5.43903 5.24513C7.07971 3.70699 9.02802 2.57902 11.0789 1.75868C13.1297 0.938342 15.3857 0.630714 17.539 0.733257C21.9484 0.835799 26.1526 2.68156 29.1264 5.86038C29.3314 6.06547 29.5365 6.27055 29.7416 6.57818H27.7933V7.70615H29.3314V14.2689H30.5619V7.70615C31.2797 8.62903 31.895 9.757 32.3052 10.7824C32.4077 11.8078 32.6128 12.6282 33.023 13.2434L33.1255 13.346C33.4331 14.679 33.6382 16.0121 33.6382 17.3451C33.6382 18.3706 33.5357 19.396 33.3306 20.3189C33.2281 20.4214 33.1255 20.524 33.023 20.6265C32.5103 21.3443 32.2026 22.3697 32.2026 23.4977V23.7028C31.3823 25.5485 30.2543 27.2918 28.8187 28.7274C25.9475 31.5986 21.9484 33.3418 17.8467 33.4443C17.334 33.0341 16.7187 32.8291 15.8984 32.8291C15.2831 32.8291 14.7704 32.9316 14.3602 33.2392C11.1814 32.624 8.20768 31.0858 5.8492 28.9324C2.77293 25.9587 0.824619 21.7545 0.722077 17.3451C0.619534 15.1917 1.0297 12.9358 1.7475 10.885C2.77293 8.93666 4.00344 6.98835 5.43903 5.24513C2.15767 8.3214 0.106822 12.8333 0.00427922 17.4477C-0.0982633 22.0621 1.64496 26.7791 4.92632 30.163C5.95174 31.2909 7.18226 32.2138 8.51531 33.0341C8.51531 33.0341 8.51531 33.0341 8.41276 33.0341C7.38734 33.0341 6.567 33.4443 6.05429 34.1621C5.54157 34.8799 5.23395 35.9053 5.23395 37.0333C5.23395 38.2638 5.54157 39.1867 6.05429 39.9045C6.567 40.6223 7.38734 41.0325 8.41276 41.0325C9.43819 41.0325 10.2585 40.6223 10.7712 39.9045C11.284 39.1867 11.5916 38.1613 11.5916 37.0333C11.5916 35.9053 11.3865 34.9825 10.8738 34.2647C11.5916 34.5723 12.4119 34.8799 13.2323 35.085C13.0272 35.7002 12.9246 36.3155 12.9246 37.1358C12.9246 38.3664 13.2323 39.2892 13.745 40.007C14.2577 40.7248 15.078 41.135 16.1035 41.135C17.1289 41.135 17.9492 40.7248 18.4619 40.007C18.9746 39.2892 19.2823 38.2638 19.2823 37.1358C19.2823 36.6231 19.1797 36.1104 19.0772 35.7003C19.6924 35.7003 20.2052 35.5977 20.7179 35.4952C20.6153 36.0079 20.5128 36.5206 20.5128 37.2384C20.5128 38.4689 20.8204 39.3918 21.3331 40.1096C21.8458 40.8274 22.6662 41.2375 23.6916 41.2375C24.717 41.2375 25.5374 40.8274 26.0501 40.1096C26.5628 39.3918 26.8704 38.3664 26.8704 37.2384C26.8704 36.0079 26.5628 35.085 26.0501 34.3672C25.9475 34.2647 25.845 34.0596 25.6399 33.957C25.7424 33.8545 25.9475 33.8545 26.0501 33.7519C26.3577 34.0596 26.6653 34.4697 26.973 34.7774C27.178 35.085 27.4857 35.2901 27.6908 35.5977L27.8958 35.8028L27.9984 35.9053C28.1009 36.0079 28.1009 36.0079 28.2035 36.1104C28.1009 36.418 28.1009 36.8282 28.1009 37.2384C28.1009 38.4689 28.4086 39.3918 28.9213 40.1096C29.434 40.8274 30.2543 41.2375 31.2797 41.2375C32.3052 41.2375 33.1255 40.8274 33.6382 40.1096C34.7662 41.6477 35.8942 43.2884 37.1247 44.8265C37.7399 45.6469 38.3552 46.4672 38.9704 47.185L39.3806 47.8003L39.9959 48.4155C40.406 48.8257 40.9187 49.1333 41.4314 49.4409C43.5848 50.4664 46.3535 50.0562 48.0967 48.4155C49.8399 46.7748 50.3526 44.0062 49.4298 41.8528C49.2247 40.9299 48.9171 40.5197 48.6094 40.1096ZM9.84836 38.9816C9.54073 39.4943 9.13056 39.802 8.41276 39.802C7.79751 39.802 7.2848 39.4943 6.97717 38.9816C6.66954 38.4689 6.567 37.7511 6.567 36.9308C6.567 36.1104 6.66954 35.3926 6.97717 34.8799C7.2848 34.3672 7.79751 34.0596 8.41276 34.0596C9.02802 34.0596 9.54073 34.3672 9.84836 34.8799C10.156 35.3926 10.2585 36.1104 10.2585 36.9308C10.3611 37.7511 10.156 38.4689 9.84836 38.9816ZM44.6103 36.9308C44.6103 36.1104 44.7128 35.3926 45.0204 34.8799C45.3281 34.3672 45.8408 34.0596 46.456 34.0596C47.0713 34.0596 47.584 34.3672 47.8916 34.8799C48.1993 35.3926 48.3018 36.1104 48.3018 36.9308C48.3018 37.7511 48.1993 38.4689 47.8916 38.9816C47.7891 39.0842 47.7891 39.1867 47.6865 39.2892C47.4815 39.0842 47.2764 38.9816 47.1738 38.8791C46.1484 38.0587 44.8154 37.0333 44.6103 36.9308ZM35.484 20.729C36.0992 20.729 36.612 21.0367 36.9196 21.5494C37.2272 22.0621 37.3298 22.7799 37.3298 23.6002C37.3298 24.4206 37.2272 25.1384 36.9196 25.6511C36.612 26.1638 36.0992 26.4714 35.484 26.4714C34.8687 26.4714 34.356 26.1638 34.0484 25.6511C33.9459 25.5485 33.9459 25.3435 33.8433 25.2409C34.5611 23.8053 35.0738 22.2672 35.3814 20.729H35.484ZM34.0484 8.21886C34.356 7.70615 34.8687 7.39852 35.484 7.39852C36.0992 7.39852 36.612 7.70615 36.9196 8.21886C37.2272 8.73157 37.3298 9.44937 37.3298 10.2697C37.3298 11.09 37.2272 11.8078 36.9196 12.3206C36.612 12.8333 36.0992 13.1409 35.484 13.1409C35.3814 13.1409 35.1764 13.1409 35.0738 13.1409C34.7662 11.8078 34.2535 10.5773 33.6382 9.34683C33.7408 8.93666 33.9459 8.62903 34.0484 8.21886ZM17.9492 36.9308C17.9492 37.7511 17.8467 38.4689 17.539 38.9816C17.2314 39.4943 16.7187 39.802 16.1035 39.802C15.4882 39.802 14.9755 39.4943 14.6679 38.9816C14.3602 38.4689 14.1551 37.7511 14.1551 36.9308C14.1551 36.213 14.2577 35.7003 14.4628 35.1875C15.4882 35.3926 16.5136 35.4952 17.539 35.4952H17.7441C17.8467 35.9053 17.9492 36.3155 17.9492 36.9308ZM25.1272 34.7774C25.4348 35.2901 25.5374 36.0079 25.5374 36.8282C25.5374 37.6486 25.4348 38.3664 25.1272 38.8791C24.8196 39.3918 24.4094 39.6994 23.6916 39.6994C23.0763 39.6994 22.5636 39.3918 22.256 38.8791C21.9484 38.3664 21.8458 37.6486 21.8458 36.8282C21.8458 36.0079 21.9484 35.2901 22.256 34.7774C22.9738 34.5723 23.7941 34.3672 24.5119 34.0596C24.717 34.2647 24.9221 34.4697 25.1272 34.7774ZM27.3831 32.624C29.7416 31.1884 31.3823 29.4452 32.8179 27.1892C33.023 27.3943 33.2281 27.7019 33.4331 27.907C33.6382 28.2146 33.9459 28.4197 34.1509 28.7274L34.356 28.9324L34.4586 29.035L34.2535 29.2401C33.9458 29.4452 33.7408 29.7528 33.4331 29.9579L31.895 31.496L30.3569 33.0341L29.6391 33.8545L29.434 34.0596L29.3314 33.957L29.0238 34.0596C28.7162 33.8545 28.5111 33.5469 28.2035 33.3418C27.8958 33.0341 27.6908 32.8291 27.3831 32.624ZM32.7153 38.9816C32.4077 39.4943 31.895 39.802 31.2797 39.802C30.6645 39.802 30.1518 39.4943 29.8441 38.9816C29.5365 38.4689 29.3314 37.7511 29.3314 36.9308C29.3314 36.6231 29.3314 36.418 29.434 36.1104C29.9467 36.1104 30.3569 35.9053 30.6645 35.5977L30.767 35.4952L32.9204 38.5714C32.8179 38.7765 32.8179 38.8791 32.7153 38.9816ZM46.6611 46.5698C45.5332 47.6977 43.6874 48.0053 42.2518 47.3901C41.9442 47.185 41.534 46.9799 41.2264 46.7748C41.0213 46.6723 40.9187 46.4672 40.8162 46.3647C40.0984 45.5443 39.6882 45.0316 38.3552 43.596C35.8942 40.8274 33.4331 38.1613 30.8696 35.4952L31.6899 34.7774L33.2281 33.2392L34.7662 31.7011C34.9713 31.3935 35.2789 31.1884 35.484 30.8808L35.5865 30.7782C38.2526 33.4443 40.9187 35.9053 43.6874 38.3664C44.4052 38.9816 45.123 39.6994 45.9433 40.3147C46.3535 40.6223 46.6611 40.9299 46.8662 41.2375C47.0713 41.5452 47.2764 41.8528 47.4815 42.263C48.1993 43.6986 47.8916 45.5443 46.6611 46.5698Z" fill="#39FF14"/>
<path d="M8.51573 14.3714C9.54116 14.3714 10.3615 13.9612 10.8742 13.2434C11.3869 12.5256 11.592 11.6027 11.592 10.3722C11.592 9.14169 11.2844 8.21881 10.7717 7.50101C10.3615 6.68067 9.54116 6.37305 8.51573 6.37305C7.49031 6.37305 6.66997 6.78322 6.15725 7.50101C5.542 8.11627 5.33691 9.14169 5.33691 10.3722C5.33691 11.6027 5.64454 12.5256 6.15725 13.2434C6.66997 13.9612 7.38776 14.3714 8.51573 14.3714ZM7.08014 8.21881C7.38776 7.7061 7.79793 7.50101 8.51573 7.50101C9.13099 7.50101 9.6437 7.80864 9.95133 8.32135C10.259 8.83407 10.3615 9.55186 10.3615 10.3722C10.3615 11.1925 10.259 11.9103 9.95133 12.4231C9.6437 12.9358 9.23353 13.2434 8.51573 13.2434C7.90048 13.2434 7.38776 12.9358 7.08014 12.4231C6.77251 11.9103 6.66997 11.1925 6.66997 10.3722C6.56742 9.44932 6.77251 8.83407 7.08014 8.21881Z" fill="#39FF14"/>
<path d="M16.1036 14.3714C17.129 14.3714 17.9494 13.9612 18.4621 13.2434C18.9748 12.5256 19.2824 11.5002 19.2824 10.3722C19.2824 9.14169 18.9748 8.21881 18.4621 7.50101C17.9494 6.78322 17.129 6.37305 16.1036 6.37305C15.0782 6.37305 14.2579 6.78322 13.7451 7.50101C13.2324 8.21881 12.9248 9.24424 12.9248 10.3722C12.9248 11.6027 13.2324 12.5256 13.7451 13.2434C14.2579 13.9612 14.9757 14.3714 16.1036 14.3714ZM14.668 8.21881C14.9757 7.7061 15.4884 7.39847 16.1036 7.39847C16.7189 7.39847 17.2316 7.7061 17.5392 8.21881C17.8468 8.73152 17.9494 9.44932 17.9494 10.2697C17.9494 11.09 17.8468 11.8078 17.5392 12.3205C17.2316 12.8332 16.7189 13.1409 16.1036 13.1409C15.4884 13.1409 14.9757 12.9358 14.668 12.4231C14.3604 11.9103 14.1553 11.1925 14.1553 10.3722C14.1553 9.44932 14.3604 8.83407 14.668 8.21881Z" fill="#39FF14"/>
<path d="M23.6915 14.3714C24.7169 14.3714 25.5373 13.9612 26.05 13.2434C26.5627 12.5256 26.8703 11.5002 26.8703 10.3722C26.8703 9.14169 26.5627 8.21881 26.05 7.50101C25.5373 6.78322 24.7169 6.37305 23.6915 6.37305C22.6661 6.37305 21.8457 6.78322 21.333 7.50101C20.8203 8.21881 20.5127 9.24424 20.5127 10.3722C20.5127 11.6027 20.8203 12.5256 21.333 13.2434C21.8457 13.9612 22.6661 14.3714 23.6915 14.3714ZM22.2559 8.21881C22.5635 7.7061 23.0763 7.39847 23.6915 7.39847C24.3068 7.39847 24.8195 7.7061 25.1271 8.21881C25.4347 8.73152 25.5373 9.44932 25.5373 10.2697C25.5373 11.09 25.4347 11.8078 25.1271 12.3205C24.8195 12.8332 24.4093 13.1409 23.6915 13.1409C23.0763 13.1409 22.5635 12.8332 22.2559 12.3205C21.9483 11.8078 21.8457 11.09 21.8457 10.2697C21.8457 9.44932 21.9483 8.83407 22.2559 8.21881Z" fill="#39FF14"/>
<path d="M45.5334 7.39848C45.0207 6.68068 44.2003 6.27051 43.1749 6.27051C42.1495 6.27051 41.3291 6.68068 40.8164 7.39848C40.3037 8.11627 39.9961 9.1417 39.9961 10.2697C39.9961 11.5002 40.3037 12.4231 40.8164 13.1409C41.3291 13.8587 42.1495 14.2688 43.1749 14.2688C44.2003 14.2688 45.0207 13.8587 45.5334 13.1409C46.0461 12.4231 46.3537 11.3976 46.3537 10.2697C46.2512 9.1417 46.0461 8.11627 45.5334 7.39848ZM44.508 12.4231C44.2003 12.9358 43.7902 13.2434 43.0724 13.2434C42.4571 13.2434 41.9444 12.9358 41.6368 12.4231C41.3291 11.9103 41.2266 11.1925 41.2266 10.3722C41.2266 9.55187 41.3291 8.83407 41.6368 8.32136C41.9444 7.80865 42.4571 7.50102 43.0724 7.50102C43.6876 7.50102 44.2003 7.80865 44.508 8.32136C44.8156 8.83407 44.9181 9.55187 44.9181 10.3722C45.0207 11.1925 44.8156 11.9103 44.508 12.4231Z" fill="#39FF14"/>
<path d="M8.51573 27.5999C9.54116 27.5999 10.3615 27.1897 10.8742 26.4719C11.3869 25.7541 11.6946 24.7287 11.6946 23.6007C11.6946 22.3702 11.3869 21.4473 10.8742 20.7295C10.3615 20.0117 9.54116 19.6016 8.51573 19.6016C7.49031 19.6016 6.66997 20.0117 6.15725 20.7295C5.64454 21.4473 5.33691 22.4728 5.33691 23.6007C5.33691 24.8312 5.64454 25.7541 6.15725 26.4719C6.66997 27.2923 7.38776 27.5999 8.51573 27.5999ZM7.08014 21.5499C7.38776 21.0372 7.90048 20.7295 8.51573 20.7295C9.13099 20.7295 9.6437 21.0372 9.95133 21.5499C10.259 22.0626 10.3615 22.7804 10.3615 23.6007C10.3615 24.4211 10.259 25.1389 9.95133 25.6516C9.6437 26.1643 9.23353 26.4719 8.51573 26.4719C7.90048 26.4719 7.38776 26.1643 7.08014 25.6516C6.77251 25.1389 6.66997 24.4211 6.66997 23.6007C6.56742 22.7804 6.77251 22.0626 7.08014 21.5499Z" fill="#39FF14"/>
<path d="M14.1553 27.4973H15.3858V19.8066H12.6172V20.9346H14.1553V27.4973Z" fill="#39FF14"/>
<path d="M17.9492 20.7295C17.4365 21.4473 17.1289 22.4728 17.1289 23.6007C17.1289 24.8312 17.4365 25.7541 17.9492 26.4719C18.462 27.1897 19.2823 27.5999 20.3077 27.5999C21.3331 27.5999 22.1535 27.1897 22.6662 26.4719C23.1789 25.7541 23.4865 24.7287 23.4865 23.6007C23.4865 22.3702 23.1789 21.4473 22.6662 20.7295C22.1535 20.0117 21.3331 19.6016 20.3077 19.6016C19.2823 19.6016 18.462 20.0117 17.9492 20.7295ZM18.8721 21.5499C19.1798 21.0372 19.6925 20.7295 20.3077 20.7295C20.923 20.7295 21.4357 21.0372 21.7433 21.5499C22.0509 22.0626 22.1535 22.7804 22.1535 23.6007C22.1535 24.4211 22.0509 25.1389 21.7433 25.6516C21.4357 26.1643 20.923 26.4719 20.3077 26.4719C19.6925 26.4719 19.1798 26.1643 18.8721 25.6516C18.5645 25.1389 18.3594 24.4211 18.3594 23.6007C18.3594 22.7804 18.5645 22.0626 18.8721 21.5499Z" fill="#39FF14"/>
<path d="M25.5371 20.7295C25.0244 21.4473 24.7168 22.4728 24.7168 23.6007C24.7168 24.8312 25.0244 25.7541 25.5371 26.4719C26.0499 27.1897 26.8702 27.5999 27.8956 27.5999C28.921 27.5999 29.7414 27.1897 30.2541 26.4719C30.7668 25.7541 31.0744 24.7287 31.0744 23.6007C31.0744 22.3702 30.7668 21.4473 30.2541 20.7295C29.7414 20.0117 28.921 19.6016 27.8956 19.6016C26.8702 19.6016 26.0499 20.0117 25.5371 20.7295ZM26.46 21.5499C26.7676 21.0372 27.2804 20.7295 27.8956 20.7295C28.5109 20.7295 29.0236 21.0372 29.3312 21.5499C29.6388 22.0626 29.7414 22.7804 29.7414 23.6007C29.7414 24.4211 29.6388 25.1389 29.3312 25.6516C29.0236 26.1643 28.6134 26.4719 27.8956 26.4719C27.2804 26.4719 26.7676 26.1643 26.46 25.6516C26.1524 25.1389 26.0499 24.4211 26.0499 23.6007C26.0499 22.7804 26.1524 22.0626 26.46 21.5499Z" fill="#39FF14"/>
<path d="M43.1749 19.6016C42.1495 19.6016 41.3291 20.0117 40.8164 20.7295C40.3037 21.4473 39.9961 22.4728 39.9961 23.6007C39.9961 24.8312 40.3037 25.7541 40.8164 26.4719C41.3291 27.1897 42.1495 27.5999 43.1749 27.5999C44.2003 27.5999 45.0207 27.1897 45.5334 26.4719C46.0461 25.7541 46.3537 24.7287 46.3537 23.6007C46.3537 22.3702 46.0461 21.4473 45.5334 20.7295C45.0207 20.0117 44.2003 19.6016 43.1749 19.6016ZM44.508 25.7541C44.2003 26.2668 43.7902 26.5745 43.0724 26.5745C42.4571 26.5745 41.9444 26.2668 41.6368 25.7541C41.3291 25.2414 41.2266 24.5236 41.2266 23.7033C41.2266 22.8829 41.3291 22.1651 41.6368 21.6524C41.9444 21.1397 42.4571 20.8321 43.0724 20.8321C43.6876 20.8321 44.2003 21.1397 44.508 21.6524C44.8156 22.1651 44.9181 22.8829 44.9181 23.7033C45.0207 24.5236 44.8156 25.2414 44.508 25.7541Z" fill="#39FF14"/>
</svg>
