<svg width="51" height="50" viewBox="0 0 51 50" fill="none" xmlns="http://www.w3.org/2000/svg">
<path d="M48.6895 1.5121C47.9839 0.806452 47.1774 0.403226 46.1694 0.201613C45.9678 0.201613 45.6653 0.100806 45.4637 0.100806H45.0605C44.9597 0.100806 43.5484 0.100806 43.6492 0.100806L25.1008 0H6.55242H5.34274C5.04032 0 4.43548 -9.76387e-08 4.03226 0.100806C3.125 0.302419 2.21774 0.806452 1.5121 1.5121C0.907258 2.11694 0.403226 2.92339 0.100806 3.93145C2.2532e-08 4.33468 0 4.83871 0 5.24194C0.100806 19.5565 0.100806 14.6169 0.100806 15.7258L0.403226 34.2742V36.5927C0.403226 37.2984 0.504032 38.3065 0.907258 39.0121C1.6129 40.5242 3.32661 41.6331 5.04032 41.5323L13.2056 41.2298L12.2984 42.5403C12.0968 42.9436 12.0968 43.3468 12.3992 43.75C12.6008 43.9516 15.4234 46.7742 15.3226 46.6734C15.625 46.9758 16.129 47.0766 16.5323 46.7742C16.8347 46.5726 18.9516 45.1613 18.75 45.2621C19.6573 45.7661 20.5645 46.1694 21.5726 46.4718L22.0766 49.1935C22.1774 49.6976 22.5806 50 23.0847 50H27.2177C27.7218 50 28.125 49.6976 28.2258 49.1935L28.7298 46.5726C29.7379 46.2702 30.746 45.8669 31.6532 45.3629C31.754 45.4637 33.9718 46.9758 33.871 46.875C34.2742 47.0766 34.7782 47.0766 35.0807 46.7742C35.1815 46.6734 38.2057 43.6492 38.004 43.8508C38.3065 43.5484 38.4073 43.0444 38.1048 42.6411L37.1976 41.3306C39.9194 41.4314 42.6411 41.5323 45.3629 41.6331C47.0766 41.6331 48.6895 40.625 49.496 39.1129C49.8992 38.4073 50 37.3992 50 36.6935V34.375L50.3024 15.8266C50.3024 14.7177 50.3024 19.6573 50.4032 5.34274C50.4032 4.93952 50.4032 4.43548 50.3024 3.93145C49.7984 3.02419 49.2944 2.11694 48.6895 1.5121ZM1.81452 5.24194C1.81452 4.83871 1.81452 4.6371 1.91532 4.33468C2.01613 3.72984 2.41936 3.22581 2.82258 2.82258C3.22581 2.41935 3.83065 2.11694 4.43548 2.01613C4.93952 1.91532 5.74597 2.01613 6.55242 1.91532H25.1008H43.6492C43.75 1.91532 45.1613 1.91532 45.0605 1.91532H45.2621C45.3629 1.91532 45.5645 1.91532 45.6653 2.01613C46.2702 2.11694 46.7742 2.41935 47.2782 2.82258C47.6815 3.22581 48.0847 3.72984 48.1855 4.33468C48.2863 4.6371 48.2863 4.93952 48.2863 5.24194V6.45161V10.9879C44.5565 10.5847 40.8266 10.3831 36.996 10.2823C32.9637 10.0806 28.9315 10.0806 24.8992 10.0806C20.8669 10.0806 16.8347 10.1815 12.8024 10.2823C9.07258 10.3831 5.34274 10.5847 1.6129 10.9879V6.45161L1.81452 5.24194ZM48.7903 37.7016C48.7903 38.004 48.6895 38.4073 48.4879 38.7097C47.9839 40.0202 46.5726 40.9274 45.1613 40.9274C42.4395 41.0282 39.7177 41.129 36.996 41.2298L36.4919 40.4234C36.996 39.5161 37.3992 38.4073 37.7016 37.3992L40.3226 36.7944C40.7258 36.6935 40.9274 36.3911 40.9274 35.9879C40.9274 35.8871 40.8266 31.5524 40.8266 31.8548C40.8266 31.5524 40.5242 31.25 40.2218 31.1492L37.3992 30.6452C37.0968 29.5363 36.5927 28.4274 35.9879 27.5202L37.6008 25.1008C37.7016 24.8992 37.7016 24.5968 37.5 24.3952C37.3992 24.2944 34.2742 21.371 34.4758 21.5726C34.375 21.4718 34.0726 21.371 33.9718 21.5726L31.4516 23.3871C30.3427 22.7823 29.1331 22.2782 27.9234 22.0766L27.2177 18.9516C27.2177 18.9516 27.2177 18.8508 27.1169 18.8508L25.1008 18.9516L27.1169 19.0524L27.621 22.2782C27.621 22.379 27.7218 22.379 27.7218 22.4798C29.0323 22.7823 30.2419 23.3871 31.3508 24.0927C31.4516 24.1935 31.5524 24.1935 31.6532 24.0927L34.1734 22.4798L36.4919 24.8992L34.879 27.2177C34.7782 27.4194 34.7782 27.621 34.879 27.8226C35.5847 28.9314 35.9879 30.1411 36.2903 31.4516C36.3911 31.754 36.5927 31.9556 36.7944 31.9556L39.4153 32.4597V35.2823L36.8952 35.7863C36.5927 35.8871 36.2903 36.0887 36.1895 36.3911C35.8871 37.6008 35.3831 38.8105 34.6774 39.9194C34.4758 40.2218 34.4758 40.625 34.6774 40.9274C34.7782 41.129 36.1895 43.1452 36.0887 43.0444L34.1734 44.8589L32.1573 43.4476C31.8548 43.246 31.4516 43.246 31.0484 43.4476C29.9395 44.1532 28.8306 44.5564 27.5202 44.8589C27.1169 44.9597 26.8145 45.2621 26.7137 45.6653C26.7137 45.8669 26.2097 48.2863 26.2097 48.0847H23.7903C23.7903 47.9839 23.2863 45.4637 23.2863 45.6653C23.1855 45.2621 22.8831 44.9597 22.5806 44.8589C21.371 44.5564 20.1613 44.0524 19.1532 43.4476C18.8508 43.246 18.4476 43.246 18.0444 43.4476L16.0282 44.8589L14.2137 43.0444C14.3145 42.9436 15.7258 40.7258 15.625 40.9274C15.8266 40.625 15.8266 40.2218 15.625 39.9194C14.9194 38.9113 14.4153 37.7016 14.2137 36.4919C14.1129 36.1895 13.9113 35.8871 13.5081 35.8871L10.8871 35.3831V32.5605C10.9879 32.5605 13.8105 31.9556 13.6089 31.9556C13.9113 31.8548 14.1129 31.6532 14.1129 31.4516C14.4153 30.2419 14.8186 29.0323 15.5242 27.9234C15.625 27.7218 15.625 27.5202 15.5242 27.3185L13.8105 24.8992L16.129 22.4798C16.2298 22.5806 18.8508 24.1935 18.6492 24.0927C18.75 24.1935 18.8508 24.1935 18.9516 24.0927C20.0605 23.3871 21.2702 22.7823 22.4798 22.4798C22.5806 22.4798 22.5806 22.379 22.5806 22.2782L23.0847 19.0524L25.1008 18.9516L23.0847 18.8508C23.0847 18.8508 22.9839 18.8508 22.9839 18.9516C22.9839 19.1532 22.2782 22.1774 22.2782 22.0766C21.0686 22.379 19.8589 22.7823 18.75 23.3871L16.129 21.5726C15.9274 21.4718 15.7258 21.4718 15.625 21.5726C15.4234 21.7742 12.3992 24.5968 12.6008 24.3952C12.3992 24.5968 12.3992 24.7984 12.5 25.1008C12.6008 25.3024 14.2137 27.7218 14.1129 27.621C13.5081 28.5282 13.1048 29.6371 12.8024 30.6452L9.87903 31.1492C9.57661 31.25 9.27419 31.5524 9.27419 31.8548C9.27419 32.1573 9.17339 36.2903 9.17339 35.9879C9.17339 36.3911 9.47581 36.6935 9.77823 36.7944C10.0806 36.8952 12.7016 37.3992 12.6008 37.3992C12.9032 38.4073 13.3065 39.4153 13.8105 40.3226L13.2056 41.2298C10.4839 41.129 7.7621 41.0282 5.04032 40.9274C3.62903 40.9274 2.31855 40.0202 1.71371 38.7097C1.6129 38.4073 1.5121 38.1048 1.41129 37.7016C1.31048 37.3992 1.41129 36.996 1.41129 36.5927V34.2742L1.71371 15.7258V11.0887C5.44355 11.4919 9.17339 11.6935 13.004 11.7944C17.0363 11.996 21.0686 11.996 25.1008 11.996C29.1331 11.996 33.1653 11.8952 37.1976 11.7944C40.9274 11.6935 44.6573 11.4919 48.4879 11.0887V15.7258L48.7903 34.2742V36.5927V37.7016Z" fill="#39FF14"/>
<path d="M41.3306 6.85485C41.7339 7.15727 42.2379 7.15727 42.6411 6.85485C42.8427 6.65324 43.0444 6.45163 43.3468 6.0484C43.1452 5.64518 42.9435 5.44356 42.6411 5.24195C42.2379 4.93953 41.7339 4.93953 41.3306 5.24195C41.129 5.44356 40.9274 5.64518 40.625 6.0484C40.9274 6.55244 41.129 6.75405 41.3306 6.85485Z" fill="#39FF14"/>
<path d="M34.7779 6.85485C35.1811 7.15727 35.6852 7.15727 36.0884 6.85485C36.29 6.65324 36.4916 6.45163 36.794 6.0484C36.5924 5.64518 36.3908 5.44356 36.0884 5.24195C35.6852 4.93953 35.1811 4.93953 34.7779 5.24195C34.5763 5.44356 34.3747 5.64518 34.0723 6.0484C34.3747 6.55244 34.5763 6.75405 34.7779 6.85485Z" fill="#39FF14"/>
<path d="M22.2784 6.85485C24.093 6.75405 25.9075 6.45163 27.6212 6.0484C25.8067 5.64518 23.9922 5.44356 22.2784 5.24195C18.4478 4.93953 15.0204 4.93953 11.4922 5.24195C9.67764 5.34276 7.86312 5.64518 6.14941 6.0484C7.96393 6.45163 9.77845 6.65324 11.4922 6.85485C15.0204 7.15727 18.4478 7.15727 22.2784 6.85485Z" fill="#39FF14"/>
<path d="M18.8504 33.9716C18.9512 35.5845 19.6568 37.1974 20.8665 38.2055C22.0762 39.2136 23.6891 39.7176 25.1004 39.516C23.6891 39.3144 22.3786 38.6087 21.5721 37.6007C20.7657 36.5926 20.3625 35.2821 20.3625 34.0724C20.4633 31.5523 22.681 29.5361 25.1004 29.5361C27.5197 29.4353 29.7375 31.5523 29.8383 34.0724C29.9391 35.2821 29.5359 36.5926 28.6286 37.6007C27.8221 38.6087 26.5117 39.3144 25.1004 39.516C26.5117 39.7176 28.1246 39.3144 29.3342 38.2055C30.5439 37.1974 31.3504 35.5845 31.3504 33.9716C31.4512 32.3587 30.7455 30.645 29.6367 29.4353C28.427 28.2257 26.8141 27.52 25.1004 27.52C23.3867 27.52 21.673 28.2257 20.5641 29.4353C19.4552 30.645 18.7496 32.3587 18.8504 33.9716Z" fill="#39FF14"/>
</svg>
