<svg width="51" height="50" viewBox="0 0 51 50" fill="none" xmlns="http://www.w3.org/2000/svg">
<path d="M8.08566 17.8853C8.28771 17.9863 8.48976 18.1884 8.6918 18.2894C8.89385 18.3904 9.19692 18.4915 9.49999 18.5925C9.49999 20.5119 10.3082 22.4314 11.6215 23.8457C13.0358 25.159 14.9553 25.9672 16.8747 25.9672C16.9757 26.2703 17.0767 26.4723 17.1778 26.6743C17.2788 26.8764 17.3798 27.0784 17.5819 27.2805C17.4808 27.3815 17.3798 27.4825 17.3798 27.6846C17.1778 28.0887 16.9757 28.5938 16.9757 29.1999C17.5819 29.1999 18.087 28.9979 18.4911 28.7958C18.8952 28.5938 19.2993 28.2907 19.6023 27.9877C20.0064 27.5836 20.0064 26.9774 19.6023 26.5733C19.2993 26.2703 18.9962 25.9672 18.5921 25.7651C19.8044 25.4621 20.9156 24.8559 21.7238 24.0477C21.8248 24.3508 21.9259 24.5529 22.0269 24.7549C22.1279 24.957 22.2289 25.159 22.431 25.361C22.33 25.4621 22.2289 25.5631 22.2289 25.7651C22.0269 26.1692 21.8248 26.6743 21.8248 27.2805C22.431 27.2805 22.9361 27.0784 23.3402 26.8764C23.7443 26.6743 24.1484 26.3713 24.4514 26.0682C24.8555 25.6641 24.8555 25.058 24.4514 24.6539C24.0474 24.2498 23.6433 23.9467 23.2392 23.6436C23.0371 23.5426 22.734 23.4416 22.431 23.3406C22.9361 22.7344 23.3402 22.0273 23.5422 21.3201C23.5422 21.4211 23.5422 21.4211 23.6433 21.5222C23.8453 21.9263 24.1484 22.2293 24.4514 22.5324L24.5525 22.6334C24.9566 23.0375 25.5627 22.9365 25.8658 22.5324C26.1688 22.2293 26.3709 21.9263 26.4719 21.5222C26.5729 21.1181 26.775 20.714 26.674 20.2089C26.1688 20.2089 25.7647 20.3099 25.3607 20.4109C25.2596 20.4109 25.2596 20.5119 25.1586 20.5119C25.0576 20.4109 24.8555 20.3099 24.7545 20.3099C24.5525 20.2089 24.3504 20.1078 24.0474 20.1078C23.9463 20.1078 23.9463 20.1078 23.8453 20.1078C23.9463 19.6027 23.9463 19.0976 23.9463 18.5925C23.9463 18.4915 23.9463 18.3904 23.9463 18.2894C25.1586 17.5822 26.0678 16.37 26.2699 14.8546C26.2699 14.6526 26.2699 14.5515 26.3709 14.3495C26.5729 14.5515 26.775 14.6526 26.977 14.8546C27.2801 15.0567 27.6842 15.0567 27.8862 14.8546L27.9873 14.7536C28.2903 14.5515 28.5934 14.2485 28.7955 13.8444C28.9975 13.4403 29.1995 13.0362 29.1995 12.4301C28.5934 12.329 28.0883 12.4301 27.6842 12.6321C27.4821 12.7331 27.2801 12.8341 27.0781 13.0362C26.977 13.0362 26.775 13.0362 26.674 12.9352C26.4719 12.9352 26.2699 12.9352 26.1688 12.9352C25.9668 12.127 25.4617 11.3188 24.8555 10.7127C24.1484 10.0055 23.1381 9.50038 22.0269 9.29833C22.0269 9.19731 22.0269 8.99526 22.0269 8.89424C22.0269 8.79321 22.0269 8.59117 21.9259 8.49014C22.0269 8.2881 22.2289 8.08605 22.33 7.884C22.532 7.47991 22.633 6.97479 22.532 6.36865C21.9259 6.36865 21.4207 6.5707 21.1177 6.77275C20.7136 6.97479 20.4105 7.27786 20.2085 7.58093L20.1074 7.68196C19.9054 7.98503 19.9054 8.2881 20.1074 8.59117C20.2085 8.79321 20.4105 8.99526 20.6126 9.29833C19.1982 9.50038 17.8849 10.4096 17.2788 11.6219C17.1778 11.6219 17.0767 11.6219 16.9757 11.6219C16.4706 11.6219 15.9655 11.6219 15.4604 11.7229C15.4604 11.6219 15.4604 11.5208 15.4604 11.5208C15.3593 11.3188 15.3593 11.0157 15.2583 10.8137C15.1573 10.7127 15.0563 10.5106 15.0563 10.4096C15.0563 10.3086 15.1573 10.3086 15.1573 10.2075C15.2583 9.80345 15.4604 9.39935 15.3593 8.89424C14.8542 8.89424 14.4501 8.99526 14.046 9.09628C13.6419 9.29833 13.3389 9.50038 13.0358 9.70242C12.6317 10.1065 12.6317 10.7127 13.0358 11.0157L13.1368 11.1168C13.4399 11.4198 13.743 11.7229 14.1471 11.9249C14.1471 11.9249 14.2481 11.9249 14.3491 12.026C13.6419 12.329 12.9348 12.6321 12.3286 13.1372C12.2276 12.8341 12.1266 12.6321 12.0256 12.329C11.7225 11.8239 11.4194 11.4198 11.0153 11.1168C10.6112 10.7127 10.0051 10.8137 9.60101 11.1168C9.29794 11.4198 8.99487 11.8239 8.79283 12.228C8.59078 12.6321 8.38873 13.1372 8.38873 13.7434C8.99487 13.7434 9.49999 13.5413 9.90408 13.3393C10.0051 13.2382 10.1061 13.2382 10.3082 13.1372C10.5102 13.2382 10.7123 13.4403 10.9143 13.5413C11.1164 13.6423 11.4194 13.7434 11.7225 13.8444C10.9143 14.7536 10.3082 15.8648 10.0051 16.9761C9.80306 16.572 9.49999 16.2689 9.19692 15.9659C8.79283 15.5618 8.18669 15.6628 7.78259 15.9659C7.47952 16.2689 7.17645 16.673 6.97441 17.0771C6.77236 17.4812 6.57031 17.9863 6.57031 18.5925C7.17645 18.5925 7.68157 18.3904 8.08566 18.1884C7.88362 18.0874 7.98464 17.9863 8.08566 17.8853ZM12.8338 14.4505C13.844 13.3393 15.3593 12.6321 16.8747 12.4301H17.1778C17.2788 12.5311 17.4808 12.6321 17.6829 12.6321C18.9962 12.6321 20.3095 13.0362 21.6228 13.8444C21.0167 12.9352 20.1074 12.127 18.9962 11.7229C19.6023 11.3188 20.3095 11.0157 20.9156 10.9147C21.9259 10.8137 22.8351 11.2178 23.5422 11.9249C24.2494 12.6321 24.5525 13.5413 24.5525 14.5515C24.5525 15.2587 24.2494 15.9659 23.7443 16.572C23.3402 15.4608 22.532 14.5515 21.6228 13.9454C22.431 15.1577 22.8351 16.572 22.8351 17.8853C22.8351 17.9863 22.8351 18.0874 22.9361 18.1884C22.9361 18.2894 23.0371 18.2894 23.1381 18.3904V18.6935C23.0371 20.3099 22.2289 21.7242 21.1177 22.7344C20.0064 23.7447 18.4911 24.3508 17.0767 24.2498C15.5614 24.2498 14.1471 23.6436 13.1368 22.5324C12.1266 21.5222 11.5205 20.1078 11.4194 18.5925C11.3184 17.0771 11.8235 15.5618 12.8338 14.4505Z" fill="#39FF14"/>
<path d="M48.5962 40.3125C48.1921 39.9084 47.687 39.5043 47.3839 39.2013C46.5758 38.5951 45.7676 37.989 45.0604 37.3829C42.1307 35.1603 39.1 32.9378 35.9683 30.8163C36.0693 30.7153 36.1704 30.5133 36.2714 30.4122C36.5744 29.8061 36.5744 28.9979 36.1704 28.3918C36.0693 28.2908 36.0693 28.2908 35.9683 28.1897L35.7663 28.0887L35.5642 27.8867C35.2611 27.6846 35.0591 27.3815 34.756 27.1795C34.453 26.8764 34.0489 26.5734 33.7458 26.2703C35.1601 23.6437 35.8673 20.714 35.8673 17.6833C35.8673 12.9352 33.8468 8.28813 30.412 4.95436C27.0783 1.62059 22.3302 -0.0968097 17.6831 0.00421365C13.036 0.105237 8.59098 2.1257 5.56028 5.5605C7.27768 4.04515 9.19712 2.83287 11.2176 2.1257C13.2381 1.31752 15.4606 1.01445 17.6831 1.01445C22.0271 1.11547 26.2701 3.03491 29.3008 6.06562C32.2304 9.19734 34.0489 13.3393 33.9478 17.6833C33.9478 21.9263 32.2304 26.1693 29.1997 29.0989C26.2701 32.1296 22.0271 33.847 17.7841 33.847C13.5411 33.9481 9.29814 32.2307 6.16642 29.2C3.0347 26.2703 1.21628 22.0273 1.11525 17.6833C1.01423 15.4608 1.41832 13.3393 2.12549 11.2178C2.93367 9.19734 4.04493 7.17687 5.56028 5.5605C2.22651 8.5912 0.206042 13.0362 0.00399516 17.6833C-0.0970282 22.3304 1.72139 27.0785 5.05516 30.4122C8.28791 33.847 13.036 35.7665 17.7841 35.8675C20.7138 35.8675 23.7445 35.1603 26.3711 33.746C26.7752 34.1501 27.6844 35.2614 27.9875 35.6655L28.1895 35.8675L28.2905 35.9685C28.8967 36.5747 29.8059 36.6757 30.513 36.2716C30.7151 36.1706 30.8161 36.0696 30.9171 35.9685L31.0182 35.8675C33.0386 38.8982 35.1601 41.9289 37.3826 44.8586C38.5949 46.475 38.999 46.9801 39.6052 47.7883C39.8072 47.9903 40.0092 48.2934 40.2113 48.3944C40.6154 48.7985 41.1205 49.1016 41.6256 49.4046C43.7471 50.5159 46.5758 50.0108 48.2932 48.3944C50.0106 46.778 50.6167 43.9494 49.6065 41.8279C49.3034 41.2217 49.0003 40.7166 48.5962 40.3125ZM29.5028 34.5542C29.5028 34.6552 29.5028 34.6552 29.5028 34.5542C29.4018 34.6552 29.5028 34.6552 29.5028 34.5542C29.4018 34.6552 29.3008 34.5542 29.3008 34.5542L29.0987 34.3522C28.7957 34.0491 28.5936 33.847 28.2905 33.645C27.9875 33.4429 27.7854 33.2409 27.4823 32.9378C29.8059 31.5235 31.5233 29.8061 32.9376 27.4826C33.1397 27.7856 33.3417 27.9877 33.6448 28.2908C33.8468 28.5938 34.1499 28.8969 34.3519 29.0989L34.554 29.301L34.655 29.402L34.453 29.6041C34.1499 29.8061 33.9478 30.1092 33.6448 30.4122L32.0284 31.9276L30.513 33.544L29.7049 34.3522L29.5028 34.5542ZM46.8788 46.9801C45.7676 48.0913 43.9492 48.3944 42.4338 47.7883C42.0297 47.5862 41.7266 47.3842 41.4236 47.1821C41.2215 47.0811 41.1205 46.8791 41.0195 46.778C40.3123 45.9698 39.9082 45.4647 38.5949 43.9494C36.1704 41.2217 33.7458 38.4941 31.1192 35.8675L31.9274 35.0593L33.5438 33.544L35.0591 31.9276C35.3622 31.6245 35.5642 31.4225 35.8673 31.1194L35.9683 31.0184C38.5949 33.645 41.3225 36.1706 44.1512 38.6962C44.8584 39.4033 45.6665 40.0095 46.3737 40.7166C46.7778 41.0197 47.0809 41.3228 47.3839 41.6258C47.586 41.9289 47.8891 42.333 47.9901 42.6361C48.3942 44.0504 47.9901 45.8688 46.8788 46.9801Z" fill="#39FF14"/>
</svg>
