<svg width="51" height="50" viewBox="0 0 51 50" fill="none" xmlns="http://www.w3.org/2000/svg">
<path d="M2.63923 45.1C4.93923 48.1 8.73923 50 12.5392 50C16.3392 50 20.1392 48.2 22.4392 45.1C23.1392 44.2 23.6392 43.3 24.0392 42.3C29.0392 42.7 34.0392 42.9 38.9392 43.1C39.0392 43.1 45.2392 43.2 44.9392 43.2H45.9392H47.0392C48.4392 43 49.6392 42 49.9392 40.5C49.9392 40.3 50.0392 40 50.0392 39.8V39.3C50.0392 39.1 50.0392 35.1 50.0392 35.3C50.0392 33 50.0392 30.7 50.0392 28.5V28.4C50.0392 28.3 50.0392 21.5 50.0392 21.6C50.0392 21.5 50.0392 21.4 49.9392 21.4V14.8C49.9392 14.5 49.8392 14.3 49.6392 14.1C49.6392 14 49.7392 7.8 49.7392 7.9C49.7392 7.8 49.7392 7.7 49.6392 7.6C49.6392 7.5 49.7392 3.7 49.7392 3.8V3.4C49.7392 3.2 49.7392 3 49.7392 2.8C49.6392 2.1 49.2392 1.4 48.6392 0.9C48.0392 0.4 47.3392 0.1 46.5392 0.1C46.4392 0.1 41.2392 0 41.6392 0H28.5392C24.1392 0 19.7392 2.23517e-08 15.4392 0.1C15.3392 0.1 10.1392 0.2 10.5392 0.2C9.83923 0.2 9.03923 0.5 8.53923 1C7.83923 1.4 7.43923 2.1 7.33923 2.8V3.3V3.7C7.33923 3.8 7.43923 7.5 7.43923 7.3C7.23923 7.5 7.23923 7.7 7.23923 7.9C7.23923 8.1 7.33923 15.2 7.33923 14.8C7.33923 15.1 7.53923 15.3 7.73923 15.4C7.83923 17.5 7.93923 19.5 8.03923 21.6H8.43923C7.53923 22.7 6.73923 23.9 5.83923 25C3.83923 27.9 1.93923 30.9 0.63923 34.3C0.33923 35.2 0.13923 36.1 0.0392305 37.1C-0.0607695 38.1 0.0392305 39 0.239231 39.9C0.739231 41.8 1.53923 43.6 2.63923 45.1ZM19.2392 16.5C19.1392 16.2 19.0392 15.8 18.8392 15.5C22.0392 15.6 25.2392 15.7 28.5392 15.7C30.8392 15.7 33.1392 15.7 35.4392 15.8C35.3392 16.1 35.2392 16.3 35.1392 16.6C35.0392 17.2 34.9392 17.7 34.9392 18.3C34.9392 18.9 35.0392 19.4 35.1392 20C35.2392 20.3 35.3392 20.6 35.4392 20.9C34.4392 20.9 33.5392 20.9 32.5392 21C29.8392 21.1 27.0392 21.2 24.3392 21.3C22.4392 21.4 20.4392 21.5 18.5392 21.6C19.1392 20.6 19.4392 19.4 19.4392 18.3C19.4392 17.6 19.3392 17 19.2392 16.5ZM36.6392 30.2C36.5392 29.9 36.4392 29.6 36.3392 29.3C42.9392 29.5 45.7392 29.5 47.9392 29.5V34.4C44.0392 34.4 40.2392 34.5 36.3392 34.6C36.5392 34.3 36.6392 33.9 36.7392 33.6C36.8392 33 36.9392 32.5 36.9392 31.9C36.9392 31.3 36.8392 30.8 36.6392 30.2ZM25.1392 22.1C27.6392 22.2 30.1392 22.3 32.5392 22.4C34.4392 22.5 36.2392 22.5 38.1392 22.5C38.0392 22.8 37.9392 23.1 37.8392 23.3C37.4392 24.7 37.5392 26.3 38.1392 27.6C37.0392 27.6 35.9392 27.6 34.8392 27.7C32.4392 27.8 30.1392 27.9 27.7392 28C26.8392 28 25.9392 28.1 25.0392 28.2C26.0392 26.5 26.0392 23.9 25.1392 22.1ZM36.6392 16.5C36.5392 16.2 36.4392 16 36.3392 15.7C36.7392 15.7 41.3392 15.8 47.8392 15.7V20.6C43.9392 20.6 43.2392 20.6 36.2392 20.7C36.3392 20.4 36.4392 20.1 36.5392 19.8C36.6392 19.2 36.7392 18.7 36.7392 18.1C36.9392 17.6 36.8392 17 36.6392 16.5ZM25.5392 9.6C25.4392 9.4 25.4392 9.1 25.3392 8.9H28.5392H38.1392C38.0392 9.2 37.9392 9.4 37.8392 9.7C37.7392 10.3 37.6392 10.8 37.6392 11.4C37.6392 12 37.7392 12.5 37.8392 13.1C37.9392 13.3 38.0392 13.6 38.1392 13.8C34.9392 13.8 31.7392 13.8 28.6392 13.9C27.5392 13.9 26.4392 13.9 25.4392 14C25.5392 13.7 25.6392 13.4 25.7392 13.1C25.8392 12.5 25.9392 12 25.9392 11.4C25.7392 10.7 25.7392 10.2 25.5392 9.6ZM39.1392 13.8C39.2392 13.6 39.3392 13.3 39.3392 13.1C39.6392 11.9 39.6392 10.7 39.3392 9.7C39.2392 9.4 39.1392 9.2 39.0392 8.9L48.0392 8.8L48.1392 13.9C45.2392 13.7 42.1392 13.7 39.1392 13.8ZM41.8392 27.6C40.9392 27.6 39.9392 27.6 39.0392 27.7C39.7392 26.2 39.7392 24.2 39.0392 22.6C44.1392 22.7 42.4392 22.7 47.9392 22.7V27.6C45.9392 27.5 43.9392 27.5 41.8392 27.6ZM13.4392 14.1L8.83923 14L8.93923 8.7C14.0392 8.8 19.1392 8.8 24.2392 8.9C24.1392 9.1 24.0392 9.4 24.0392 9.6C23.6392 11 23.7392 12.6 24.3392 13.9C22.3392 13.9 20.3392 14 18.3392 14C16.9392 14 15.6392 14.1 14.2392 14.1H13.4392ZM24.3392 22.1H24.4392C23.5392 23.8 23.4392 26.5 24.5392 28.2C23.4392 28.3 22.3392 28.3 21.2392 28.4C20.5392 27.3 19.7392 26.1 19.0392 25C18.2392 23.8 17.3392 22.7 16.4392 21.6C19.1392 21.8 21.7392 21.9 24.3392 22.1ZM27.7392 28.9C34.0392 29.2 34.9392 29.2 35.5392 29.2C35.4392 29.5 35.2392 29.8 35.2392 30.2C34.8392 31.6 34.9392 33.3 35.6392 34.7C31.9392 34.8 28.3392 35 24.6392 35.3C24.5392 35 24.4392 34.7 24.3392 34.4C23.5392 32.3 22.5392 30.4 21.4392 28.6C23.4392 28.7 25.6392 28.8 27.7392 28.9ZM24.8392 37.2C24.8392 36.6 24.6392 36 24.5392 35.5C28.2392 35.8 32.6392 36 36.3392 36.2C36.9392 36.2 37.5392 36.2 38.1392 36.3C38.0392 36.6 37.9392 36.9 37.8392 37.2C37.4392 38.6 37.5392 40.2 38.1392 41.5C33.4392 41.6 28.7392 41.8 24.0392 42.2C24.3392 41.5 24.5392 40.8 24.7392 40C24.8392 39 24.9392 38.1 24.8392 37.2ZM47.9392 40.1C47.8392 40.7 47.3392 41.1 46.7392 41.2L39.0392 41.4C39.7392 39.8 39.7392 37.8 39.0392 36.2C42.0392 36.3 44.9392 36.3 47.9392 36.4V39.4V39.9V40.1ZM46.5392 1.9C46.8392 1.9 47.2392 2 47.5392 2.2C47.8392 2.4 48.0392 2.8 48.0392 3.1V3.4V3.8C48.0392 4.2 48.1392 7.3 48.1392 7.1L38.6392 7H36.3392C36.4392 6.7 36.5392 6.5 36.6392 6.2C36.9392 5 36.9392 3.8 36.6392 2.8C36.5392 2.5 36.4392 2.3 36.3392 2H41.5392C41.7392 1.9 46.9392 1.9 46.5392 1.9ZM35.3392 2C35.2392 2.3 35.1392 2.5 35.0392 2.8C34.7392 3.9 34.7392 5.1 35.0392 6.2C35.1392 6.5 35.2392 6.7 35.3392 7C32.3392 7 29.3392 6.9 18.9392 7C19.0392 6.7 19.1392 6.5 19.2392 6.2C19.5392 5 19.5392 3.8 19.2392 2.8C19.1392 2.5 19.0392 2.3 18.9392 2H28.5392H35.3392ZM8.83923 3.8V3.4C8.83923 3.3 8.83923 3.2 8.83923 3.1C8.93923 2.7 9.13923 2.4 9.43923 2.2C9.73923 2 10.0392 1.9 10.4392 1.9C10.5392 1.9 15.6392 2 15.3392 2H17.8392C17.7392 2.3 17.6392 2.5 17.5392 2.8C17.2392 3.9 17.2392 5.1 17.5392 6.2C17.6392 6.5 17.7392 6.7 17.8392 7C14.8392 7 11.7392 7.1 8.73923 7.1V4.7L8.83923 3.8ZM2.23923 34.9C3.23923 31.7 4.93923 28.6 6.73923 25.6C8.53923 22.6 10.4392 19.7 12.4392 16.8C11.2392 18.1 10.1392 19.4 9.03923 20.8C8.83923 21 8.63923 21.3 8.43923 21.5H8.03923C8.13923 19.5 8.23923 17.4 8.33923 15.4L13.3392 15.3H14.2392C15.4392 15.3 16.7392 15.4 17.9392 15.4C17.7392 15.7 17.6392 16.1 17.5392 16.4C17.2392 17.5 17.2392 18.7 17.5392 19.8C17.6392 20.3 17.8392 20.9 18.2392 21.4C17.6392 21.4 17.0392 21.5 16.3392 21.5C16.1392 21.3 15.9392 21 15.7392 20.8C14.6392 19.4 13.5392 18.1 12.3392 16.8C14.3392 19.7 16.3392 22.6 18.0392 25.6C19.8392 28.6 21.5392 31.7 22.5392 34.9C23.5392 38 22.6392 41.5 20.6392 44C19.9392 44.8 19.1392 45.6 18.3392 46.2C18.7392 45.3 18.9392 44.4 18.9392 43.5C18.9392 42.2 18.5392 41.3 18.1392 40.3C16.6392 36.5 14.5392 33.1 12.2392 29.8C13.7392 33.5 15.4392 37.1 16.6392 40.8C16.9392 41.7 17.1392 42.7 17.1392 43.4C17.1392 44.2 16.8392 45.1 16.3392 45.8C15.4392 47.2 13.8392 48.1 12.2392 48.1C10.6392 48.1 8.93923 47.2 8.13923 45.8C7.63923 45.1 7.43923 44.3 7.33923 43.4C7.33923 42.7 7.53923 41.7 7.83923 40.8C9.03923 37.1 10.7392 33.5 12.2392 29.8C9.93923 33.1 7.93923 36.5 6.33923 40.3C5.93923 41.3 5.53923 42.2 5.53923 43.5C5.53923 44.4 5.73923 45.4 6.13923 46.2C5.23923 45.6 4.43923 44.9 3.83923 44C2.13923 41.5 1.23923 37.9 2.23923 34.9Z" fill="#39FF14"/>
</svg>
