<svg width="50" height="50" viewBox="0 0 50 50" fill="none" xmlns="http://www.w3.org/2000/svg">
<path d="M48.7294 32.6856L48.3308 37.6682C48.2312 39.2626 47.9322 40.857 47.2347 42.2521C46.5371 43.6472 45.6403 44.9427 44.4444 45.9392C43.3483 46.8361 42.1525 47.5336 40.7573 48.0319C39.4619 47.5336 38.2661 46.7364 37.1699 45.8396C36.0737 44.8431 35.2765 43.5476 34.6786 42.1525C34.3797 41.4549 34.1804 40.7573 34.0807 39.9601C33.9811 39.5615 33.9811 39.1629 33.9811 38.864C33.9811 38.4654 33.8814 38.1664 33.8814 37.6682L33.7818 33.2835L37.0703 31.988C38.2661 31.4898 39.5615 30.9915 40.7573 30.4933C43.3483 31.1908 45.9392 31.8884 48.7294 32.6856C46.3378 31.5894 43.7469 30.3936 41.0563 29.2975C40.9566 29.2975 40.857 29.1978 40.7573 29.2975C40.6577 29.2975 40.4584 29.3971 40.3587 29.3971C40.558 27.9023 40.7573 26.3079 40.857 24.8132C40.9566 24.1156 41.0563 23.5177 41.156 22.8201C41.2556 21.5247 41.3553 20.1295 41.2556 18.8341V18.7344C41.2556 18.5351 41.156 18.2362 40.857 18.1365C40.1594 17.6383 39.4619 17.14 38.6647 16.7414C37.9671 16.3428 37.1699 16.0438 36.3727 15.7449C36.3727 14.9477 36.4723 14.1505 36.4723 13.3533L36.6716 8.47035L36.7713 5.97907C36.7713 5.58047 36.7713 5.08221 36.8709 4.78326C36.8709 4.48431 36.9706 4.0857 37.1699 3.78675C37.6682 2.49128 38.9636 1.69407 40.2591 1.79372C40.4584 1.79372 40.7573 1.69407 40.857 1.49477H40.9566C42.0528 1.89337 42.9497 2.79023 43.2486 3.78675C43.3483 4.18535 43.4479 4.38465 43.4479 4.68361V5.08221C43.4479 5.28151 43.3483 7.7728 43.3483 7.57349L43.2486 11.5595C43.2486 14.2501 43.3483 16.9407 43.4479 19.6313C43.5476 22.3219 43.8465 25.0125 44.2451 27.703C44.6437 25.0125 44.843 22.3219 45.0423 19.6313C45.2416 16.9407 45.2416 14.2501 45.2416 11.5595L45.142 7.57349C45.142 7.37419 45.0423 4.88291 45.0423 5.08221C45.0423 4.88291 45.0423 4.68361 44.9427 4.4843C44.843 4.0857 44.7434 3.6871 44.6437 3.28849C44.0458 1.79372 42.5511 0.79721 41.0563 0.597907C40.9566 0.597907 40.857 0.597907 40.857 0.597907C40.7573 0.298954 40.4584 0.199302 40.1594 0.199302C35.6751 0.0996513 31.0912 0.0996512 26.5072 0C15.2466 0 13.2536 0.199302 9.46687 0.199302C9.16791 0.199302 8.86896 0.199302 8.57001 0.298954C8.27105 0.298954 7.87245 0.398605 7.57349 0.498256C6.97558 0.697559 6.37768 1.09616 5.87942 1.49477C4.88291 2.39163 4.285 3.6871 4.285 5.08221L4.38465 8.47035C4.38465 10.9616 4.4843 13.3533 4.58396 15.8445C3.48779 16.6418 2.29198 17.439 1.19581 18.2362C1.09616 18.2362 0.996512 18.1365 0.896861 18.1365C0.498256 18.1365 0.199302 18.4355 0.199302 18.8341C0.199302 18.9337 0.0996512 25.0125 0.0996512 24.9128L0 30.9915V40.6577C0 40.7574 0 43.3483 0 43.149C0 43.6472 0.498256 44.1455 0.996512 44.1455H8.47035C10.9616 44.0458 13.4529 44.0458 15.9442 43.9462H17.0404H17.5386C20.3288 43.8465 23.1191 43.7469 25.9093 43.6472C28.3009 43.5476 30.7922 43.4479 33.1839 43.2486C33.8814 44.7434 34.8779 46.1385 36.0737 47.2347C36.7713 47.8326 37.4689 48.3308 38.2661 48.8291C39.0633 49.2277 39.8605 49.6263 40.6577 49.9253C40.857 50.0249 41.0563 50.0249 41.2556 49.9253C42.9497 49.3274 44.4444 48.4305 45.7399 47.135C46.9357 45.9392 47.9322 44.4444 48.5301 42.7504C48.8291 41.9532 49.0284 41.0563 49.128 40.2591C49.2277 39.8605 49.2277 39.3622 49.2277 38.9636C49.2277 38.565 49.2277 38.0668 49.2277 37.6682C49.0284 35.8744 48.8291 34.1804 48.7294 32.6856ZM36.6716 30.4933L32.6856 31.7887C32.3866 31.8884 32.0877 32.1873 32.0877 32.5859L31.988 36.6716C29.8954 34.7783 27.8027 32.8849 25.6104 30.9915C26.9058 30.1943 28.1016 29.3971 29.3971 28.5002C30.6926 27.6034 31.988 26.6069 33.2835 25.6104C34.579 24.6139 35.7748 23.6173 37.0703 22.5212C37.7678 21.9233 38.4654 21.3254 39.1629 20.7275C39.1629 21.3254 39.1629 22.0229 39.2626 22.6208C39.3622 23.3184 39.4619 23.9163 39.5615 24.6139C39.6612 26.2083 39.8605 27.703 40.0598 29.2975C38.9636 29.7957 37.8675 30.1943 36.6716 30.4933ZM5.58047 5.08221C5.68012 4.0857 6.07872 3.18884 6.87593 2.59093C7.17489 2.39163 7.57349 2.09268 8.07175 1.99302C8.27105 1.89337 8.57 1.89337 8.76931 1.89337H9.56652C13.3533 1.89337 15.2466 1.99302 26.5072 1.99302C29.8954 1.99302 33.2835 1.99302 36.572 1.89337C36.1734 2.29198 35.8744 2.79023 35.7748 3.28849C35.5755 3.6871 35.4758 4.18535 35.4758 4.68361V5.97907L35.5755 8.3707C35.8744 13.5526 35.8744 15.2466 36.0737 18.0369C36.1734 17.2397 36.1734 16.5421 36.1734 15.7449C36.572 16.4425 37.0703 17.0404 37.6682 17.6383C37.9671 18.0369 38.3657 18.3358 38.6647 18.7344C37.6682 19.5316 36.6716 20.3288 35.7748 21.1261C34.579 22.2222 33.2835 23.2187 32.0877 24.3149C30.8919 25.4111 29.6961 26.5072 28.5999 27.703C27.5037 28.7992 26.5072 29.7957 25.5107 30.9915C25.4111 30.8919 24.6139 30.1943 23.5177 29.1978L23.0194 28.7992C22.8201 28.5999 22.6208 28.5002 22.4215 28.4006C21.1261 27.6034 19.432 27.6034 18.1365 28.4006C17.6383 28.6996 17.3393 28.8989 17.0404 29.1978L16.0438 29.995C15.6452 30.294 15.3463 30.5929 14.9477 30.7922C12.855 28.7992 10.6627 26.8062 8.47035 24.8132C7.27454 23.717 6.07872 22.6208 4.88291 21.5247L4.78326 21.425C4.98256 17.14 5.18186 12.855 5.28151 8.57001L5.58047 5.08221ZM1.89337 40.3587C1.89337 37.2696 1.89337 34.0807 1.89337 30.9915L1.79372 24.9128L1.69407 20.4285C3.18884 21.6243 6.47733 24.3149 8.07175 25.5107C10.3637 27.3044 12.7554 29.0982 15.0473 30.8919C12.7554 32.5859 10.4634 34.3797 8.27105 36.1734C6.17838 37.8675 4.0857 39.4619 1.99302 41.156L1.89337 40.3587ZM4.88291 21.3254L1.69407 18.5351C2.69058 17.6383 3.58744 16.7414 4.58396 15.8445C4.68361 17.7379 4.78326 19.5316 4.88291 21.3254ZM25.9093 42.6507C23.1191 42.5511 20.3288 42.4514 17.5386 42.3518C17.439 42.3518 17.3393 42.3518 17.3393 42.3518C16.8411 42.3518 16.3428 42.3518 15.9442 42.3518C13.4529 42.2521 10.9616 42.2521 8.47035 42.1525H3.78675C5.68012 40.6577 7.57349 39.0633 9.46687 37.5685C12.0578 35.3762 14.6487 33.2835 17.2397 31.0912L18.2362 30.294C18.5351 29.995 18.9337 29.6961 19.133 29.5964C20.0299 28.9985 21.2257 28.8989 22.1226 29.3971C22.3219 29.4968 22.4215 29.5964 22.6208 29.6961L23.1191 30.0947C25.5107 31.988 29.7957 35.2765 32.1873 37.0703V37.7678C32.1873 38.565 32.1873 39.5615 32.3866 40.3587C32.5859 41.2556 32.7852 42.0528 33.0842 42.9497C33.0842 43.0493 33.1839 43.149 33.1839 43.2486C30.6926 42.85 28.3009 42.7504 25.9093 42.6507Z" fill="#39FF14"/>
<path d="M40.8571 35.4756C42.0529 35.8742 42.4515 36.9704 42.2522 37.668C42.1525 38.4652 41.455 38.8638 40.8571 38.8638C40.2591 38.8638 39.5616 38.3655 39.4619 37.668C39.2626 36.9704 39.6612 35.8742 40.8571 35.4756C40.2591 35.2763 39.5616 35.376 38.9637 35.7746C38.3658 36.1732 37.9672 36.8707 37.8675 37.668C37.7679 38.4652 38.0668 39.2624 38.6647 39.8603C39.0633 40.2589 39.5616 40.5578 40.0598 40.7571C39.7609 41.2554 39.7609 41.8533 40.0598 42.3516C40.2591 42.6505 40.4584 42.8498 40.8571 43.1488C41.2557 42.8498 41.455 42.6505 41.6543 42.3516C41.9532 41.8533 41.9532 41.3551 41.6543 40.7571C42.1525 40.5578 42.7504 40.3585 43.0494 39.8603C43.6473 39.2624 43.8466 38.3655 43.8466 37.668C43.7469 36.8707 43.3483 36.1732 42.7504 35.7746C42.1525 35.376 41.455 35.2763 40.8571 35.4756Z" fill="#39FF14"/>
</svg>
