<svg width="50" height="50" viewBox="0 0 50 50" fill="none" xmlns="http://www.w3.org/2000/svg">
<path d="M21.5096 8.99439C22.398 5.3352 27.602 5.3352 28.4904 8.99439C29.0642 11.3582 31.7724 12.4799 33.8496 11.2143C37.0652 9.25498 40.745 12.9348 38.7857 16.1504C37.5201 18.2276 38.6418 20.9358 41.0056 21.5096C44.6648 22.398 44.6648 27.602 41.0056 28.4904C38.6418 29.0642 37.5201 31.7724 38.7857 33.8496C40.745 37.0652 37.0652 40.745 33.8496 38.7857C31.7724 37.5201 29.0642 38.6418 28.4904 41.0056C27.602 44.6648 22.398 44.6648 21.5096 41.0056C20.9358 38.6418 18.2276 37.5201 16.1504 38.7857C12.9348 40.745 9.25498 37.0652 11.2143 33.8496C12.4799 31.7724 11.3582 29.0642 8.99439 28.4904C5.3352 27.602 5.3352 22.398 8.99439 21.5096C11.3582 20.9358 12.4799 18.2276 11.2143 16.1504C9.25498 12.9348 12.9348 9.25498 16.1504 11.2143C18.2276 12.4799 20.9358 11.3582 21.5096 8.99439Z" stroke="#FE330A" stroke-width="3" stroke-linecap="round" stroke-linejoin="round"/>
<path d="M31.25 25C31.25 28.4518 28.4518 31.25 25 31.25C21.5482 31.25 18.75 28.4518 18.75 25C18.75 21.5482 21.5482 18.75 25 18.75C28.4518 18.75 31.25 21.5482 31.25 25Z" stroke="#FE330A" stroke-width="3" stroke-linecap="round" stroke-linejoin="round"/>
</svg>
