<svg width="24" height="24" viewBox="0 0 24 24" fill="none" xmlns="http://www.w3.org/2000/svg">
<path d="M11.5048 6.6094C8.52353 6.6094 6.11884 9.01408 6.11884 11.9953C6.11884 14.9766 8.52353 17.3813 11.5048 17.3813C14.486 17.3813 16.8907 14.9766 16.8907 11.9953C16.8907 9.01408 14.486 6.6094 11.5048 6.6094ZM11.5048 15.4969C9.57822 15.4969 8.00322 13.9266 8.00322 11.9953C8.00322 10.0641 9.57353 8.49377 11.5048 8.49377C13.436 8.49377 15.0063 10.0641 15.0063 11.9953C15.0063 13.9266 13.4313 15.4969 11.5048 15.4969ZM18.3673 6.38908C18.3673 7.08752 17.8048 7.64533 17.111 7.64533C16.4126 7.64533 15.8548 7.08283 15.8548 6.38908C15.8548 5.69533 16.4173 5.13283 17.111 5.13283C17.8048 5.13283 18.3673 5.69533 18.3673 6.38908ZM21.9345 7.66408C21.8548 5.98127 21.4704 4.49065 20.2376 3.26252C19.0095 2.0344 17.5188 1.65002 15.836 1.56565C14.1016 1.46721 8.90322 1.46721 7.16884 1.56565C5.49072 1.64534 4.0001 2.02971 2.76728 3.25784C1.53447 4.48596 1.15479 5.97658 1.07041 7.6594C0.971973 9.39377 0.971973 14.5922 1.07041 16.3266C1.1501 18.0094 1.53447 19.5 2.76728 20.7281C4.0001 21.9563 5.48603 22.3406 7.16884 22.425C8.90322 22.5235 14.1016 22.5235 15.836 22.425C17.5188 22.3453 19.0095 21.961 20.2376 20.7281C21.4657 19.5 21.8501 18.0094 21.9345 16.3266C22.0329 14.5922 22.0329 9.39846 21.9345 7.66408ZM19.6938 18.1875C19.3282 19.1063 18.6204 19.8141 17.697 20.1844C16.3141 20.7328 13.0329 20.6063 11.5048 20.6063C9.97665 20.6063 6.69072 20.7281 5.31259 20.1844C4.39384 19.8188 3.68603 19.111 3.31572 18.1875C2.76728 16.8047 2.89385 13.5235 2.89385 11.9953C2.89385 10.4672 2.77197 7.18127 3.31572 5.80315C3.68135 4.8844 4.38916 4.17659 5.31259 3.80627C6.69541 3.25784 9.97665 3.3844 11.5048 3.3844C13.0329 3.3844 16.3188 3.26252 17.697 3.80627C18.6157 4.1719 19.3235 4.87971 19.6938 5.80315C20.2423 7.18596 20.1157 10.4672 20.1157 11.9953C20.1157 13.5235 20.2423 16.8094 19.6938 18.1875Z" fill="#EFEAE3"/>
</svg>
