<svg width="24" height="24" viewBox="0 0 24 24" fill="none" xmlns="http://www.w3.org/2000/svg">
<path d="M5.70062 21H1.34688V6.9797H5.70062V21ZM3.52141 5.0672C2.12922 5.0672 1 3.91408 1 2.52189C1 1.85318 1.26565 1.21185 1.7385 0.738991C2.21136 0.266136 2.85269 0.000488281 3.52141 0.000488281C4.19012 0.000488281 4.83145 0.266136 5.30431 0.738991C5.77716 1.21185 6.04281 1.85318 6.04281 2.52189C6.04281 3.91408 4.91313 5.0672 3.52141 5.0672ZM21.9953 21H17.6509V14.175C17.6509 12.5485 17.6181 10.4625 15.3873 10.4625C13.1237 10.4625 12.7769 12.2297 12.7769 14.0578V21H8.42781V6.9797H12.6034V8.8922H12.6644C13.2456 7.79064 14.6655 6.62814 16.7838 6.62814C21.19 6.62814 22 9.5297 22 13.2985V21H21.9953Z" fill="#EFEAE3"/>
</svg>
