<svg width="16" height="15" viewBox="0 0 16 15" fill="none" xmlns="http://www.w3.org/2000/svg">
<path d="M10.4736 4.87891L14.3838 5.45312C14.7119 5.50781 14.9854 5.72656 15.0947 6.05469C15.2041 6.35547 15.1221 6.71094 14.876 6.92969L12.0322 9.74609L12.7158 13.7383C12.7705 14.0664 12.6338 14.3945 12.3604 14.5859C12.0869 14.8047 11.7314 14.8047 11.4307 14.668L7.93066 12.7812L4.40332 14.668C4.12988 14.8047 3.74707 14.8047 3.50098 14.5859C3.22754 14.3945 3.09082 14.0664 3.14551 13.7383L3.80176 9.74609L0.958008 6.92969C0.711914 6.71094 0.629883 6.35547 0.739258 6.05469C0.848633 5.72656 1.12207 5.50781 1.4502 5.45312L5.3877 4.87891L7.1377 1.24219C7.27441 0.941406 7.5752 0.75 7.93066 0.75C8.25879 0.75 8.55957 0.941406 8.69629 1.24219L10.4736 4.87891Z" fill="#FFBA08"/>
</svg>
