<svg width="70" height="70" viewBox="0 0 70 70" fill="none" xmlns="http://www.w3.org/2000/svg">
<g clip-path="url(#clip0_149_3695)">
<path fill-rule="evenodd" clip-rule="evenodd" d="M34.998 64.2989C37.3733 67.1496 39.7484 70 44.499 70C55.4344 70 58.5932 55.4554 58.5974 44.5046C58.5974 39.7544 61.4478 37.3793 64.2985 35.0042C67.1493 32.6289 70 30.2538 70 25.5036C70 14.5649 55.4344 11.4021 44.5028 11.4021C39.7527 11.4021 37.3772 8.55159 35.0021 5.70105C32.6268 2.85052 30.2515 0 25.5011 0C14.5617 0 11.3987 14.5649 11.3987 25.4956C11.3987 30.2458 8.54906 32.6209 5.69936 34.996C2.84969 37.3713 0 39.7463 0 44.4966C0 55.4351 14.5617 58.598 25.497 58.598C30.2475 58.598 32.6228 61.4484 34.998 64.2989ZM35 47.95C42.1522 47.95 47.95 42.1522 47.95 35C47.95 27.8479 42.1522 22.05 35 22.05C27.8479 22.05 22.05 27.8479 22.05 35C22.05 42.1522 27.8479 47.95 35 47.95Z" fill="black"/>
</g>
<defs>
<clipPath id="clip0_149_3695">
<rect width="70" height="70" fill="white"/>
</clipPath>
</defs>
</svg>
