<svg width="70" height="70" viewBox="0 0 70 70" fill="none" xmlns="http://www.w3.org/2000/svg">
<g clip-path="url(#clip0_149_3679)">
<path d="M42.2059 4.11753H62.7941C63.3402 4.11753 63.8638 4.33444 64.2499 4.72055C64.636 5.10665 64.8529 5.63032 64.8529 6.17636V26.7646C64.8529 27.3106 64.636 27.8343 64.2499 28.2204C63.8638 28.6065 63.3402 28.8234 62.7941 28.8234H42.2059C41.6599 28.8234 41.1362 28.6065 40.7501 28.2204C40.364 27.8343 40.1471 27.3106 40.1471 26.7646V6.17636C40.1471 5.63032 40.364 5.10665 40.7501 4.72055C41.1362 4.33444 41.6599 4.11753 42.2059 4.11753ZM4.11765 44.2646H24.7059C25.2519 44.2646 25.7756 44.4815 26.1617 44.8676C26.5478 45.2537 26.7647 45.7774 26.7647 46.3234V66.9117C26.7647 67.4577 26.5478 67.9814 26.1617 68.3675C25.7756 68.7536 25.2519 68.9705 24.7059 68.9705H4.11765C3.57161 68.9705 3.04794 68.7536 2.66184 68.3675C2.27573 67.9814 2.05882 67.4577 2.05882 66.9117V46.3234C2.05882 45.7774 2.27573 45.2537 2.66184 44.8676C3.04794 44.4815 3.57161 44.2646 4.11765 44.2646ZM55.3082 41.1681L69.72 65.874C70.5199 67.2472 69.5306 68.9705 67.9412 68.9705H39.1176C37.5282 68.9705 36.539 67.2472 37.3388 65.874L51.7506 41.1681C52.5453 39.8062 54.5135 39.8062 55.3082 41.1681ZM15.4412 1.0293C23.9688 1.0293 30.8824 7.94283 30.8824 16.4705C30.8824 24.9981 23.9688 31.9117 15.4412 31.9117C6.91353 31.9117 0 24.9981 0 16.4705C0 7.94283 6.91353 1.0293 15.4412 1.0293Z" fill="#FE330A"/>
</g>
<defs>
<clipPath id="clip0_149_3679">
<rect width="70" height="70" fill="white"/>
</clipPath>
</defs>
</svg>
