<svg width="70" height="70" viewBox="0 0 70 70" fill="none" xmlns="http://www.w3.org/2000/svg">
<g clip-path="url(#clip0_149_3687)">
<path fill-rule="evenodd" clip-rule="evenodd" d="M35.1355 32.1486C33.6845 14.1523 18.62 0 0.250001 0C0.250001 18.2848 14.2714 33.2948 32.1486 34.8645C14.1523 36.3153 8.02977e-07 51.38 0 69.7501C18.2848 69.7501 33.2948 55.7287 34.8645 37.8515C36.3153 55.8478 51.38 70 69.7501 70C69.7501 51.7153 55.7288 36.7052 37.8515 35.1354C55.8478 33.6846 70 18.62 70 0.25C51.7153 0.249999 36.7052 14.2714 35.1355 32.1486ZM34.9991 35.0007L35.0007 35.001L35.0011 34.9991C35.0004 34.9991 34.9991 34.9991 34.9991 34.9991V35.0007Z" fill="black"/>
</g>
<defs>
<clipPath id="clip0_149_3687">
<rect width="70" height="70" fill="white"/>
</clipPath>
</defs>
</svg>
