<svg width="71" height="70" viewBox="0 0 71 70" fill="none" xmlns="http://www.w3.org/2000/svg">
<g clip-path="url(#clip0_149_3703)">
<path d="M42.28 0H27.776C25.312 0 23.352 1.96002 23.352 4.42402V18.928C23.352 21.392 25.312 23.352 27.776 23.352H42.28C44.744 23.352 46.704 21.392 46.704 18.928V4.42402C46.704 1.96002 44.688 0 42.28 0Z" fill="black"/>
<path d="M27.776 70H42.28C44.744 70 46.704 68.04 46.704 65.576V51.072C46.704 48.608 44.744 46.648 42.28 46.648H27.776C25.312 46.648 23.352 48.608 23.352 51.072V65.576C23.352 67.984 25.368 70 27.776 70Z" fill="black"/>
<path d="M46.7042 27.7201V42.2241C46.7042 44.6881 48.6642 46.6481 51.1282 46.6481H65.6322C68.0962 46.6481 70.0562 44.6881 70.0562 42.2241V27.7201C70.0562 25.2561 68.0962 23.2961 65.6322 23.2961H51.1282C48.6642 23.2961 46.7042 25.3121 46.7042 27.7201Z" fill="black"/>
<path d="M0 27.7201V42.2241C0 44.6881 1.96002 46.6481 4.42402 46.6481H18.9281C21.3921 46.6481 23.3521 44.6881 23.3521 42.2241V27.7201C23.3521 25.2561 21.3921 23.2961 18.9281 23.2961H4.42402C2.01602 23.2961 0 25.3121 0 27.7201Z" fill="black"/>
</g>
<defs>
<clipPath id="clip0_149_3703">
<rect width="70.0562" height="70" fill="white"/>
</clipPath>
</defs>
</svg>
