<svg width="63" height="63" viewBox="0 0 63 63" fill="none" xmlns="http://www.w3.org/2000/svg">
<g clip-path="url(#clip0_612_4140)">
<path d="M0.000976562 63L4.45369 46.8308C1.70083 42.0848 0.256707 36.7101 0.27175 31.2155C0.27175 13.9983 14.352 0 31.6363 0C40.0303 0 47.9128 3.24881 53.8247 9.14757C59.7516 15.0463 63.0159 22.8914 63.0009 31.2305C63.0009 48.4477 48.9207 62.446 31.6213 62.446H31.6062C26.3562 62.446 21.1965 61.1285 16.6084 58.6433L0.000976562 63ZM17.4057 52.999L18.3534 53.5679C22.3548 55.9334 26.9429 57.1761 31.6213 57.191H31.6363C46.0023 57.191 57.7058 45.5582 57.7058 31.2455C57.7058 24.3137 54.998 17.8011 50.079 12.8904C45.1599 7.9798 38.6012 5.28493 31.6363 5.28493C17.2703 5.26996 5.56687 16.9028 5.56687 31.2155C5.56687 36.1112 6.93578 40.8871 9.55325 45.0192L10.17 46.0073L7.5375 55.5741L17.4057 52.999Z" fill="white"/>
<path d="M1.09888 61.9074L5.40116 46.2921C2.73856 41.7258 1.33956 36.5307 1.33956 31.2308C1.35461 14.6125 14.9384 1.09326 31.6361 1.09326C39.7442 1.09326 47.3409 4.23727 53.0573 9.92643C58.7736 15.6156 61.9176 23.1912 61.9176 31.2458C61.9176 47.8641 48.3187 61.3834 31.6361 61.3834H31.621C26.5516 61.3834 21.5723 60.1108 17.1497 57.7154L1.09888 61.9074Z" fill="url(#paint0_linear_612_4140)"/>
<path d="M0.000976562 63L4.45369 46.8308C1.70083 42.0848 0.256707 36.7101 0.27175 31.2155C0.27175 13.9983 14.352 0 31.6363 0C40.0303 0 47.9128 3.24881 53.8247 9.14757C59.7516 15.0463 63.0159 22.8914 63.0009 31.2305C63.0009 48.4477 48.9207 62.446 31.6213 62.446H31.6062C26.3562 62.446 21.1965 61.1285 16.6084 58.6433L0.000976562 63ZM17.4057 52.999L18.3534 53.5679C22.3548 55.9334 26.9429 57.1761 31.6213 57.191H31.6363C46.0023 57.191 57.7058 45.5582 57.7058 31.2455C57.7058 24.3137 54.998 17.8011 50.079 12.8904C45.1599 7.9798 38.6012 5.28493 31.6363 5.28493C17.2703 5.26996 5.56687 16.9028 5.56687 31.2155C5.56687 36.1112 6.93578 40.8871 9.55325 45.0192L10.17 46.0073L7.5375 55.5741L17.4057 52.999Z" fill="url(#paint1_linear_612_4140)"/>
<path fill-rule="evenodd" clip-rule="evenodd" d="M23.7987 18.1603C23.212 16.8577 22.5952 16.8278 22.0387 16.8128C21.5874 16.7979 21.0609 16.7979 20.5344 16.7979C20.0079 16.7979 19.1654 16.9925 18.4434 17.771C17.7213 18.5495 15.7056 20.4359 15.7056 24.2836C15.7056 28.1163 18.5186 31.8292 18.9097 32.3532C19.3008 32.8772 24.3402 41.0067 32.2979 44.1358C38.9168 46.7408 40.2707 46.2168 41.6998 46.0821C43.1289 45.9473 46.333 44.1956 46.9949 42.3691C47.6418 40.5426 47.6418 38.9856 47.4462 38.6562C47.2506 38.3268 46.7241 38.1322 45.9419 37.7429C45.1597 37.3537 41.3087 35.4673 40.5866 35.1978C39.8646 34.9433 39.3381 34.8085 38.8266 35.5871C38.3001 36.3656 36.7958 38.1172 36.3445 38.6412C35.8932 39.1652 35.4269 39.2251 34.6446 38.8359C33.8624 38.4466 31.3352 37.6232 28.3416 34.9583C26.01 32.8922 24.4305 30.3321 23.9792 29.5535C23.5279 28.775 23.9341 28.3558 24.3252 27.9666C24.6712 27.6222 25.1074 27.0533 25.4985 26.6042C25.8896 26.155 26.025 25.8257 26.2808 25.3016C26.5365 24.7776 26.4162 24.3285 26.2206 23.9392C26.025 23.565 24.4907 19.7023 23.7987 18.1603Z" fill="white"/>
</g>
<defs>
<linearGradient id="paint0_linear_612_4140" x1="31.5066" y1="61.9044" x2="31.5066" y2="1.09113" gradientUnits="userSpaceOnUse">
<stop stop-color="#20B038"/>
<stop offset="1" stop-color="#60D66A"/>
</linearGradient>
<linearGradient id="paint1_linear_612_4140" x1="31.5071" y1="62.994" x2="31.5071" y2="0" gradientUnits="userSpaceOnUse">
<stop stop-color="#F9F9F9"/>
<stop offset="1" stop-color="white"/>
</linearGradient>
<clipPath id="clip0_612_4140">
<rect width="62.9999" height="62.9999" fill="white" transform="translate(0.000976562)"/>
</clipPath>
</defs>
</svg>
