<svg width="49" height="45" viewBox="0 0 49 45" fill="none" xmlns="http://www.w3.org/2000/svg">
<path d="M43.2685 12.1152H41.5377V5.19221C41.5377 3.81515 40.9907 2.49449 40.017 1.52076C39.0432 0.547036 37.7226 0 36.3455 0H5.19222C3.81515 0 2.49449 0.547036 1.52076 1.52076C0.547036 2.49449 1.21938e-07 3.81515 1.21938e-07 5.19221V36.3455C-0.000122275 36.6716 0.0919009 36.9912 0.265466 37.2673C0.439031 37.5434 0.687075 37.7648 0.981014 37.9061C1.27495 38.0474 1.60283 38.1027 1.92685 38.0657C2.25088 38.0288 2.55787 37.901 2.81245 37.6972L10.5177 31.5323C10.8238 31.2875 11.204 31.1539 11.5959 31.1533H13.8459V36.3455C13.8459 37.7226 14.3929 39.0432 15.3667 40.017C16.3404 40.9907 17.6611 41.5377 19.0381 41.5377H38.9901C39.2584 41.5386 39.523 41.6008 39.7637 41.7194L45.9563 44.8175C46.2202 44.9494 46.5135 45.0116 46.8082 44.9982C47.103 44.9849 47.3894 44.8964 47.6404 44.7412C47.8913 44.586 48.0984 44.3692 48.242 44.1115C48.3855 43.8537 48.4608 43.5635 48.4607 43.2685V17.3074C48.4607 15.9303 47.9136 14.6097 46.9399 13.6359C45.9662 12.6622 44.6455 12.1152 43.2685 12.1152ZM8.35601 28.8306L3.46148 32.7438V5.19221C3.46148 4.73319 3.64382 4.29297 3.9684 3.9684C4.29298 3.64382 4.7332 3.46148 5.19222 3.46148H36.3455C36.8045 3.46148 37.2448 3.64382 37.5693 3.9684C37.8939 4.29297 38.0762 4.73319 38.0762 5.19221V25.9611C38.0762 26.4201 37.8939 26.8603 37.5693 27.1849C37.2448 27.5095 36.8045 27.6918 36.3455 27.6918H11.5959C10.4181 27.6929 9.27555 28.0945 8.35601 28.8306ZM44.9992 40.4681L41.311 38.6232C40.59 38.2641 39.7956 38.0769 38.9901 38.0762H19.0381C18.5791 38.0762 18.1389 37.8939 17.8143 37.5693C17.4897 37.2447 17.3074 36.8045 17.3074 36.3455V31.1533H36.3455C37.7226 31.1533 39.0432 30.6063 40.017 29.6325C40.9907 28.6588 41.5377 27.3381 41.5377 25.9611V15.5766H43.2685C43.7275 15.5766 44.1677 15.759 44.4923 16.0836C44.8169 16.4081 44.9992 16.8484 44.9992 17.3074V40.4681Z" fill="black"/>
<path d="M31.1527 13.8464H10.3838C9.92479 13.8464 9.48457 13.664 9.16 13.3394C8.83542 13.0149 8.65308 12.5746 8.65308 12.1156C8.65308 11.6566 8.83542 11.2164 9.16 10.8918C9.48457 10.5672 9.92479 10.3849 10.3838 10.3849H31.1527C31.6117 10.3849 32.0519 10.5672 32.3765 10.8918C32.7011 11.2164 32.8834 11.6566 32.8834 12.1156C32.8834 12.5746 32.7011 13.0149 32.3765 13.3394C32.0519 13.664 31.6117 13.8464 31.1527 13.8464Z" fill="#321CA4"/>
<path d="M31.1527 20.7679H10.3838C9.92479 20.7679 9.48457 20.5855 9.16 20.261C8.83542 19.9364 8.65308 19.4962 8.65308 19.0371C8.65308 18.5781 8.83542 18.1379 9.16 17.8133C9.48457 17.4887 9.92479 17.3064 10.3838 17.3064H31.1527C31.6117 17.3064 32.0519 17.4887 32.3765 17.8133C32.7011 18.1379 32.8834 18.5781 32.8834 19.0371C32.8834 19.4962 32.7011 19.9364 32.3765 20.261C32.0519 20.5855 31.6117 20.7679 31.1527 20.7679Z" fill="#321CA4"/>
</svg>
