<svg width="63" height="63" viewBox="0 0 63 63" fill="none" xmlns="http://www.w3.org/2000/svg">
<path d="M31.5 3.9375C16.2975 3.9375 3.9375 16.2975 3.9375 31.5C3.9375 46.7024 16.2975 59.0625 31.5 59.0625C46.7024 59.0625 59.0624 46.7024 59.0624 31.5C59.0624 16.2975 46.7024 3.9375 31.5 3.9375Z" fill="#FDDD4C"/>
<path d="M19.4293 38.6857C18.8266 37.7733 20.3424 36.3924 19.7259 35.2329C19.3705 34.5641 18.7895 34.1475 18.0919 34.06C17.4223 33.976 16.7325 34.2211 16.2928 34.7001C15.5987 35.4555 15.4908 36.4837 15.625 36.8476C15.6742 36.981 15.7514 37.0174 15.8067 37.0252C16.1847 37.0749 16.3975 36.1046 16.528 35.9025C16.8889 35.3454 17.7084 35.1769 18.2744 35.543C19.3475 36.2371 18.417 37.3589 18.4973 38.3063C18.5754 39.2289 19.1502 39.5996 19.6662 39.6386C20.1682 39.6577 20.5192 39.3787 20.6078 39.1752C20.8204 38.6892 19.9252 39.4365 19.4293 38.6857Z" fill="black"/>
<path d="M41.8511 30.3101C41.5696 30.2711 41.2619 30.272 40.9419 30.3101C40.6989 30.0034 40.4812 29.507 40.3583 28.9275C40.1398 27.8967 40.1626 27.15 40.7725 27.053C41.3825 26.9559 41.6773 27.5796 41.8958 28.6105C42.0424 29.3035 42.0143 29.9402 41.8511 30.3101Z" fill="black"/>
<path d="M35.1709 30.9233C35.195 31.1568 35.2036 31.393 35.1967 31.6105C35.7869 31.6451 36.2049 31.9254 36.3162 32.1032C36.3732 32.1951 36.3504 32.2548 36.332 32.2825C36.2709 32.3776 36.14 32.3629 35.8657 32.3321C35.6262 32.3052 35.3682 32.2816 35.1001 32.2939C34.9542 32.7413 34.5216 32.7832 34.2177 32.4523C34.0054 32.517 33.5883 32.7833 33.4641 32.4939C33.463 32.3503 33.6132 32.1416 33.8851 31.9572C33.6995 31.6031 33.5751 31.224 33.5016 30.8315C33.116 30.9009 32.7692 31.0089 32.4974 31.0935C32.3697 31.1333 31.8647 31.3614 31.8055 31.1043C31.766 30.9268 32.0425 30.634 32.3347 30.4226C32.6612 30.1908 33.0235 30.026 33.399 29.9309C33.3909 29.3718 33.5336 28.9817 33.9398 28.9171C34.4435 28.837 34.7556 29.2248 34.9717 29.9429C35.5804 30.112 36.1883 30.5313 36.4566 30.9649C36.561 31.1329 36.5812 31.2629 36.5137 31.3313C36.3449 31.5062 35.4103 30.9993 35.1709 30.9233Z" fill="black"/>
<path d="M39.1736 33.4363C39.5597 33.6234 39.9845 33.5498 40.1231 33.2717C40.2618 32.9937 40.0608 32.6168 39.6747 32.4297C39.2886 32.2426 38.8638 32.3163 38.7252 32.5943C38.5865 32.8724 38.7875 33.2492 39.1736 33.4363Z" fill="black"/>
<path d="M41.0743 32.0555C41.0814 31.6302 41.342 31.2906 41.6553 31.2958C41.9686 31.3019 42.2169 31.6501 42.2099 32.0746C42.2029 32.499 41.9422 32.8386 41.629 32.8334C41.3157 32.8282 41.0673 32.48 41.0743 32.0555Z" fill="black"/>
<path fill-rule="evenodd" clip-rule="evenodd" d="M49.5701 37.2643C49.5675 37.2554 49.5763 37.286 49.5701 37.2643C50.1993 37.2643 51.1875 37.9781 51.1875 39.7028C51.1875 41.4188 50.4661 43.3626 50.2959 43.794C47.6974 49.9409 41.4956 53.3626 34.1083 53.146C27.2211 52.9442 21.3476 49.3571 18.7772 43.509C17.223 43.5108 15.6206 42.836 14.4025 41.7705C13.1186 40.6478 12.3271 39.1951 12.1726 37.6801C12.0524 36.5002 12.1989 35.4027 12.5737 34.4455L11.1301 33.238C4.52375 27.7321 25.1861 5.06245 31.7941 10.752C31.8275 10.7805 34.0424 12.9254 34.0477 12.9306C37.234 11.5952 45.7712 9.05261 45.7808 14.9714C45.7843 16.9369 44.5153 19.229 42.482 21.3089C44.8319 23.46 44.2122 26.5156 44.5864 29.3191L45.4025 29.5426C46.9585 29.9731 48.0651 30.5474 48.6065 31.1087C49.148 31.6692 49.4165 32.2123 49.5139 32.849C49.6052 33.3627 49.5929 34.2697 48.9067 35.284C49.1538 35.9384 49.3793 36.5908 49.5701 37.2643ZM18.6605 41.9143C18.8913 41.9195 19.1203 41.9048 19.345 41.8666C21.7592 41.4604 22.391 38.872 21.9935 36.3305C21.5441 33.4606 19.5775 32.4488 18.2427 32.3769C17.8715 32.3579 17.5266 32.3908 17.2423 32.4471C14.8597 32.9209 13.5144 34.922 13.7794 37.5207C14.019 39.8725 16.4288 41.8554 18.6605 41.9143ZM13.2643 33.1522C14.0638 32.0062 15.3705 31.1772 16.8536 30.8922C18.7412 25.8905 21.8934 21.282 26.0654 18.1107C29.1614 15.5613 32.5006 13.7327 32.5006 13.7327C32.5006 13.7327 30.7024 11.6745 30.1592 11.5229C26.8183 10.6324 19.603 15.544 14.9957 22.0339C13.1318 24.6595 10.4631 29.3095 11.7391 31.7012C11.8962 31.9975 12.7869 32.7589 13.2643 33.1522ZM40.3504 40.7656C40.3557 40.8193 40.3223 40.8748 40.274 40.8947C40.274 40.8947 37.5896 42.1274 33.3255 40.8254C33.4788 42.1036 35.0288 42.588 36.1118 42.7632C41.3956 43.6606 46.3354 40.6782 47.4473 39.9271C47.6382 39.7982 47.4449 40.1297 47.4104 40.1783C46.0493 41.9117 42.3899 43.9188 37.6291 43.9179C35.5527 43.917 33.4773 43.1955 32.7156 42.0858C31.5335 40.3646 32.6568 37.8516 34.6269 38.1132C37.9571 38.4844 41.3711 38.2055 44.4539 36.793C47.1419 35.5612 48.1572 34.2064 48.0045 33.1089C47.7677 31.4079 45.2459 31.142 43.9712 30.7285C43.4166 30.5474 43.1428 30.4027 43.0805 29.3728C43.0533 28.9232 42.9743 27.3544 42.9454 26.7056C42.8945 25.57 42.7558 24.0168 41.78 23.3758C41.5255 23.2086 41.2429 23.128 40.9454 23.1124C40.7082 23.1011 40.5675 23.1337 40.4919 23.1512C40.4749 23.1551 40.4612 23.1583 40.4504 23.1601C39.9235 23.2485 39.6006 23.5151 39.2198 23.8295C39.1979 23.8476 39.1758 23.8658 39.1534 23.8842C37.9362 24.8856 36.9086 25.0493 35.7651 25.0008C35.409 24.9859 35.042 24.9504 34.6548 24.9128C34.2987 24.8783 33.9255 24.8422 33.5282 24.8189L33.0429 24.7912C31.1281 24.6942 29.0745 26.3262 28.7332 28.6443C28.3518 31.2317 29.798 32.8165 30.7386 33.8472C30.971 34.1019 31.1725 34.3228 31.308 34.5165C31.3948 34.6335 31.4958 34.7981 31.4958 34.9549C31.4958 35.142 31.3729 35.2901 31.2527 35.4166C29.2992 37.3994 28.6744 40.5499 29.4107 43.1755C29.5028 43.503 29.6195 43.8166 29.7573 44.1163C31.4843 48.1001 36.8428 49.9556 42.0766 48.2682C45.7447 47.0854 48.9856 44.2275 49.6456 40.2849C49.8027 39.2575 49.5719 38.8608 49.2577 38.6693C48.9251 38.4675 48.5267 38.5377 48.5267 38.5377C48.5267 38.5377 48.345 37.3102 47.8308 36.1945C46.3047 37.383 44.3407 38.218 42.8453 38.6416C40.4494 39.3201 37.8615 39.5842 35.3857 39.2643C34.3815 39.1345 33.7068 39.0474 33.4176 39.9748C36.7199 41.1684 40.2153 40.6574 40.2153 40.6574C40.2828 40.6504 40.3434 40.6989 40.3504 40.7656ZM30.8227 17.6014C29.0166 18.5135 27 20.1377 25.3624 22.0062C25.3045 22.0729 25.3905 22.1647 25.4616 22.1136C26.8762 21.0975 28.8157 20.1533 31.3562 19.5417C34.2022 18.8565 36.9419 19.1441 38.6154 19.5227C38.6997 19.5417 38.7524 19.3988 38.6778 19.3572C37.572 18.7448 35.8748 18.329 34.6708 18.3203C34.612 18.3195 34.5786 18.2519 34.6137 18.2051C34.8217 17.9288 35.1069 17.6559 35.3676 17.4584C35.4255 17.4134 35.3904 17.3207 35.3167 17.325C33.8189 17.4158 30.3979 18.9757 30.4102 18.9189C30.498 18.5031 30.7744 17.9539 30.9174 17.6975C30.9517 17.6369 30.885 17.5702 30.8227 17.6014Z" fill="black"/>
</svg>
