<svg width="66" height="63" viewBox="0 0 66 63" fill="none" xmlns="http://www.w3.org/2000/svg">
<path fill-rule="evenodd" clip-rule="evenodd" d="M33.42 0C25.709 0.0040008 18.2509 2.73509 12.3792 7.70491C6.50746 12.6747 2.60508 19.5592 1.36982 27.1273C0.13456 34.6954 1.64695 42.4537 5.63659 49.0148C9.62623 55.5759 15.8329 60.5121 23.1469 62.9406C24.7605 63.2401 25.3683 62.2401 25.3683 61.3897C25.3683 60.5394 25.336 58.074 25.3252 55.3786C16.2892 57.3306 14.3798 51.5654 14.3798 51.5654C12.9061 47.8218 10.7761 46.8378 10.7761 46.8378C7.82866 44.8377 10.9967 44.8751 10.9967 44.8751C14.2615 45.1051 15.9773 48.2069 15.9773 48.2069C18.8709 53.1431 23.5772 51.7152 25.4274 50.8809C25.7179 48.7898 26.5623 47.3673 27.4928 46.5597C20.2747 45.7468 12.6909 42.9765 12.6909 30.6013C12.6462 27.3918 13.8439 24.2881 16.0364 21.9322C15.7029 21.1193 14.5895 17.8356 16.3537 13.3754C16.3537 13.3754 19.0807 12.509 25.2876 16.6858C30.6115 15.2381 36.2286 15.2381 41.5525 16.6858C47.754 12.509 50.4755 13.3754 50.4755 13.3754C52.2451 17.8249 51.1317 21.1086 50.7983 21.9322C52.9977 24.2884 54.198 27.3976 54.1491 30.612C54.1491 43.014 46.5492 45.7468 39.3203 46.5437C40.4821 47.5491 41.5202 49.5118 41.5202 52.5281C41.5202 56.8493 41.4825 60.3255 41.4825 61.3897C41.4825 62.2508 42.0688 63.2562 43.7146 62.9406C51.0295 60.5118 57.2368 55.5748 61.2264 49.0125C65.2159 42.4503 66.7275 34.6909 65.4909 27.1221C64.2542 19.5532 60.3499 12.6687 54.4762 7.69972C48.6026 2.73075 41.1427 0.00146489 33.4308 0L33.42 0Z" fill="#121212"/>
</svg>
