<svg width="59" height="59" viewBox="0 0 59 59" fill="none" xmlns="http://www.w3.org/2000/svg">
<rect x="0.0996094" y="0.100586" width="58.7999" height="58.7999" rx="29.4" fill="#0078D7"/>
<path d="M29.576 40.867C23.3019 40.867 20.4353 37.6709 20.4353 35.3267C20.4345 34.7674 20.664 34.2325 21.0699 33.8478C21.4758 33.4631 22.0222 33.2625 22.5806 33.2933C25.2668 33.2933 24.5642 37.3227 29.576 37.3227C32.1379 37.3227 33.6427 35.7806 33.6427 34.3318C33.6427 33.4612 33.1452 32.4663 31.4539 32.0683L25.8575 30.6568C21.3618 29.5127 20.5783 27.013 20.5783 24.6936C20.5783 19.8808 24.9808 18.1397 29.1718 18.1397C33.0333 18.1397 37.6223 20.2725 37.6223 23.1577C37.6223 24.4014 36.5838 25.0667 35.3775 25.0667C33.083 25.0667 33.4685 21.8457 28.8547 21.8457C26.5602 21.8457 25.3539 22.9215 25.3539 24.4262C25.3539 25.931 27.1385 26.4409 28.7054 26.7829L32.8343 27.7156C37.3611 28.7354 38.5674 31.3906 38.5674 33.9338C38.5674 37.845 35.5392 40.867 29.5698 40.867H29.576ZM46.8997 32.5907C47.079 31.564 47.1684 30.5238 47.1671 29.4816C47.1891 24.2466 44.8889 19.2713 40.8866 15.8969C36.8843 12.5224 31.5918 11.0961 26.4358 12.0024C24.8511 11.09 23.0537 10.6117 21.225 10.6157C17.4715 10.6387 14.0117 12.6504 12.1349 15.9011C10.2582 19.1518 10.246 23.154 12.103 26.4161C11.0668 32.1096 12.8819 37.9499 16.9628 42.0531C21.0437 46.1563 26.874 48.0032 32.5731 46.9981C34.156 47.9098 35.9511 48.388 37.7777 48.3848C41.5293 48.3606 44.9871 46.3498 46.8634 43.101C48.7398 39.8522 48.7536 35.8523 46.8997 32.5907Z" fill="white"/>
</svg>
