<svg width="53" height="53" viewBox="0 0 53 53" fill="none" xmlns="http://www.w3.org/2000/svg">
<g clip-path="url(#clip0_612_4106)">
<path fill-rule="evenodd" clip-rule="evenodd" d="M26.5002 0.247559C11.7149 0.247559 0.250244 11.0822 0.250244 25.71C0.250244 33.3619 3.38712 39.9769 8.49274 44.5444C8.9193 44.925 9.1818 45.4632 9.19492 46.0406L9.3393 50.7131C9.38524 52.2028 10.9209 53.1741 12.2859 52.5703L17.4965 50.2735C17.9362 50.0766 18.4349 50.0438 18.9009 50.1685C21.2962 50.8247 23.8424 51.1791 26.5002 51.1791C41.2855 51.1791 52.7502 40.3444 52.7502 25.7166C52.7502 11.0888 41.2855 0.247559 26.5002 0.247559Z" fill="url(#paint0_radial_612_4106)"/>
<path fill-rule="evenodd" clip-rule="evenodd" d="M10.7373 33.1582L18.4482 20.9257C19.6754 18.9766 22.3004 18.4976 24.1444 19.8757L30.2804 24.476C30.8447 24.896 31.6191 24.896 32.1769 24.4695L40.4588 18.1826C41.5613 17.3426 43.005 18.6682 42.27 19.8429L34.5525 32.0688C33.3253 34.0179 30.7004 34.4969 28.8563 33.1188L22.7204 28.5185C22.156 28.0985 21.3816 28.0985 20.8238 28.5251L12.542 34.812C11.4395 35.6519 9.99573 34.3329 10.7373 33.1582Z" fill="white"/>
</g>
<defs>
<radialGradient id="paint0_radial_612_4106" cx="0" cy="0" r="1" gradientUnits="userSpaceOnUse" gradientTransform="translate(10.3565 52.4704) scale(57.2039)">
<stop stop-color="#0099FF"/>
<stop offset="0.6098" stop-color="#A033FF"/>
<stop offset="0.9348" stop-color="#FF5280"/>
<stop offset="1" stop-color="#FF7061"/>
</radialGradient>
<clipPath id="clip0_612_4106">
<rect width="52.5" height="52.5" fill="white" transform="translate(0.250244 0.25)"/>
</clipPath>
</defs>
</svg>
