<svg width="63" height="63" viewBox="0 0 63 63" fill="none" xmlns="http://www.w3.org/2000/svg">
<rect x="-0.000976562" width="62.9999" height="62.9999" rx="31.5" fill="#FFFC00"/>
<path d="M47.9267 41.5633C41.7756 38.5857 40.7953 33.9884 40.7516 33.6474C40.6988 33.2344 40.639 32.9096 41.0946 32.4895C41.5341 32.0835 43.4836 30.8769 44.0245 30.4993C44.9186 29.8742 45.3124 29.25 45.0221 28.4828C44.8192 27.952 44.3249 27.7521 43.8043 27.7521C43.6401 27.7526 43.4764 27.771 43.3162 27.8069C42.3338 28.02 41.3798 28.5122 40.8277 28.6452C40.7614 28.6623 40.6933 28.6715 40.6248 28.6726C40.3304 28.6726 40.2188 28.5417 40.2472 28.1875C40.3162 27.1138 40.4624 25.0181 40.2929 23.0604C40.0605 20.367 39.1918 19.0325 38.1617 17.8522C37.6634 17.2798 35.3495 14.8208 30.8842 14.8208C26.4188 14.8208 24.108 17.2798 23.6127 17.8451C22.5796 19.0254 21.7119 20.3599 21.4815 23.0533C21.312 25.011 21.4642 27.1056 21.5272 28.1804C21.5475 28.5173 21.444 28.6655 21.1496 28.6655C21.0811 28.6643 21.013 28.6551 20.9467 28.6381C20.3956 28.5051 19.4416 28.0129 18.4593 27.7998C18.299 27.7639 18.1353 27.7455 17.9711 27.745C17.4485 27.745 16.9563 27.948 16.7533 28.4757C16.463 29.2429 16.8548 29.8671 17.7519 30.4922C18.2928 30.8698 20.2424 32.0754 20.6818 32.4824C21.1365 32.9025 21.0776 33.2273 21.0248 33.6403C20.9812 33.9864 19.9998 38.5837 13.8498 41.5562C13.4895 41.7308 12.8765 42.1002 13.9573 42.6969C15.6542 43.6346 16.7837 43.5342 17.6616 44.0994C18.4065 44.5795 17.966 45.6146 18.508 45.9881C19.1737 46.4478 21.1415 45.9556 23.6837 46.7949C25.8149 47.4972 27.1099 49.4812 30.8892 49.4812C34.6686 49.4812 36.0011 47.488 38.0947 46.7949C40.6319 45.9556 42.6037 46.4478 43.2705 45.9881C43.8114 45.6146 43.372 44.5795 44.1169 44.0994C44.9947 43.5342 46.1233 43.6346 47.8211 42.6969C48.8999 42.1073 48.2869 41.7379 47.9267 41.5633Z" fill="white"/>
<path d="M50.6028 41.213C50.3268 40.462 49.8011 40.0601 49.2023 39.7272C49.0897 39.6612 48.9862 39.6085 48.8979 39.5679C48.7193 39.4755 48.5366 39.3862 48.3549 39.2918C46.4886 38.3023 45.0313 37.0541 44.0205 35.5744C43.7334 35.1579 43.4845 34.7163 43.2766 34.2551C43.1903 34.0085 43.1944 33.8684 43.2563 33.7406C43.3177 33.6421 43.3989 33.5574 43.4948 33.4919C43.8155 33.2798 44.1463 33.0647 44.3706 32.9196C44.7705 32.6608 45.0871 32.4558 45.2911 32.3106C46.0573 31.7748 46.5931 31.2055 46.928 30.5691C47.1617 30.1295 47.298 29.6447 47.3276 29.1477C47.3572 28.6508 47.2794 28.1532 47.0996 27.689C46.5921 26.3534 45.3307 25.5243 43.8023 25.5243C43.4799 25.524 43.1584 25.558 42.8432 25.6258C42.759 25.644 42.6748 25.6633 42.5926 25.6846C42.6068 24.7713 42.5865 23.8072 42.5053 22.8583C42.2171 19.5224 41.049 17.7738 39.8312 16.3794C39.0513 15.5056 38.1327 14.7664 37.1124 14.1914C35.2643 13.1359 33.1686 12.6001 30.8842 12.6001C28.5997 12.6001 26.5142 13.1359 24.6641 14.1914C23.6413 14.7665 22.7208 15.5073 21.9403 16.3835C20.7224 17.7779 19.5543 19.5295 19.2661 22.8623C19.1849 23.8112 19.1646 24.7804 19.1778 25.6887C19.0956 25.6674 19.0124 25.6481 18.9282 25.6298C18.613 25.5621 18.2915 25.528 17.9691 25.5284C16.4397 25.5284 15.1762 26.3575 14.6708 27.693C14.4902 28.1575 14.4116 28.6554 14.4405 29.1529C14.4694 29.6504 14.6051 30.1358 14.8383 30.5762C15.1742 31.2126 15.7101 31.7819 16.4763 32.3177C16.6792 32.4598 16.9969 32.6648 17.3967 32.9267C17.6129 33.0667 17.9285 33.2717 18.2381 33.4767C18.3464 33.5467 18.4384 33.6391 18.508 33.7477C18.573 33.8806 18.575 34.0237 18.4786 34.2876C18.2735 34.7391 18.0287 35.1714 17.7469 35.5795C16.7584 37.0257 15.3437 38.2516 13.5373 39.233C12.5802 39.7404 11.5857 40.0794 11.1655 41.2211C10.8489 42.0827 11.0559 43.063 11.8607 43.8891C12.1561 44.1975 12.4986 44.4568 12.8756 44.6574C13.6598 45.0884 14.4938 45.422 15.3589 45.6509C15.5374 45.697 15.7069 45.7728 15.8603 45.8752C16.1535 46.132 16.1119 46.5186 16.5027 47.0849C16.6988 47.3776 16.948 47.6309 17.2374 47.8319C18.0574 48.3981 18.9789 48.4337 19.9552 48.4712C20.8371 48.5047 21.8367 48.5433 22.9785 48.9198C23.4514 49.0761 23.9426 49.3785 24.5119 49.7317C25.8789 50.572 27.7503 51.7218 30.8822 51.7218C34.014 51.7218 35.8986 50.5659 37.2757 49.7225C37.841 49.3754 38.3292 49.0761 38.7889 48.9238C39.9306 48.5463 40.9302 48.5088 41.8122 48.4753C42.7884 48.4377 43.7099 48.4022 44.5299 47.8359C44.8727 47.5969 45.1583 47.285 45.3662 46.9225C45.6473 46.4445 45.6402 46.1107 45.9041 45.8772C46.0479 45.7797 46.2071 45.707 46.375 45.6621C47.2519 45.4325 48.0972 45.0957 48.8918 44.6594C49.2922 44.4446 49.6527 44.1624 49.9574 43.8252L49.9675 43.813C50.7226 43.0052 50.9124 42.0533 50.6028 41.213ZM47.8191 42.7089C46.1212 43.6466 44.9927 43.5461 44.1149 44.1114C43.3689 44.5914 43.8104 45.6266 43.2685 46C42.6027 46.4598 40.6349 45.9676 38.0927 46.8068C35.996 47.5 34.6584 49.4932 30.8872 49.4932C27.116 49.4932 25.8099 47.504 23.6787 46.8018C21.1416 45.9625 19.1697 46.4547 18.5029 45.995C17.962 45.6215 18.4015 44.5863 17.6566 44.1063C16.7777 43.541 15.6492 43.6415 13.9523 42.7089C12.8715 42.1121 13.4845 41.7427 13.8448 41.5682C19.9948 38.5906 20.9761 33.9933 21.0198 33.6523C21.0726 33.2392 21.1314 32.9145 20.6768 32.4943C20.2373 32.0884 18.2878 30.8817 17.7469 30.5042C16.8518 29.879 16.458 29.2549 16.7483 28.4877C16.9512 27.9569 17.4465 27.757 17.9661 27.757C18.1303 27.7575 18.294 27.7759 18.4542 27.8118C19.4366 28.0249 20.3906 28.5171 20.9416 28.65C21.008 28.6671 21.0761 28.6763 21.1446 28.6775C21.4389 28.6775 21.5424 28.5293 21.5221 28.1924C21.4592 27.1176 21.307 25.023 21.4765 23.0653C21.7089 20.3719 22.5766 19.0373 23.6077 17.8571C24.1029 17.2897 26.43 14.8308 30.8801 14.8308C35.3303 14.8308 37.6634 17.2796 38.1587 17.8449C39.1908 19.0252 40.0595 20.3597 40.2899 23.0531C40.4594 25.0108 40.3132 27.1065 40.2442 28.1802C40.2209 28.5344 40.3274 28.6653 40.6217 28.6653C40.6902 28.6642 40.7584 28.655 40.8247 28.6379C41.3768 28.5049 42.3307 28.0127 43.3131 27.7996C43.4734 27.7637 43.6371 27.7453 43.8013 27.7448C44.3239 27.7448 44.8161 27.9478 45.0191 28.4755C45.3093 29.2427 44.9176 29.8669 44.0215 30.492C43.4806 30.8695 41.531 32.0752 41.0916 32.4821C40.6359 32.9023 40.6958 33.2271 40.7486 33.6401C40.7922 33.9862 41.7726 38.5835 47.9236 41.556C48.2869 41.7376 48.8999 42.107 47.8191 42.7089Z" fill="black"/>
</svg>
