<svg width="63" height="63" viewBox="0 0 63 63" fill="none" xmlns="http://www.w3.org/2000/svg">
<rect width="62.9999" height="62.9999" rx="31.5" fill="#5865F2"/>
<path d="M42.9865 21.1742C46.6987 26.6708 48.532 32.8708 47.8467 40.0085C47.8438 40.0387 47.8282 40.0664 47.8035 40.0846C44.9924 42.1635 42.2687 43.4251 39.5833 44.2617C39.5624 44.2681 39.54 44.2678 39.5193 44.2607C39.4986 44.2537 39.4806 44.2403 39.4678 44.2224C38.8474 43.3531 38.2837 42.4365 37.7898 41.4741C37.7615 41.4174 37.7874 41.3491 37.8457 41.3268C38.741 40.9871 39.5923 40.5799 40.4112 40.0979C40.4757 40.0598 40.4798 39.9667 40.4202 39.922C40.2464 39.7921 40.0743 39.6555 39.9095 39.519C39.8787 39.4938 39.8372 39.4888 39.8023 39.5058C34.4861 41.9781 28.6624 41.9781 23.2833 39.5058C23.2484 39.49 23.2069 39.4954 23.1769 39.5202C23.0125 39.6568 22.84 39.7921 22.6678 39.922C22.6083 39.9667 22.6132 40.0598 22.6781 40.0979C23.497 40.5708 24.3483 40.9871 25.2423 41.3285C25.3003 41.3508 25.3278 41.4174 25.299 41.4741C24.8159 42.4378 24.2521 43.3543 23.6202 44.2237C23.5927 44.2588 23.5475 44.275 23.5048 44.2617C20.8321 43.4251 18.1084 42.1635 15.2973 40.0846C15.2738 40.0664 15.257 40.0375 15.2545 40.0073C14.6818 33.8333 15.8491 27.5819 20.1102 21.1729C20.1204 21.156 20.1361 21.1427 20.1541 21.1349C22.2508 20.1658 24.497 19.4528 26.8447 19.0457C26.8874 19.0391 26.9302 19.0589 26.9524 19.097C27.2424 19.6142 27.574 20.2775 27.7983 20.8196C30.273 20.4389 32.7863 20.4389 35.3127 20.8196C35.5371 20.2891 35.8571 19.6142 36.146 19.097C36.1562 19.0781 36.1722 19.063 36.1915 19.0538C36.2109 19.0446 36.2326 19.0417 36.2536 19.0457C38.6025 19.4541 40.8488 20.167 42.9438 21.1349C42.9623 21.1427 42.9775 21.156 42.9865 21.1742ZM29.0564 32.913C29.0823 31.0879 27.761 29.5776 26.1023 29.5776C24.4572 29.5776 23.1485 31.0746 23.1485 32.913C23.1485 34.751 24.483 36.2481 26.1023 36.2481C27.7478 36.2481 29.0564 34.751 29.0564 32.913ZM39.9781 32.913C40.004 31.0879 38.6827 29.5776 37.0244 29.5776C35.3789 29.5776 34.0703 31.0746 34.0703 32.913C34.0703 34.751 35.4048 36.2481 37.0244 36.2481C38.6827 36.2481 39.9781 34.751 39.9781 32.913Z" fill="white"/>
</svg>
