<svg width="36" height="45" viewBox="0 0 36 45" fill="none" xmlns="http://www.w3.org/2000/svg">
<path d="M8.03599 44.9998C7.85886 44.9993 7.68299 44.97 7.51528 44.913C7.15807 44.7907 6.85535 44.5464 6.66022 44.2232C6.46509 43.8999 6.39001 43.5183 6.44814 43.1452L9.37634 24.107H1.60745C1.35594 24.1071 1.10793 24.0481 0.883365 23.9348C0.658803 23.8216 0.46396 23.6572 0.314508 23.4549C0.165056 23.2526 0.0651687 23.0181 0.0228802 22.7701C-0.0194084 22.5222 -0.00291695 22.2678 0.0710271 22.0274L6.49957 1.13464C6.60064 0.806059 6.80441 0.518545 7.08095 0.314323C7.35748 0.110101 7.69222 -6.60855e-05 8.03599 8.04039e-07H19.2859C19.5459 -0.000259191 19.802 0.0625389 20.0324 0.183009C20.2627 0.303479 20.4604 0.478026 20.6085 0.691678C20.7565 0.90533 20.8506 1.15171 20.8825 1.40969C20.9145 1.66766 20.8833 1.92954 20.7918 2.17285L16.7836 12.8571H24.1074C24.387 12.8572 24.6619 12.9304 24.9046 13.0693C25.1474 13.2082 25.3497 13.408 25.4916 13.649C25.6334 13.8901 25.71 14.164 25.7135 14.4437C25.7171 14.7233 25.6476 14.9991 25.512 15.2437L9.44063 44.1721C9.30159 44.4228 9.09804 44.6318 8.85106 44.7773C8.60407 44.9228 8.32266 44.9997 8.03599 44.9998ZM3.78351 20.8928H11.2503C11.4819 20.8929 11.7108 20.943 11.9213 21.0398C12.1317 21.1366 12.3188 21.2778 12.4696 21.4536C12.6204 21.6295 12.7314 21.8359 12.795 22.0586C12.8586 22.2814 12.8733 22.5152 12.8381 22.7442L10.9883 34.7688L21.3752 16.0714H14.4645C14.2046 16.0716 13.9485 16.0088 13.7181 15.8884C13.4878 15.7679 13.2901 15.5933 13.142 15.3797C12.9939 15.166 12.8999 14.9197 12.868 14.6617C12.836 14.4037 12.8671 14.1418 12.9587 13.8985L16.9668 3.21427H9.22206L3.78351 20.8928Z" fill="black"/>
<path d="M35.2185 42.7401L28.7899 28.2759C28.6638 27.9916 28.4578 27.7501 28.1971 27.5806C27.9364 27.411 27.632 27.3208 27.321 27.3208C27.01 27.3208 26.7057 27.411 26.445 27.5806C26.1842 27.7501 25.9783 27.9916 25.8521 28.2759L19.4236 42.7401C19.2505 43.1297 19.2393 43.5721 19.3924 43.9699C19.5455 44.3678 19.8504 44.6885 20.24 44.8615C20.6296 45.0346 21.0719 45.0458 21.4698 44.8927C21.8676 44.7396 22.1883 44.4347 22.3614 44.0451L23.3659 41.7855H31.2762L32.2806 44.0451C32.4069 44.3293 32.6129 44.5707 32.8736 44.7402C33.1343 44.9096 33.4386 44.9998 33.7496 44.9998C33.9712 44.9991 34.1901 44.952 34.3924 44.8615C34.5862 44.7768 34.7613 44.6546 34.9078 44.502C35.0542 44.3494 35.1691 44.1694 35.2458 43.9723C35.3226 43.7752 35.3597 43.5649 35.355 43.3535C35.3503 43.1421 35.3039 42.9336 35.2185 42.7401ZM24.7946 38.5712L27.321 32.8852L29.8474 38.5712H24.7946Z" fill="#321CA4"/>
</svg>
