<svg width="63" height="63" viewBox="0 0 63 63" fill="none" xmlns="http://www.w3.org/2000/svg">
<path d="M52.1725 29.5299C54.8906 29.5299 57.094 27.3265 57.094 24.6084C57.094 21.8904 54.8904 19.687 52.1723 19.687C49.454 19.687 47.2502 21.8906 47.2502 24.6089V29.5299L52.1725 29.5299ZM38.3909 29.5299C41.1091 29.5299 43.3127 27.3263 43.3127 24.608V10.8276C43.3127 8.10936 41.1091 5.90576 38.3909 5.90576C35.6726 5.90576 33.469 8.10936 33.469 10.8276V24.608C33.469 27.3263 35.6726 29.5299 38.3909 29.5299Z" fill="#2EB67D"/>
<path d="M10.828 33.4691C8.10992 33.4691 5.90651 35.6725 5.90651 38.3906C5.90651 41.1086 8.11013 43.312 10.8282 43.312C13.5464 43.312 15.7503 41.1084 15.7503 38.3902V33.4691H10.828ZM24.6096 33.4691C21.8913 33.4691 19.6878 35.6727 19.6878 38.391V52.1714C19.6878 54.8897 21.8913 57.0933 24.6096 57.0933C27.3279 57.0933 29.5315 54.8897 29.5315 52.1714L29.5315 38.391C29.5315 35.6727 27.3279 33.4691 24.6096 33.4691Z" fill="#E01E5A"/>
<path d="M33.4694 52.1718C33.4694 54.8898 35.6728 57.0932 38.3908 57.0932C41.1089 57.0932 43.3123 54.8896 43.3123 52.1716C43.3123 49.4533 41.1087 47.2495 38.3904 47.2495L33.4694 47.2495L33.4694 52.1718ZM33.4694 38.3901C33.4694 41.1084 35.673 43.312 38.3912 43.312L52.1716 43.312C54.8899 43.312 57.0935 41.1084 57.0935 38.3901C57.0935 35.6719 54.8899 33.4683 52.1716 33.4683L38.3912 33.4683C35.673 33.4683 33.4694 35.6719 33.4694 38.3901Z" fill="#ECB22E"/>
<path d="M29.5309 10.8272C29.5309 8.10919 27.3275 5.90579 24.6094 5.90579C21.8914 5.90579 19.688 8.1094 19.688 10.8274C19.688 13.5457 21.8916 15.7495 24.6099 15.7495L29.5309 15.7495L29.5309 10.8272ZM29.5309 24.6089C29.5309 21.8906 27.3273 19.687 24.609 19.687L10.8286 19.687C8.11033 19.687 5.90674 21.8906 5.90674 24.6089C5.90674 27.3272 8.11033 29.5308 10.8286 29.5308L24.609 29.5308C27.3273 29.5308 29.5309 27.3272 29.5309 24.6089Z" fill="#36C5F0"/>
</svg>
