<svg width="45" height="45" viewBox="0 0 45 45" fill="none" xmlns="http://www.w3.org/2000/svg">
<path d="M1.60715 12.8572C1.1809 12.8572 0.772121 12.6878 0.470722 12.3864C0.169324 12.085 0 11.6763 0 11.25V4.82144C0 3.54271 0.507972 2.31636 1.41217 1.41217C2.31636 0.507972 3.54271 0 4.82144 0H11.25C11.6763 0 12.085 0.169324 12.3864 0.470722C12.6878 0.77212 12.8572 1.1809 12.8572 1.60715C12.8572 2.03339 12.6878 2.44217 12.3864 2.74357C12.085 3.04497 11.6763 3.21429 11.25 3.21429H4.82144C4.3952 3.21429 3.98641 3.38362 3.68501 3.68501C3.38362 3.98641 3.21429 4.3952 3.21429 4.82144V11.25C3.21429 11.6763 3.04497 12.085 2.74357 12.3864C2.44217 12.6878 2.03339 12.8572 1.60715 12.8572Z" fill="black"/>
<path d="M11.25 45H4.82144C3.54271 45 2.31636 44.492 1.41217 43.5878C0.507972 42.6836 0 41.4573 0 40.1786V33.75C0 33.3237 0.169324 32.9149 0.470722 32.6135C0.772121 32.3121 1.1809 32.1428 1.60715 32.1428C2.03339 32.1428 2.44217 32.3121 2.74357 32.6135C3.04497 32.9149 3.21429 33.3237 3.21429 33.75V40.1786C3.21429 40.6048 3.38362 41.0136 3.68501 41.315C3.98641 41.6164 4.3952 41.7857 4.82144 41.7857H11.25C11.6763 41.7857 12.085 41.955 12.3864 42.2564C12.6878 42.5578 12.8572 42.9666 12.8572 43.3928C12.8572 43.8191 12.6878 44.2279 12.3864 44.5293C12.085 44.8307 11.6763 45 11.25 45Z" fill="black"/>
<path d="M43.3926 12.8572C42.9664 12.8572 42.5576 12.6878 42.2562 12.3864C41.9548 12.085 41.7855 11.6763 41.7855 11.25V4.82144C41.7855 4.3952 41.6161 3.98641 41.3147 3.68501C41.0133 3.38362 40.6046 3.21429 40.1783 3.21429H33.7497C33.3235 3.21429 32.9147 3.04497 32.6133 2.74357C32.3119 2.44217 32.1426 2.03339 32.1426 1.60715C32.1426 1.1809 32.3119 0.77212 32.6133 0.470722C32.9147 0.169324 33.3235 0 33.7497 0H40.1783C41.457 0 42.6834 0.507972 43.5876 1.41217C44.4918 2.31636 44.9997 3.54271 44.9997 4.82144V11.25C44.9997 11.6763 44.8304 12.085 44.529 12.3864C44.2276 12.6878 43.8188 12.8572 43.3926 12.8572Z" fill="black"/>
<path d="M40.1783 45.0002H33.7497C33.3235 45.0002 32.9147 44.8309 32.6133 44.5295C32.3119 44.2281 32.1426 43.8193 32.1426 43.3931C32.1426 42.9668 32.3119 42.5581 32.6133 42.2567C32.9147 41.9553 33.3235 41.7859 33.7497 41.7859H40.1783C40.6046 41.7859 41.0133 41.6166 41.3147 41.3152C41.6161 41.0138 41.7855 40.605 41.7855 40.1788V33.7502C41.7855 33.324 41.9548 32.9152 42.2562 32.6138C42.5576 32.3124 42.9664 32.1431 43.3926 32.1431C43.8188 32.1431 44.2276 32.3124 44.529 32.6138C44.8304 32.9152 44.9997 33.324 44.9997 33.7502V40.1788C44.9997 41.4575 44.4918 42.6839 43.5876 43.5881C42.6834 44.4923 41.457 45.0002 40.1783 45.0002Z" fill="black"/>
<path d="M27.7896 23.6817C29.0186 22.6069 29.8911 21.1832 30.2909 19.6002C30.6906 18.0172 30.5987 16.3499 30.0273 14.8204C29.4559 13.291 28.4322 11.9719 27.0924 11.0387C25.7526 10.1056 24.1604 9.60265 22.5277 9.59697C20.895 9.59129 19.2993 10.0831 17.9531 11.0069C16.6068 11.9307 15.5739 13.2427 14.9919 14.7681C14.4099 16.2936 14.3063 17.9601 14.6951 19.5459C15.0838 21.1317 15.9464 22.5614 17.1679 23.6447C15.1879 24.5282 13.4622 25.8959 12.15 27.6219C10.8377 29.3479 9.98119 31.3765 9.65934 33.5206C9.59839 33.9426 9.70756 34.3715 9.96285 34.713C10.2181 35.0545 10.5986 35.2806 11.0206 35.3415C11.4426 35.4025 11.8715 35.2933 12.213 35.038C12.5545 34.7827 12.7805 34.4023 12.8415 33.9803C13.1855 31.6815 14.3434 29.5826 16.1044 28.0656C17.8655 26.5485 20.1126 25.7141 22.437 25.7141C24.7613 25.7141 27.0085 26.5485 28.7695 28.0656C30.5305 29.5826 31.6884 31.6815 32.0324 33.9803C32.0586 34.1926 32.1268 34.3975 32.2332 34.5831C32.3396 34.7686 32.4819 34.9311 32.6519 35.061C32.8218 35.1908 33.016 35.2854 33.223 35.3393C33.43 35.3931 33.6457 35.4051 33.8574 35.3745C34.0691 35.3439 34.2725 35.2713 34.4558 35.1611C34.6391 35.0508 34.7986 34.9051 34.9248 34.7325C35.0511 34.5598 35.1416 34.3637 35.1911 34.1556C35.2406 33.9475 35.248 33.7316 35.213 33.5206C34.8944 31.3916 34.0483 29.3761 32.7517 27.6577C31.4552 25.9392 29.7493 24.5724 27.7896 23.6817ZM22.5004 12.8575C23.454 12.8575 24.3862 13.1403 25.1791 13.6701C25.972 14.1999 26.5899 14.9529 26.9549 15.8339C27.3198 16.7149 27.4153 17.6843 27.2292 18.6196C27.0432 19.5549 26.584 20.414 25.9097 21.0883C25.2354 21.7626 24.3763 22.2217 23.4411 22.4078C22.5058 22.5938 21.5364 22.4983 20.6554 22.1334C19.7744 21.7685 19.0213 21.1505 18.4916 20.3576C17.9618 19.5648 17.679 18.6326 17.679 17.679C17.679 16.4003 18.187 15.1739 19.0912 14.2697C19.9954 13.3655 21.2217 12.8575 22.5004 12.8575Z" fill="#321CA4"/>
</svg>
