<svg width="41" height="60" viewBox="0 0 41 60" fill="none" xmlns="http://www.w3.org/2000/svg">
<path d="M11.2191 38.5549C9.66402 43.0441 8.03059 47.5912 6.45109 51.9887C5.86033 53.6329 5.27042 55.2774 4.68134 56.9219C4.34785 57.8554 4.08357 58.9129 5.17929 59.6514C5.48074 59.8703 5.84191 59.9917 6.21473 60C6.90056 60 7.49653 59.5467 8.01172 59.0529C8.99184 58.1164 10.0044 57.1791 10.9845 56.2733C13.1709 54.2507 15.4328 52.1595 17.4743 49.929C21.0145 46.0609 24.4832 42.0122 27.8379 38.0967C29.1726 36.5391 30.5101 34.9837 31.8494 33.4309C34.0142 30.9303 36.2049 28.3798 38.3235 25.9129L39.6587 24.3586C40.3108 23.5996 40.8499 22.746 40.381 21.6454C39.9238 20.5729 38.9736 20.4029 38.0159 20.3788C36.035 20.3298 34.0547 20.2767 32.0743 20.2196C30.7047 20.1812 29.335 20.1436 27.9656 20.1068C27.6002 20.0971 27.2383 20.0996 26.8204 20.1021L26.5095 20.1039C26.5472 19.9942 26.5829 19.8885 26.6175 19.7871C26.7507 19.3947 26.8661 19.0558 26.9945 18.727C27.5952 17.182 28.1968 15.6373 28.8 14.0929C29.9811 11.0629 31.204 7.93041 32.3917 4.84354C32.7332 3.95254 33.0067 3.03707 33.2095 2.10499C33.2688 1.89752 33.2839 1.67998 33.2535 1.46639C33.2231 1.25281 33.1484 1.04794 33.0338 0.864961C32.9112 0.704682 32.7554 0.572295 32.5774 0.476651C32.3993 0.381008 32.2027 0.324281 32.0009 0.310268C31.7559 0.277964 31.5111 0.239906 31.2663 0.201843C30.62 0.0844314 29.9658 0.0169446 29.3091 0H29.2878C26.2936 0.0100164 23.2498 0.0440806 20.3067 0.0766346C18.5706 0.095833 16.8346 0.113616 15.0985 0.129976C12.741 0.149759 12.4183 0.384163 11.6435 2.6374C11.5651 2.86603 11.4785 3.10891 11.3782 3.33854L9.44548 7.76216C7.4204 12.4029 5.32639 17.2011 3.24929 21.9124C2.84568 22.8292 2.40473 23.7502 1.97825 24.6407C1.49498 25.65 0.995315 26.694 0.545716 27.7405C-0.0700002 29.1711 -0.160483 30.1031 0.252926 30.7635C0.666336 31.4238 1.53824 31.7481 3.08659 31.8258L4.98149 31.9194C6.19583 31.979 7.41005 32.0404 8.62407 32.1035C9.64063 32.1578 10.6565 32.2192 11.7313 32.2838L12.9629 32.3574C12.7945 32.9739 12.6362 33.5869 12.4804 34.1822C12.0843 35.7032 11.7097 37.1398 11.2191 38.5549ZM22.9482 20.5456C22.7785 21.3943 22.851 21.9807 23.1744 22.3917C23.4979 22.8026 24.0408 23.0047 24.8892 23.0398C27.2712 23.1377 29.6931 23.1967 32.0356 23.2541C32.9645 23.2766 33.8933 23.3001 34.8222 23.3245H34.8827C35.0124 23.3246 35.1416 23.3342 35.2695 23.3532C32.7287 26.2831 30.2352 29.3203 27.8213 32.2617C22.5661 38.6656 17.139 45.2786 10.9735 51.0579C11.2168 50.3247 11.462 49.592 11.7093 48.86C12.5135 46.4693 13.343 43.9975 14.0585 41.5341C14.6629 39.4514 15.1443 37.2996 15.61 35.2186C15.791 34.4105 15.9718 33.6027 16.1595 32.7969C16.2426 32.4012 16.2834 31.9978 16.281 31.5934C16.3061 29.6151 15.6475 28.9367 13.6692 28.9074C11.5212 28.8756 9.33767 28.8658 7.22589 28.8573C6.36237 28.8536 5.49896 28.8493 4.63545 28.8446C4.46079 28.8446 4.28655 28.8433 4.09355 28.8433H3.3239C3.89639 27.623 4.46976 26.4088 5.04358 25.2005C8.64792 17.5862 12.0536 10.3917 14.4825 2.73078H29.9567C29.9359 2.79714 29.9163 2.85975 29.8979 2.91885C29.815 3.18604 29.7552 3.37911 29.6793 3.56316C29.0108 5.18969 28.3411 6.81564 27.6703 8.44101C26.3886 11.5514 25.0619 14.7675 23.7703 17.9365C23.4134 18.7781 23.138 19.6518 22.9482 20.5456Z" fill="#F6F6EB"/>
</svg>
