<svg width="68" height="60" viewBox="0 0 68 60" fill="none" xmlns="http://www.w3.org/2000/svg">
<path d="M56.6221 19.6163C55.6054 19.6324 55.0069 19.3624 54.6432 18.6576C54.2971 17.9876 54.5234 17.3864 54.8912 16.8321C55.0842 16.5396 55.3357 16.2904 55.63 16.1C57.1925 15.1188 58.7495 14.1231 60.3624 13.2303C60.8965 12.9697 61.4941 12.8681 62.0845 12.9375C62.358 12.9687 62.6201 13.0641 62.8496 13.2159C63.0792 13.3678 63.2695 13.5718 63.4054 13.8113C63.541 14.0508 63.618 14.319 63.6303 14.5939C63.6426 14.8689 63.5896 15.1428 63.4757 15.3934C63.1881 16.0265 62.7325 16.5685 62.158 16.9603C60.7138 17.8365 59.1852 18.577 57.6698 19.3305C57.3337 19.4686 56.9817 19.5647 56.6221 19.6163Z" fill="black"/>
<path d="M9.22627 21.7313C8.90416 21.5498 8.17447 21.2945 7.66085 20.8089C6.83394 20.0107 6.0834 19.137 5.41898 18.1993C5.06472 17.7221 4.86165 17.1497 4.83594 16.556C4.84794 15.4725 5.98908 14.6909 7.14369 15.0772C8.10179 15.3731 8.99195 15.8554 9.76296 16.4966C10.534 17.1377 11.1706 17.925 11.6362 18.8131C12.4149 20.3334 11.3419 21.7805 9.22627 21.7313Z" fill="black"/>
<path d="M50.643 5.69361e-05C52.1785 -0.00931347 53.1027 1.13942 52.799 2.34645C52.715 2.73765 52.5349 3.10169 52.2746 3.40559C51.2345 4.47967 50.1853 5.5532 49.0535 6.52743C48.5042 7.00005 47.8105 7.35317 46.9762 7.07205C46.0049 6.74468 45.5361 5.94585 45.8515 4.97865C45.9326 4.68895 46.0693 4.41771 46.2535 4.17982C47.2304 3.04746 48.1943 1.89841 49.2479 0.840143C49.681 0.405005 50.3279 0.183072 50.643 5.69361e-05Z" fill="black"/>
<path d="M23.3635 5.66416C23.2757 6.55142 22.9047 7.20825 22.1044 7.59449C21.3559 7.95525 20.7082 7.70749 20.1881 7.19271C19.0586 6.12208 18.2095 4.79013 17.7158 3.31421C17.3864 2.27087 17.6962 1.39888 18.452 0.930069C19.2558 0.432266 20.1296 0.502201 20.893 1.31948C22.0575 2.56808 23.0344 3.95347 23.3635 5.66416Z" fill="black"/>
<path d="M67.7639 28.7632C67.7411 28.0095 67.6076 27.2633 67.3669 26.5486C67.0178 25.6007 66.3888 24.9568 65.6005 24.7404C64.8032 24.5205 63.9244 24.7583 63.127 25.4051C62.5253 25.8927 61.9355 26.4253 61.3669 26.9398C61.1326 27.1503 60.8984 27.3641 60.6641 27.5717L57.5408 30.3488C54.9921 32.6146 52.4416 34.8805 49.889 37.1461C49.706 37.2993 49.513 37.4401 49.3113 37.5672C49.2299 37.6214 49.1458 37.6755 49.0615 37.7359C49.0044 37.7748 48.9394 37.8003 48.8711 37.8102C48.8029 37.8205 48.7332 37.8152 48.6673 37.7944C48.6009 37.7739 48.5405 37.7382 48.4902 37.6902C48.4401 37.6422 48.4017 37.583 48.3783 37.5177C47.8096 35.9619 47.2562 34.4138 46.7025 32.8717C45.4726 29.4457 44.1991 25.9003 42.8665 22.4701C41.0097 17.6971 39.0179 13.0669 37.1464 8.77318C36.658 7.7355 35.9944 6.78991 35.1845 5.9779C34.4562 5.21656 33.6589 5.15945 32.6026 5.80045C31.7423 6.31787 31.3751 7.2145 30.9868 8.16238L30.9508 8.25023C30.5628 9.18902 30.1789 10.1298 29.7986 11.0727C28.634 13.9313 27.4304 16.8921 26.1517 19.7626C24.219 24.1043 22.1285 28.4645 20.1517 32.559C19.4808 33.949 18.7496 35.2849 17.9763 36.6993C17.6249 37.3435 17.2662 37.9991 16.9081 38.6732C16.8792 38.7282 16.8393 38.7766 16.7909 38.8152C16.7424 38.8539 16.6865 38.8823 16.6267 38.8984C16.5668 38.9145 16.5042 38.918 16.4429 38.9089C16.3816 38.8995 16.3228 38.8779 16.2703 38.8448L15.0003 38.0471C14.1939 37.5446 13.4598 37.0875 12.7286 36.624C11.6996 35.9742 10.6705 35.3233 9.64131 34.6711C7.6255 33.3924 5.60755 32.1186 3.58744 30.8498C3.1345 30.5183 2.59764 30.3201 2.03781 30.2782C1.62548 30.2914 1.23199 30.4539 0.930633 30.7356C0.0427863 31.4635 -0.206987 32.3634 0.169293 33.4881C0.409996 34.2132 0.735032 34.9356 1.04777 35.6366L1.063 35.6659C1.3157 36.2348 1.59242 36.8094 1.85713 37.366C2.35669 38.4161 2.87734 39.5036 3.29549 40.6164C3.56331 41.3203 3.83215 42.0255 4.10193 42.7318C5.82609 47.248 7.60735 51.918 8.77191 56.7262C9.16605 58.3572 10.1078 59.2389 11.6513 59.4222C12.0756 59.4734 12.5005 59.5276 12.9212 59.5818C14.6526 59.8424 16.4 59.9824 18.1508 59.9999C22.1286 59.949 26.1725 59.8014 30.0844 59.66C31.8053 59.5967 33.5253 59.5367 35.2445 59.4796C38.0671 59.3891 40.8896 59.3027 43.7119 59.2207L46.9526 59.1215C47.2143 59.1153 47.4761 59.1062 47.7408 59.1004C48.0266 59.0942 48.3157 59.0852 48.6044 59.0764C49.6064 59.0471 50.6085 59.007 51.6102 58.971C54.07 58.8808 56.6082 58.7874 59.1115 58.7724C60.267 58.7663 61.0825 58.3625 61.6814 57.5057C62.094 56.8764 62.4076 56.1874 62.6111 55.4626L62.9361 54.3973C64.2629 50.0524 65.6322 45.5569 66.4383 41.0076C66.5168 40.5651 66.5979 40.1259 66.6761 39.6834C67.3186 36.1291 67.9865 32.446 67.7639 28.7632ZM57.735 53.554C57.7063 53.6333 57.6556 53.7027 57.5891 53.7546C57.5227 53.8064 57.4427 53.8383 57.359 53.8468C56.9979 53.886 56.6249 53.9311 56.2486 53.9762C55.3883 54.0817 54.4946 54.19 53.5918 54.229C52.1113 54.2922 50.607 54.3373 49.1534 54.3754C47.2158 54.4339 45.2117 54.4896 43.2468 54.5979C40.9572 54.7273 38.6281 54.9168 36.3775 55.1004C35.0838 55.2058 33.7898 55.3112 32.4961 55.4043C30.6065 55.5429 29.0296 55.6541 27.3868 55.7054C23.3397 55.8348 19.2264 55.9396 15.2486 56.0424L13.2779 56.0934H13.2325C13.0495 56.0896 12.8672 56.0682 12.6882 56.0301C12.6278 56.0181 12.5678 56.0061 12.5104 56.0008C12.425 55.9891 12.3448 55.9531 12.2792 55.8972C12.2136 55.841 12.1654 55.7675 12.1403 55.6849L6.91394 38.6843C6.88618 38.5968 6.88606 38.5025 6.91361 38.4146C6.94114 38.3268 6.99502 38.2498 7.0679 38.1935C7.14079 38.1373 7.22919 38.1048 7.32114 38.1007C7.41306 38.0963 7.50407 38.1203 7.58187 38.1695L8.25888 38.588C8.7072 38.8647 9.11949 39.1174 9.52564 39.3763C10.1033 39.7435 10.681 40.1086 11.2589 40.4714C12.6911 41.3771 14.1745 42.3101 15.6038 43.2787C16.5183 43.8987 17.3189 44.1364 17.9778 43.9859C18.622 43.8395 19.1903 43.33 19.711 42.4304L20.1795 41.6269C21.0641 40.1104 21.9789 38.5397 22.74 36.9417C25.2583 31.634 27.783 26.218 30.2234 20.9793C31.1863 18.9122 32.1511 16.845 33.118 14.7779C33.1991 14.6022 33.2835 14.4317 33.4038 14.1942L33.6354 13.7278C33.6726 13.6495 33.7324 13.584 33.8067 13.5395C33.8814 13.4951 33.9672 13.4737 34.0539 13.478C34.1403 13.4801 34.2243 13.5071 34.2958 13.5556C34.3672 13.6042 34.4231 13.6722 34.4568 13.7518C34.812 14.5884 35.1701 15.3977 35.5221 16.1922C36.2864 17.9198 37.0085 19.5501 37.6255 21.2441C39.0366 25.1287 40.4176 29.0917 41.7567 32.9277C42.5239 35.1244 43.2943 37.3221 44.0676 39.5203C44.4498 40.6413 44.8957 41.7394 45.4035 42.8091C45.5704 43.1994 45.8266 43.5449 46.152 43.8178C46.477 44.0908 46.8618 44.2831 47.2752 44.3798C48.0846 44.5394 48.9391 44.2594 49.6852 43.5944C50.8196 42.5836 51.9482 41.5634 53.0764 40.5464C54.0664 39.6527 55.0562 38.761 56.0462 37.8714C57.3069 36.7464 58.5716 35.6237 59.8404 34.5039L61.5388 33.0023C61.6014 32.947 61.6779 32.9098 61.7601 32.8952C61.8424 32.8802 61.9273 32.8884 62.0052 32.9183L62.318 33.0416C62.4137 33.0791 62.4943 33.1479 62.5455 33.2372C62.597 33.3265 62.6164 33.4304 62.6008 33.5321C61.6767 39.4299 60.3768 46.4225 57.735 53.554Z" fill="black"/>
</svg>
