<svg width="61" height="60" viewBox="0 0 61 60" fill="none" xmlns="http://www.w3.org/2000/svg">
<path d="M57.3104 24.1489C56.648 24.1611 55.9939 24.1575 55.4685 24.1543L55.1196 24.1526L51.8039 17.9448C52.0001 17.7152 52.2058 17.4804 52.4158 17.24C53.0311 16.5365 53.6671 15.8087 54.256 15.0236C54.9975 14.0356 54.9361 12.8918 54.0962 12.0391L54.0428 11.9847C51.9432 9.852 49.7718 7.64677 47.5383 5.5797C46.9038 4.99245 46.3439 4.73152 45.784 4.75561C45.1922 4.78191 44.6063 5.13731 43.9411 5.87328C43.4597 6.40547 42.9945 6.93791 42.5018 7.50181C42.3409 7.68651 42.1777 7.87297 42.0128 8.06126C40.5431 6.57236 38.702 5.68322 36.1046 5.20486C36.1046 5.05442 36.1075 4.90548 36.1095 4.75799C36.1156 4.28209 36.1215 3.83279 36.0987 3.37361C35.9662 0.725922 35.2179 0.000737693 32.6163 0H32.5952C30.9665 0 29.3131 0.0575056 27.7143 0.113306C26.9537 0.139608 26.1953 0.166354 25.4357 0.187002C24.2677 0.218958 23.5512 0.862756 23.4182 1.99965C23.3314 2.74348 23.2745 3.48644 23.2242 4.14203C23.2082 4.35171 23.193 4.55195 23.1778 4.73926L17.3044 8.06475C17.1839 7.91726 17.061 7.76508 16.9364 7.60997C16.5308 7.10777 16.1115 6.58809 15.6575 6.08417C15.0086 5.36343 14.3817 4.99919 13.7406 4.97116C13.1159 4.94781 12.4863 5.23342 11.8167 5.85779C9.90636 7.63922 8.08359 9.41939 6.39945 11.149C5.02078 12.5641 4.955 13.7546 6.16511 15.3982C6.59645 15.9832 7.07662 16.5363 7.46232 16.9807C7.5747 17.1103 7.67995 17.2311 7.77515 17.343L5.1557 24.3979C4.88409 24.4225 4.60831 24.4449 4.32983 24.4675C3.56553 24.53 2.77526 24.5944 1.98938 24.7001C0.557219 24.8924 -0.000490394 25.5219 3.23518e-07 26.9447C3.23518e-07 29.6904 0.0289477 31.976 0.087099 34.1375C0.108691 34.9416 0.333925 35.5364 0.756923 35.9052C1.19366 36.2862 1.81418 36.4258 2.65675 36.3307C3.13054 36.2778 3.60285 36.2161 4.07541 36.1542L4.19932 36.1377C4.20229 36.1647 4.2095 36.191 4.22067 36.2159L7.18288 42.6791C6.80159 42.9721 6.41964 43.2639 6.03706 43.5547C5.61928 43.8733 5.20217 44.1923 4.78573 44.5119C3.56654 45.4509 3.3398 46.5214 4.11146 47.6942C5.37604 49.615 6.86293 51.834 8.51101 53.8598C9.96991 55.6542 11.1533 55.7823 13.2 54.3716C14.0519 53.7841 14.8997 53.1917 15.7538 52.5936L16.7543 51.8942C18.9827 53.6663 21.2049 54.4753 23.6717 54.4392C23.6491 54.6484 23.6271 54.8472 23.6057 55.0387C23.5419 55.6105 23.4867 56.1046 23.4521 56.609C23.3623 57.9285 23.5397 58.7476 24.027 59.2672C24.5021 59.7729 25.2769 60 26.5331 60H26.6141C28.3169 59.9872 30.0477 59.9572 31.7213 59.9285C32.4122 59.9162 33.1029 59.9046 33.7938 59.8936C34.7573 59.8783 35.4377 59.6362 35.8759 59.1529C36.3141 58.6696 36.4893 57.9666 36.4093 57.0047C36.3553 56.3435 36.2952 55.6827 36.241 55.0889L36.1919 54.5515L41.3361 52.3812L41.4426 52.5267C41.6335 52.7873 41.8278 53.0523 42.0197 53.319C42.1156 53.4522 42.2091 53.5874 42.3026 53.7226C42.4704 53.9652 42.6441 54.2165 42.8313 54.4551C43.7529 55.6304 44.768 55.8796 46.1231 55.2649C46.5694 55.0775 46.9894 54.8317 47.3717 54.5343C47.8104 54.169 48.2496 53.8042 48.6898 53.4399C50.4838 51.9525 52.339 50.4144 54.1019 48.8289C54.9042 48.1072 55.2727 47.503 55.2975 46.8695C55.3221 46.2238 54.9786 45.5623 54.1836 44.7253C53.6031 44.1147 53.0174 43.5092 52.4796 42.9534L51.9398 42.3944L55.3363 35.9027C55.4744 35.8894 55.6251 35.8754 55.7853 35.8607C56.3214 35.8115 56.9876 35.7493 57.6454 35.6714C59.0481 35.5055 59.5474 35.0465 59.8717 33.6262C60.532 30.7352 60.019 27.9137 59.499 25.7788C59.2343 24.6908 58.4761 24.1358 57.3104 24.1489ZM51.4851 34.1938C50.7692 37.0895 49.7581 39.1076 48.2062 40.7374C47.5771 41.3982 47.5999 42.3239 48.269 43.2772C48.8765 44.1427 49.51 44.9824 50.1808 45.8718C50.4191 46.1879 50.6617 46.5094 50.9085 46.8398L45.1105 51.4559C44.949 51.2632 44.7905 51.073 44.6355 50.8852C44.1796 50.3365 43.7492 49.8183 43.2948 49.309C42.0855 47.9538 41.451 48.0094 39.8981 48.9029C38.6661 49.5848 37.3687 50.1401 36.0253 50.5607C32.9424 51.5907 32.7105 52.9667 32.6951 55.1112C32.6931 55.3831 32.6747 55.6638 32.6551 55.961C32.6499 56.0362 32.645 56.1129 32.6401 56.1916H26.9233L26.8921 55.5035C26.8634 54.8625 26.8357 54.2464 26.8045 53.6309C26.7164 51.9048 26.3523 51.2799 24.4824 51.2123C21.6814 51.1113 19.3252 50.29 17.2789 48.7013C16.5004 48.0961 15.5994 48.1468 14.5242 48.855C13.7226 49.3832 12.9338 49.9287 12.0984 50.5066C11.792 50.7187 11.4781 50.9356 11.1567 51.1568L7.50234 46.2464C7.72839 46.0566 7.95149 45.8678 8.17165 45.68C8.80517 45.1417 9.40313 44.6331 10.0327 44.1488C11.0716 43.3502 11.1577 42.8812 10.4727 41.7578C9.23015 39.72 7.94693 37.2515 7.84903 34.3932C7.81517 33.3919 7.22876 32.8661 6.10698 32.83C5.44721 32.8086 4.78205 32.8133 4.07517 32.8177C3.82466 32.8194 3.56725 32.8214 3.3003 32.8221L3.05129 28.012C3.41295 27.9739 3.76283 27.9341 4.10363 27.8955C5.01146 27.7923 5.87021 27.6952 6.72161 27.6556C7.77297 27.6064 8.38806 27.0465 8.55 25.9887C9.02207 22.9081 9.89287 20.5206 11.2902 18.4745C11.5186 18.1838 11.6441 17.8254 11.6471 17.4555C11.6501 17.0856 11.5305 16.7251 11.3069 16.4308C10.7919 15.6833 10.2749 14.9382 9.75571 14.1954L9.27898 13.5103L13.9597 8.73725C14.1442 8.91751 14.3288 9.09784 14.5135 9.2781C15.0533 9.80586 15.6102 10.3511 16.1684 10.8808C17.2637 11.9191 17.5755 11.777 18.7187 11.0096C20.1638 10.0389 21.7101 9.03147 23.3277 8.31861C24.719 7.70579 25.9632 6.99373 25.904 5.03827C25.9109 4.62523 25.9666 4.21447 26.0702 3.81458C26.1035 3.65897 26.1371 3.49919 26.1683 3.33401H32.6885C32.6899 3.46847 32.6926 3.60433 32.6951 3.74125C32.7044 4.22968 32.714 4.73442 32.6786 5.22851C32.5403 7.1525 33.1829 7.9696 34.9705 8.1424C36.8598 8.32529 38.512 9.1665 40.3245 10.871C41.2888 11.7771 41.8212 11.9476 42.889 11.1C43.6005 10.5346 44.2601 9.93806 44.9576 9.30558C45.1968 9.08894 45.4383 8.87144 45.6819 8.65299L50.357 13.5845C50.2468 13.7003 50.1288 13.8229 50.0049 13.9517C49.5245 14.4522 48.9795 15.0196 48.4405 15.6133C46.9978 17.2029 46.9887 17.801 48.3821 19.3742C49.8584 20.9981 50.8985 22.9714 51.4047 25.1087C51.6871 26.3447 52.3957 26.9457 53.6347 27.0012C54.2295 27.0275 54.824 27.06 55.4943 27.0956L56.2706 27.1369L56.5464 32.3008H55.8214C55.1751 32.2993 54.5919 32.2988 54.0084 32.3035C52.4877 32.3163 51.8272 32.8111 51.4851 34.1938Z" fill="#F6F6EB"/>
<path d="M32.0908 14.4707C29.6839 14.2477 27.2583 14.5906 25.0071 15.4722C22.7557 16.3538 20.7409 17.7496 19.123 19.5488C17.5051 21.3479 16.3286 23.5006 15.6874 25.8354C15.0461 28.1704 14.9577 30.6229 15.4292 32.998C16.6623 38.8511 19.6913 42.5536 24.6896 44.317C26.1632 44.8266 27.7132 45.0781 29.2722 45.0611C30.5694 45.0506 31.8632 44.9247 33.1385 44.6853C41.3826 43.2079 45.9217 37.4106 45.918 28.3607V28.355C45.8179 25.524 44.876 22.7871 43.2127 20.496C40.5933 16.9868 36.8515 14.9593 32.0908 14.4707ZM42.0058 32.1634C41.0263 37.0702 37.937 39.9209 32.5617 40.8783C30.8216 41.1881 28.539 41.457 26.3166 40.7847C22.4462 39.6131 20.1229 36.8865 19.2141 32.4498C19.0719 31.6684 18.9788 30.8788 18.9354 30.0858C18.9074 29.7171 18.8797 29.3503 18.8421 28.9845C18.8352 27.5101 19.1256 26.0495 19.6959 24.6901C20.2661 23.331 21.1044 22.101 22.1606 21.0742C24.4104 18.9029 27.5709 17.7756 31.0385 17.8852C34.7822 18.0081 37.7481 19.357 39.8535 21.8921C42.1334 24.6378 42.8376 27.9981 42.0058 32.1634Z" fill="#F6F6EB"/>
</svg>
