<svg width="66" height="60" viewBox="0 0 66 60" fill="none" xmlns="http://www.w3.org/2000/svg">
<path d="M14.9323 54.6418C14.544 56.0421 14.327 56.4374 13.9366 57.7339C13.8276 58.1698 13.5901 58.5628 13.2551 58.8623C12.92 59.1616 12.5028 59.3534 12.0574 59.413C9.52038 59.7858 6.98047 60.229 4.4002 59.8634C2.03298 59.5269 0.521131 58.0419 0.402822 55.653C0.201412 51.5854 0.130471 47.5112 0.0256242 43.4392C-0.00518369 42.2447 -0.0209415 41.0451 0.053876 39.854C0.206098 37.435 1.34046 36.1463 3.75582 35.9819C6.40236 35.8007 9.06604 35.8449 11.7224 35.8416C12.7657 35.8403 13.4111 36.5369 13.8711 37.3962C14.0981 37.8202 14.2594 38.2787 14.4391 38.6906C16.0921 38.4576 17.6912 38.1635 19.3035 38.0195C22.2529 37.7565 25.1576 38.0713 27.9043 39.2145C31.102 40.5465 34.4007 40.8307 37.8055 40.5051C38.6427 40.43 39.4859 40.4572 40.3167 40.5866C43.0417 41.0008 44.3513 43.0237 43.6705 45.676C43.6161 45.8872 43.5348 46.0902 43.3875 46.5365C44.3438 46.4671 45.1904 46.4347 46.0299 46.34C49.6271 45.933 52.9817 44.6513 56.3593 43.4511C57.8592 42.9184 59.3442 42.3263 60.876 41.9069C61.7746 41.6775 62.7045 41.5957 63.6292 41.6646C65.2679 41.7681 66.0314 42.959 65.6122 44.534C65.2682 45.8284 64.4773 46.8161 63.5093 47.6924C60.7033 50.2294 57.4171 51.9233 53.874 53.1605C48.8859 54.9022 43.7911 56.2073 38.5348 56.8164C31.5641 57.6653 24.3947 57.6738 17.7531 55.3939C16.8053 55.0659 15.8187 54.9312 14.9323 54.6418ZM14.9812 52.1312C16.5863 52.5544 18.0735 52.9536 19.5634 53.3376C24.2217 54.5367 28.9572 55.2183 33.7623 54.8947C40.9333 54.4119 47.8048 52.5614 54.4679 49.9201C57.0339 48.9231 59.4048 47.483 61.4722 45.6651C61.9224 45.2193 62.3454 44.7471 62.7394 44.2508L62.5181 43.9179C61.5644 44.2006 60.5992 44.4504 59.659 44.7722C56.3955 45.8893 53.1644 47.1065 49.8753 48.1405C47.2788 48.9568 44.6017 49.2918 41.8759 48.701C41.4891 48.6383 41.0923 48.7002 40.743 48.8778C37.2808 50.6359 33.542 50.9525 29.7597 50.9729C28.878 50.9318 28.0058 50.7715 27.1671 50.4966C27.0342 50.4684 26.9089 50.4132 26.7984 50.3345C26.6879 50.2558 26.5944 50.1556 26.5242 50.0397C26.4538 49.9237 26.408 49.7945 26.3894 49.6601C26.371 49.5258 26.3801 49.3888 26.4163 49.2581C26.5483 48.8126 26.8349 48.4284 27.2248 48.1749C27.7063 47.9497 28.2303 47.8291 28.762 47.8205C30.2187 47.7048 31.6796 47.6393 33.1389 47.5585C35.1841 47.4439 37.2091 47.177 39.081 46.3133C39.8401 45.9677 40.5183 45.4668 41.0723 44.8431C41.7509 44.053 41.3895 43.2764 40.3475 43.171C39.5087 43.1115 38.6663 43.1208 37.8291 43.1992C34.386 43.4203 31.0151 43.1835 27.8034 41.7741C27.194 41.5106 26.5698 41.2827 25.9337 41.0917C22.7428 40.0947 19.333 40.0336 16.1084 40.9154C14.8543 41.2519 14.8658 41.3063 14.9323 42.5645C15.0379 44.5982 15.1775 46.6318 15.2147 48.6671C15.2352 49.765 15.0729 50.866 14.9804 52.1317L14.9812 52.1312ZM11.2921 38.3403C9.16931 38.3403 7.14175 38.3206 5.11419 38.3463C3.29814 38.369 2.84536 38.8317 2.80575 40.6443C2.70427 45.2892 2.55282 49.934 2.54687 54.5791C2.54454 56.5466 3.52155 57.1879 4.91796 57.0833C6.76948 56.9448 8.61999 56.7773 10.4637 56.5557C11.4364 56.4387 11.6077 56.1371 11.5904 55.1158C11.5333 54.2773 11.531 53.4357 11.5834 52.5966C12.0753 48.3036 11.7278 44.0191 11.5145 39.7328C11.4643 39.2653 11.3899 38.8003 11.2914 38.3403H11.2921Z" fill="#F6F6EB"/>
<path d="M37.4153 15.9402C40.2464 17.8772 41.2949 20.7391 41.6107 24.001C42.1639 29.7159 38.7726 33.2763 34.7954 34.7964C31.5187 36.0499 28.1579 36.6862 24.6712 35.6626C20.6277 34.4757 18.2431 31.2324 18.094 27.0289C17.9076 21.7769 21.0564 16.9915 26.2184 14.8821C29.3612 13.5994 35.4664 14.6072 37.4153 15.9402ZM27.8048 33.2607C29.5165 33.4647 32.6317 32.7295 34.1733 32.0515C37.0176 30.8006 39.1011 28.4981 38.617 24.2935C38.2131 20.7867 36.4331 18.1153 33.0378 17.4122C31.2658 17.0453 27.8046 16.8807 26.0436 17.6278C22.1988 19.2588 20.7059 23.1161 20.9063 27.3316C21.1025 31.4535 25.2557 32.9571 27.8048 33.2612V33.2607Z" fill="#F6F6EB"/>
<path d="M6.99528 44.0707C5.843 44.0847 5.03371 43.3443 4.99255 42.2389C4.94569 40.9719 5.94469 39.8613 7.13762 39.8541C8.52263 39.846 9.59287 40.6566 9.60193 41.718C9.61151 42.8638 8.29072 44.0547 6.99528 44.0707Z" fill="#F6F6EB"/>
<path d="M30.453 21.4115V24.5561C30.9115 24.7288 31.3402 24.8714 31.7536 25.0495C33.3799 25.7485 33.7799 27.2772 32.7138 28.6827C32.2737 29.2615 31.9278 29.4958 30.6327 30.0905C30.5105 30.7118 30.3875 31.3235 30.2702 31.9368C30.2053 32.2785 30.0422 32.5431 29.6691 32.5516C29.2756 32.561 29.1374 32.241 29.0672 31.9316C28.9357 31.3515 28.8459 30.762 28.7265 30.1088C28.2504 29.9817 27.7319 29.8471 27.216 29.7037C26.9661 29.6449 26.7215 29.5657 26.4846 29.4668C26.2791 29.3954 26.1072 29.2506 26.0018 29.0601C25.8964 28.8698 25.8649 28.6472 25.9133 28.4349C25.9971 28.0233 26.3505 27.7631 26.8949 27.7986C27.488 27.8374 28.0773 27.9381 28.6533 28.0101C28.8938 27.3468 28.9215 26.952 28.8164 25.8229C28.4151 25.6724 27.9809 25.5396 27.5737 25.3512C25.921 24.589 25.5569 22.9382 26.728 21.5423C27.2113 20.9344 27.8481 20.4666 28.5727 20.1873C28.7651 20.1355 28.9334 20.0189 29.0491 19.857C29.1648 19.6952 29.221 19.4981 29.2078 19.2996C29.2119 18.9863 29.28 18.6772 29.4082 18.3914C29.4633 18.2993 29.5399 18.2219 29.6313 18.1657C29.7227 18.1095 29.8263 18.0762 29.9332 18.0686C30.037 18.098 30.132 18.1515 30.2107 18.225C30.2894 18.2985 30.3497 18.3897 30.386 18.491C30.4577 18.8567 30.4965 19.2279 30.5024 19.6004C30.8962 19.69 31.285 19.7998 31.6674 19.9294C32.2779 20.1697 32.5668 20.6432 32.4925 21.1827C32.4265 21.6604 32.1668 21.8219 31.7213 21.6256C31.3316 21.4548 30.9684 21.2005 30.453 21.4115ZM28.9463 22.035C28.1096 22.5312 27.6819 23.059 27.8365 23.4523C28.0211 23.9221 28.4495 24.0405 28.9463 24.1052V22.035ZM30.5094 27.9283C31.0653 27.723 31.5747 27.4776 31.5579 26.9145C31.5437 26.4423 31.0233 26.345 30.6 26.2813C30.5757 26.2777 30.5483 26.2994 30.4408 26.3395C30.4408 26.6683 30.4349 27.0281 30.4437 27.3877C30.4476 27.5451 30.4807 27.702 30.5094 27.9283Z" fill="#F6F6EB"/>
<path d="M51.6231 7.08227V10.2272C52.0816 10.3998 52.51 10.5424 52.9235 10.719C54.5498 11.418 54.95 12.947 53.8837 14.3524C53.4436 14.931 53.0977 15.1653 51.8028 15.7602C51.6806 16.3815 51.5573 16.7344 51.4403 17.3474C51.3751 17.6891 51.212 17.9538 50.8392 17.9626C50.4454 17.9716 50.3072 17.6519 50.2373 17.3425C50.1055 16.7624 50.016 16.4318 49.8964 15.7786C49.4203 15.6513 48.902 15.5169 48.3858 15.3734C48.136 15.3145 47.8913 15.2352 47.6545 15.1363C47.4489 15.0648 47.277 14.92 47.1716 14.7296C47.0663 14.5392 47.0347 14.3166 47.0834 14.1044C47.167 13.6931 47.5206 13.4329 48.0648 13.4683C48.6581 13.5069 49.2473 13.6079 49.8234 13.6798C50.0636 13.0166 50.0913 12.6215 49.9865 11.4925C49.5852 11.3419 49.151 11.2093 48.7425 11.0209C47.0898 10.2587 46.7258 8.60785 47.8968 7.21197C48.3801 6.60409 49.0172 6.13629 49.7418 5.85695C49.9339 5.80515 50.1022 5.68842 50.2179 5.52657C50.3336 5.36474 50.3898 5.16781 50.3768 4.96925C50.3805 4.656 50.4486 4.34695 50.577 4.06115C50.6321 3.96904 50.7085 3.89155 50.8001 3.83532C50.8915 3.77907 50.9951 3.74573 51.1022 3.73804C51.2058 3.76745 51.3008 3.82114 51.3795 3.89466C51.4582 3.96818 51.5183 4.05944 51.5548 4.16082C51.6262 4.52643 51.6653 4.89762 51.6715 5.2701C52.0653 5.35954 52.4541 5.46938 52.8365 5.59913C53.4467 5.83912 53.7358 6.31264 53.6613 6.85215C53.5953 7.33004 53.3356 7.4913 52.8901 7.29507C52.5017 7.12524 52.1383 6.87128 51.6231 7.08227ZM50.1164 7.70565C49.2797 8.20219 48.8518 8.73005 49.0063 9.12329C49.1909 9.5929 49.6194 9.71146 50.1164 9.77618V7.70565ZM51.6793 13.5994C52.2351 13.3941 52.7446 13.1484 52.7277 12.5853C52.7138 12.1131 52.1932 12.0158 51.7699 11.9523C51.7455 11.9487 51.7181 11.9704 51.6107 12.0106C51.6107 12.3393 51.6047 12.6992 51.6133 13.0585C51.6174 13.2162 51.6508 13.3731 51.6793 13.5994Z" fill="#F6F6EB"/>
<path d="M58.307 1.65004C61.1381 3.58698 62.1866 6.44897 62.5024 9.71087C63.0556 15.4257 59.6643 18.9861 55.6871 20.5062C52.4104 21.7595 49.0499 22.396 45.563 21.3724C41.5195 20.1854 39.1352 16.9419 38.9859 12.7385C38.7995 7.48654 41.948 2.70138 47.1101 0.591761C50.2529 -0.690219 56.3581 0.317837 58.307 1.65004ZM48.697 18.9705C50.4088 19.1748 53.5234 18.4393 55.0652 17.7615C57.9098 16.5106 59.9928 14.2079 59.5087 10.0034C59.1048 6.49684 57.325 3.82516 53.9298 3.12229C52.1578 2.75546 48.697 2.59081 46.9359 3.33794C43.091 4.96889 41.5977 8.82627 41.7981 13.0414C41.9941 17.1638 46.1476 18.6674 48.697 18.9716V18.9705Z" fill="#F6F6EB"/>
</svg>
