<svg width="71" height="60" viewBox="0 0 71 60" fill="none" xmlns="http://www.w3.org/2000/svg">
<path d="M56.7493 52.648C56.5584 53.2736 56.4223 53.8049 56.2359 54.3174C55.0518 57.5762 52.5324 59.1647 49.2957 59.8046C46.7149 60.3207 44.0354 59.8058 41.8278 58.3698C39.6638 57.0305 38.6206 55.0094 38.409 52.3844C37.9818 52.3478 37.5529 52.2816 37.1233 52.2781C27.7781 52.2052 18.4325 52.1542 9.08754 52.0599C7.04416 52.0391 4.9996 51.9012 2.96147 51.743C2.41384 51.7105 1.89094 51.5035 1.46918 51.152C1.121 50.7552 0.919779 50.2503 0.899377 49.7222C0.862852 49.1072 1.35347 48.756 1.94401 48.626C2.23492 48.5607 2.5314 48.5235 2.82938 48.5153C6.52315 48.4427 10.2166 48.3574 13.9107 48.3164C20.9569 48.2385 28.003 48.175 35.049 48.1264C36.5445 48.1141 38.0403 48.1246 39.3561 48.1246C40.4007 46.903 41.2513 45.7154 42.2924 44.7296C44.8434 42.3143 47.9212 41.7989 51.2105 42.734C53.5105 43.388 55.1708 44.8234 55.652 47.3274C55.6988 47.5705 55.8019 47.803 55.9483 48.2558C56.4185 48.2558 56.9494 48.2497 57.4804 48.2558C60.6286 48.2974 63.7771 48.3226 66.9244 48.4011C67.621 48.4219 68.3103 48.5472 68.9698 48.7727C69.3792 48.906 69.7319 49.174 69.9704 49.5333C70.2091 49.8924 70.3198 50.3217 70.2848 50.7517C70.2938 51.1582 70.1699 51.5565 69.9324 51.886C69.6945 52.2154 69.3558 52.4579 68.9678 52.5766C68.303 52.7807 67.6102 52.8782 66.9151 52.8653C64.0666 52.824 61.2194 52.7227 58.3716 52.6486C57.8754 52.6369 57.3781 52.648 56.7493 52.648ZM52.2262 50.5979C52.2189 49.1336 51.8756 47.6759 51.2012 46.7789C50.9408 46.435 50.5726 46.189 50.1557 46.0798C47.2079 45.4858 44.0568 47.7286 43.3011 50.3475C42.6451 52.6217 43.3645 54.0605 45.5803 54.8712C49.2232 56.2044 52.2452 54.2626 52.2262 50.5985V50.5979Z" fill="black"/>
<path d="M26.4133 27.0334C27.853 27.0334 29.1463 27.065 30.438 27.0281C36.5351 26.8538 42.6332 26.6676 48.7315 26.4699C54.3295 26.2813 59.9258 26.052 65.5236 25.8513C66.2214 25.8009 66.9221 25.8149 67.6175 25.893C68.121 25.9471 68.5891 26.1788 68.938 26.5467C69.2869 26.9145 69.4941 27.3947 69.5224 27.9015C69.5324 28.8161 68.8834 29.5983 67.7867 29.8929C67.3026 30.0124 66.8061 30.0742 66.3079 30.0763C57.2589 30.2783 48.2102 30.4749 39.1621 30.6658C35.1124 30.7572 31.0636 30.8834 27.0144 30.9982C26.7701 31.0052 26.5267 31.0527 26.1571 31.0957C25.2015 35.7372 21.9063 37.6854 17.5873 37.7146C13.7302 37.7422 10.8061 35.8338 9.57096 31.8985C7.62341 31.8106 5.73077 31.7497 3.84196 31.6276C3.14657 31.5755 2.45851 31.4507 1.78894 31.2554C1.49218 31.1827 1.23124 31.0055 1.0534 30.7566C0.875549 30.5077 0.792549 30.2031 0.819405 29.8979C0.817862 29.5916 0.929297 29.2952 1.13233 29.0659C1.33537 28.8367 1.61571 28.6907 1.91956 28.6559C2.45953 28.5601 3.00766 28.5181 3.55589 28.5308C5.50051 28.5171 7.44543 28.5252 9.40934 28.5252C9.61388 27.9266 9.77839 27.5173 9.8944 27.0946C10.3409 25.4373 11.2588 23.9458 12.5362 22.8022C13.3615 22.0831 14.3593 21.5915 15.4314 21.3756C17.0052 21.1042 18.604 21.0073 20.199 21.0866C23.2105 21.1926 25.0496 22.9359 26.0408 25.6848C26.1915 26.1062 26.2812 26.5496 26.4133 27.0334ZM17.2585 25.2863C16.6674 25.4193 15.6251 25.4099 14.8698 25.8721C13.0525 26.985 13.1002 31.1666 14.8905 32.3542C16.5222 33.4378 18.2818 33.3892 20.0167 32.5736C21.5773 31.8399 21.7468 30.2892 21.7743 28.8922C21.8132 26.9162 21.3223 25.6346 18.7982 25.4311C18.4028 25.3989 18.0054 25.3563 17.2585 25.2863Z" fill="black"/>
<path d="M43.7496 10.5041C43.2935 10.5041 42.9475 10.5014 42.6019 10.5041C30.4555 10.6017 18.3094 10.6983 6.16399 10.7939C5.1146 10.8021 4.0652 10.785 3.01578 10.7424C2.46634 10.7236 1.91991 10.6526 1.38382 10.5304C0.515386 10.3254 -0.0240149 9.70394 0.000822521 8.98436C-0.00295496 8.62828 0.11868 8.28225 0.344338 8.00722C0.569996 7.73218 0.885212 7.54571 1.23451 7.48067C1.81275 7.33136 2.40362 7.23644 2.99944 7.19696C15.8769 6.36813 28.7748 6.34166 41.67 6.21865C42.4154 6.21162 43.1603 6.21865 43.9369 6.21865C44.2134 5.6373 44.4574 5.15415 44.6756 4.65949C45.1946 3.39194 46.1551 2.3563 47.3785 1.74508C49.1776 0.875544 51.0536 0.167181 53.0765 0.0266024C56.5579 -0.215603 58.6752 1.19044 59.8393 4.47615C59.9854 4.89262 60.1184 5.31464 60.2992 5.86173C62.1016 5.7765 63.8872 5.6752 65.6741 5.61633C66.3198 5.57454 66.9679 5.61282 67.6041 5.73046C68.0278 5.81118 68.4129 6.03057 68.6987 6.35422C68.9847 6.6779 69.1554 7.08751 69.184 7.51886C69.2127 7.9502 69.0975 8.37893 68.8568 8.73767C68.6163 9.09644 68.2636 9.36494 67.8542 9.50119C67.2423 9.71419 66.6053 9.84604 65.9593 9.89314C64.0234 10.0656 62.0826 10.1874 60.0567 10.3356C58.8587 14.6701 55.7195 16.4376 51.5065 16.3225C47.7415 16.2194 44.879 14.5559 43.7496 10.5041ZM47.4247 8.24603C47.1077 10.2586 49.0698 12.4185 51.1722 12.3488C54.309 12.2448 56.1795 10.4782 56.1783 8.12847C56.1783 5.48676 54.9341 4.06206 52.0205 3.92646C49.2551 3.79789 47.4472 5.58675 47.4247 8.24603Z" fill="black"/>
</svg>
