<svg width="62" height="60" viewBox="0 0 62 60" fill="none" xmlns="http://www.w3.org/2000/svg">
<path d="M52.6434 17.801V27.11C54.5796 27.2519 56.3626 27.3719 58.1435 27.5173C58.9944 27.587 59.8871 27.5743 60.6734 27.8491C61.1697 28.0228 61.7874 28.6326 61.8306 29.0957C61.8722 29.5445 61.3443 30.2065 60.8906 30.4959C60.4418 30.7815 59.7733 30.7564 59.1962 30.8004C57.0489 30.9644 54.9001 31.1006 52.6574 31.2538V38.6861C54.6993 38.9128 56.7823 39.1392 58.8639 39.3783C59.3991 39.4397 59.929 39.5458 60.4626 39.6215C61.2086 39.7282 61.7736 40.0871 61.8236 40.8768C61.8809 41.7796 61.1981 42.1395 60.4615 42.2759C59.5743 42.4204 58.68 42.518 57.7825 42.5683C56.0865 42.6996 54.3883 42.8058 52.5499 42.9322C52.5086 43.2051 52.4418 43.6777 52.3648 44.1481C52.0003 46.4134 50.8028 48.1043 48.6593 48.913C47.1192 49.4939 45.471 49.799 43.8663 50.1991C43.3551 50.2989 42.839 50.3725 42.3203 50.4196C42.3203 52.1651 42.3224 53.8541 42.3203 55.5434C42.3186 56.3504 42.3981 57.171 42.2803 57.9616C42.0814 59.2967 41.1184 60.0927 40.0082 59.9914C38.9274 59.8925 38.029 58.8957 38.0898 57.5971C38.1576 56.1186 38.414 54.6488 38.5829 53.1748C38.6805 52.3286 38.7702 51.4815 38.8801 50.4785H30.7297C30.8164 52.2762 30.9277 54.1402 30.9866 56.006C31.0411 56.7628 30.9964 57.5236 30.8537 58.2688C30.7802 58.6989 30.5501 59.0865 30.2077 59.3568C29.8653 59.6272 29.4349 59.7611 28.9996 59.7328C28.5857 59.7436 28.1826 59.5999 27.8687 59.3298C27.5549 59.0597 27.3529 58.6825 27.3019 58.2716C27.1744 57.3886 27.1503 56.4938 27.2303 55.6052C27.3476 53.8617 27.5446 52.1235 27.7253 50.2043H19.6616C19.6473 50.5015 19.6059 50.9263 19.61 51.3507C19.6289 53.2405 19.7 55.1308 19.6762 57.0197C19.6554 58.6579 18.8499 59.7003 17.7613 59.6617C16.6608 59.6228 15.9453 58.5609 16.0682 56.8911C16.2033 55.0538 16.4735 53.2275 16.6789 51.3956C16.7375 50.8711 16.7756 50.3442 16.828 49.7628C16.1628 49.6217 15.5946 49.5196 15.0361 49.3794C12.9937 48.8636 11.6 47.6752 11.1255 45.5531C10.8708 44.4142 10.6189 43.2748 10.3614 42.1367C10.2855 41.8006 10.1953 41.4677 10.1755 41.3897C7.64245 41.3897 5.26796 41.3916 2.89374 41.387C2.57847 41.3847 2.26355 41.366 1.95022 41.331C0.764058 41.2051 0.103965 40.6474 0.0828899 39.7661C0.0623549 38.9014 0.692727 38.2748 1.88862 38.1225C3.13665 37.9633 4.39657 37.8963 5.65191 37.795C6.98668 37.6869 8.32172 37.5875 9.7135 37.4797C9.58165 34.8104 9.45168 32.1787 9.31712 29.4548C8.30956 29.4548 7.33686 29.4548 6.36415 29.4548C5.05991 29.4565 3.75486 29.4881 2.45197 29.4467C1.95976 29.4197 1.47537 29.3118 1.01831 29.1271C0.323636 28.8599 -0.184875 28.2819 0.0642462 27.5637C0.298911 27.0174 0.731391 26.58 1.27499 26.3392C1.82133 26.1068 2.51331 26.2311 3.13936 26.1684C5.23095 25.9577 7.32118 25.7329 9.58597 25.4954V18.5859C7.31632 18.3565 4.96237 18.119 2.6076 17.8802C2.38276 17.869 2.1591 17.8407 1.9386 17.7953C1.2007 17.6007 0.573029 17.2722 0.554926 16.3811C0.536282 15.4624 1.16395 15.0742 1.9259 15.0161C3.26716 14.9134 4.61895 14.8896 5.96453 14.9145C7.39846 14.9415 8.83077 15.0625 10.3463 15.1471C11.0991 13.3201 11.4171 11.1015 13.3822 10.1098C15.159 9.21305 17.1109 8.66157 19.1593 7.89232C19.3401 6.23412 19.5535 4.2798 19.7654 2.32628C19.9275 0.8402 20.3622 0.207132 21.202 0.241987C22.0126 0.275492 22.4395 0.956384 22.5435 2.4276C22.6665 4.16794 22.7713 5.90936 22.8861 7.68347C24.1115 7.68347 25.2666 7.70266 26.4206 7.6778C27.5405 7.65375 28.6591 7.58484 29.7283 7.53755C29.9015 5.47325 30.0596 3.48082 30.2401 1.49056C30.303 0.796423 30.45 0.0733952 31.3162 0.00935861C32.2563 -0.0603521 32.5675 0.697527 32.6624 1.41193C32.9266 3.40435 33.0947 5.41083 33.3219 7.63482C34.2325 7.67427 35.3814 7.74291 36.531 7.7683C37.6497 7.79316 38.7688 7.77371 39.9482 7.77371C40.0668 6.03446 40.1698 4.34815 40.3032 2.66429C40.3527 2.04068 40.3662 1.37707 40.6005 0.818035C40.6992 0.611566 40.8439 0.430528 41.0236 0.288823C41.2033 0.147119 41.4132 0.0485565 41.6369 0.000717072C42.0176 -0.0195477 42.4475 0.394116 42.8053 0.682145C42.9513 0.85528 43.033 1.07359 43.0366 1.30008C43.2527 3.39491 43.4519 5.49138 43.6756 7.78994C48.2849 7.44355 51.4991 9.29464 51.9374 14.3403C54.3137 14.3403 56.5515 14.3298 58.7893 14.3473C59.4107 14.3522 60.1068 14.2863 60.6326 14.5365C61.1165 14.7678 61.6977 15.3665 61.7223 15.8304C61.7477 16.3095 61.2546 16.9709 60.802 17.2763C60.3651 17.5708 59.6942 17.5751 59.1197 17.5991C56.9692 17.6918 54.8166 17.7377 52.6434 17.801ZM48.7326 30.8039H48.9744C48.9744 29.2751 49.0203 27.745 48.9652 26.2181C48.8301 22.4946 48.7926 18.7607 48.4451 15.0542C48.1163 11.5481 47.6037 11.1874 43.9947 11.106C37.9712 10.971 31.9439 10.7818 25.922 10.878C22.8886 10.9266 19.8513 11.47 16.8413 11.9496C15.1661 12.2165 13.9899 13.2403 13.7983 15.0839C13.7057 15.9742 13.5611 16.8626 13.5306 17.7551C13.4455 20.2252 13.4192 22.6978 13.349 25.1687C13.1869 30.9266 13.121 36.6791 14.3663 42.3516C14.9677 45.0911 15.0175 45.2697 17.7554 45.381C25.7956 45.7096 33.8401 45.9444 41.8839 46.1411C43.232 46.1312 44.5742 45.9626 45.8828 45.6388C48.2478 45.1254 48.6988 44.5523 48.7215 42.1349C48.7585 38.3578 48.7326 34.5807 48.7326 30.8039Z" fill="#F6F6EB"/>
<path d="M19.7771 29.0146C19.7771 26.6779 19.7539 24.3402 19.7839 22.0046C19.8109 19.8622 20.4751 18.9987 22.611 18.5445C23.9283 18.2618 25.2696 18.1056 26.6166 18.0778C30.2116 18.0149 33.8084 18.0538 37.4045 18.0576C37.7193 18.0599 38.0336 18.0821 38.3456 18.124C40.4596 18.3967 41.5685 19.2267 41.9605 21.3302C42.3876 23.5318 42.6288 25.7653 42.6817 28.0073C42.7265 30.9184 42.4563 33.8338 42.3615 36.7484C42.3158 38.1507 41.5253 38.9022 40.281 39.1964C39.1044 39.4845 37.9077 39.6832 36.7012 39.7908C32.3075 40.1421 27.9011 40.3583 23.5156 39.769C20.7496 39.3977 20.0236 38.3539 20.0968 35.6155C20.1557 33.4172 20.1087 31.2159 20.1087 29.0156L19.7771 29.0146ZM39.3207 36.1005C39.3207 33.5914 39.3064 31.1289 39.3245 28.6674C39.3429 26.171 39.4739 23.6687 38.9235 21.1783C37.6504 21.0954 36.4896 20.9508 35.3299 20.9568C31.6507 20.976 27.97 21.0065 24.2932 21.127C22.8214 21.1754 22.7501 21.3064 22.8241 22.7403C23.0608 27.3086 23.3467 31.873 23.6123 36.4185C25.4043 36.9322 34.702 36.7598 39.3207 36.1005Z" fill="#F6F6EB"/>
</svg>
