<svg width="60" height="60" viewBox="0 0 60 60" fill="none" xmlns="http://www.w3.org/2000/svg">
<path d="M41.3286 37.7357C43.3285 40.1053 44.3753 42.6947 44.3321 45.6732C44.2725 49.7772 42.1644 52.8664 39.202 55.4029C35.7499 58.3584 31.5779 59.6053 27.113 59.9555C26.1351 60.0114 25.1549 60.0146 24.1767 59.9652C23.7541 59.9569 23.3354 59.8824 22.9359 59.7444C21.335 59.1644 21.0916 57.9783 22.3613 56.8628C23.6077 55.7679 24.9528 54.7812 26.1534 53.6407C27.0735 52.7598 27.9067 51.7925 28.6416 50.7521C29.4197 49.6571 29.4882 48.3935 29.0059 46.9375C28.237 47.2954 27.5005 47.5807 26.8236 47.9684C25.4044 48.7816 24.6038 48.7478 23.3863 47.6791C22.2033 46.6402 21.0407 45.5784 19.8639 44.5327C19.6888 44.396 19.5058 44.2698 19.3158 44.1546C18.6019 44.8146 17.9383 45.4726 17.2269 46.0741C16.2842 46.8711 15.3491 46.892 14.7374 46.1863C14.164 45.5257 14.2584 44.6525 15.0868 43.8036C15.6748 43.2006 16.3465 42.6789 16.8429 42.2418C15.5081 40.6125 14.1628 39.2766 13.1955 37.7094C12.0652 35.8766 13.4621 34.2429 14.3351 32.4497C12.6687 32.3452 11.2983 32.6504 10.1968 33.4952C9.14566 34.3475 8.19769 35.3198 7.37222 36.3922C6.57264 37.3789 5.95072 38.509 5.24086 39.5693C4.57165 40.569 3.88607 41.6196 2.47709 41.4744C1.50165 41.374 0.141491 39.6168 0.0512566 38.296C-0.15324 35.2851 0.230192 32.3549 1.6361 29.633C4.21173 24.6484 8.26919 21.4072 13.5549 19.6731C15.7696 18.9466 18.0007 19.1779 20.2596 19.8661C20.3848 19.7219 20.5318 19.5782 20.6494 19.4139C26.7495 10.8887 35.0625 5.47721 44.9077 2.26355C48.2607 1.16924 51.6528 0.173079 55.2269 0.0818225C56.1198 0.0590723 57.0129 -0.00918855 57.9053 0.00103626C59.0691 0.0140729 59.6494 0.426909 59.6023 1.56365C59.5419 3.76348 59.336 5.95691 58.9858 8.12952C57.5492 16.2999 53.62 23.3072 48.5166 29.6982C46.5302 32.1859 44.2935 34.4745 42.1683 36.8515C41.917 37.1317 41.6499 37.3981 41.3286 37.7357ZM21.4694 41.5278C22.7986 42.5841 23.7667 43.4128 24.8073 44.1352C24.9841 44.2185 25.1774 44.2612 25.3729 44.2603C25.5683 44.2593 25.7611 44.2146 25.9371 44.1295C27.5867 43.2551 29.2735 42.4187 30.809 41.3671C36.278 37.6217 41.2258 33.2703 45.3847 28.0935C47.6413 25.285 49.706 22.3228 51.8997 19.373L39.1875 7.56792C38.7679 7.76417 38.3591 7.98271 37.9628 8.22257C35.4833 9.868 32.9555 11.4487 30.5611 13.2105C27.8771 15.1849 25.6059 17.5977 23.5783 20.2572C20.2156 24.6674 18.2358 29.8174 15.7476 34.6946C15.5002 35.1803 15.639 36.1585 15.9897 36.5928C16.9025 37.7234 18.0329 38.6787 19.2593 39.8834C21.1765 37.8963 22.8636 36.0392 24.6744 34.3094C25.7176 33.3728 26.8361 32.5237 28.0187 31.7706C28.6403 31.3483 29.434 31.2044 30.0028 31.8529C30.5792 32.5103 30.0828 33.1542 29.6776 33.6826C29.1987 34.2795 28.6798 34.8431 28.1245 35.3697C26.9742 36.5067 25.8214 37.6404 24.6363 38.74C23.6422 39.6641 22.6008 40.536 21.4694 41.5278ZM57.1929 2.48825C51.7535 2.49924 46.9527 4.52144 42.0581 6.16713L41.9707 6.50581L53.2284 15.9965C55.1576 12.9393 56.6369 7.89896 57.1929 2.48825ZM30.2536 55.1636C34.8338 54.3009 38.3823 51.9778 40.3761 47.7202C41.7053 44.8788 40.7769 42.2267 39.2102 39.7055C36.573 41.7188 34.0505 43.6449 31.5286 45.5705C33.515 49.076 32.4976 52.1634 30.2536 55.1636ZM18.8529 22.0025C12.3044 20.9289 3.25213 29.7836 3.83929 35.8625C6.51334 31.6397 9.94478 29.0955 15.1086 30.0109L18.8529 22.0025Z" fill="black"/>
<path d="M5.57601 54.7511C5.77003 54.3998 5.97836 53.7613 6.39399 53.3173C7.96146 51.6437 9.58643 50.0234 11.2124 48.406C11.6899 47.9311 12.294 47.6315 12.9154 48.1384C13.5708 48.6732 13.284 49.3122 12.8967 49.8414C11.5675 51.6563 10.2352 53.4712 8.83057 55.227C8.41276 55.7069 7.8817 56.0749 7.2856 56.2975C6.40064 56.6462 5.54508 55.9445 5.57601 54.7511Z" fill="black"/>
<path d="M20.1339 48.2432C21.0764 48.2687 21.7614 49.1187 21.3422 49.7769C20.2745 51.4337 19.1016 53.0203 17.8307 54.5268C17.3755 55.0721 16.558 54.9948 15.9798 54.4731C15.7154 54.2493 15.5424 53.9362 15.4938 53.5933C15.4451 53.2504 15.5241 52.9015 15.7157 52.613C16.0627 52.0353 16.4751 51.4996 16.945 51.0166C17.6411 50.2753 18.3765 49.5683 19.1326 48.8891C19.4455 48.643 19.7807 48.4268 20.1339 48.2432Z" fill="black"/>
<path d="M11.7143 41.0529C11.5343 41.4505 11.3218 41.8325 11.0788 42.195C9.89187 43.6764 8.68671 45.143 7.46331 46.5947C7.23344 46.8423 6.96602 47.052 6.67089 47.2164C6.05996 47.5919 5.4388 47.5914 4.94622 47.0352C4.43728 46.4605 4.55026 45.8228 5.06048 45.3284C6.7307 43.7093 8.4201 42.1093 10.143 40.5467C10.3682 40.3422 10.8477 40.309 11.1772 40.3698C11.3751 40.4064 11.5111 40.7788 11.7143 41.0529Z" fill="black"/>
<path d="M38.6252 13.9171C40.2852 13.8943 41.5648 14.5732 42.8493 15.643C44.1808 16.7519 45.1754 17.9346 45.667 19.5877C46.8014 23.4113 44.5568 26.2259 40.9165 26.7408C37.9662 27.1579 35.4637 25.943 33.6434 23.6334C32.0841 21.6544 32.0419 19.3516 33.1235 17.1386C34.2139 14.9058 36.1784 13.9408 38.6252 13.9171ZM35.1214 20.043C35.5478 20.7787 35.8537 21.7165 36.4889 22.2899C37.1469 22.8837 38.1037 23.1779 38.9667 23.5061C40.1006 23.9376 41.0819 23.4806 41.8524 22.6784C42.598 21.9026 42.6256 20.9282 42.2614 19.9356C41.6872 18.3707 40.348 17.5855 39.0032 16.8771C37.7957 16.2411 36.6497 16.6215 35.9613 17.8125C35.6104 18.4185 35.4534 19.1368 35.1214 20.043Z" fill="black"/>
</svg>
