<svg width="146" height="25" viewBox="0 0 146 25" fill="none" xmlns="http://www.w3.org/2000/svg">
<path d="M25.345 9.20674H15.662L12.6813 0L9.68295 9.20674L0 9.1891L7.83102 14.886L4.83265 24.0927L12.6637 18.3958L20.4947 24.0927L17.514 14.886L25.345 9.20674Z" fill="#FFC000"/>
<path d="M18.1845 16.967L17.5143 14.8857L12.6816 18.3956L18.1845 16.967Z" fill="#FFC000"/>
<path d="M55.509 9.20674H45.8261L42.8454 0L39.847 9.20674L30.1641 9.1891L37.9951 14.886L34.9967 24.0927L42.8277 18.3958L50.6588 24.0927L47.678 14.886L55.509 9.20674Z" fill="#FFC000"/>
<path d="M48.3486 16.967L47.6784 14.8857L42.8457 18.3956L48.3486 16.967Z" fill="#FFC000"/>
<path d="M85.6724 9.20674H75.9894L73.0087 0L70.0103 9.20674L60.3274 9.1891L68.1584 14.886L65.16 24.0927L72.9911 18.3958L80.8221 24.0927L77.8414 14.886L85.6724 9.20674Z" fill="#FFC000"/>
<path d="M78.5119 16.967L77.8417 14.8857L73.009 18.3956L78.5119 16.967Z" fill="#FFC000"/>
<path d="M115.836 9.20674H106.153L103.173 0L100.174 9.20674L90.4912 9.1891L98.3222 14.886L95.3239 24.0927L103.155 18.3958L110.986 24.0927L108.005 14.886L115.836 9.20674Z" fill="#FFC000"/>
<path d="M108.675 16.967L108.005 14.8857L103.172 18.3956L108.675 16.967Z" fill="#FFC000"/>
<path d="M146 9.20674H136.317L133.337 0L130.338 9.20674L120.655 9.1891L128.486 14.886L125.488 24.0927L133.319 18.3958L141.15 24.0927L138.169 14.886L146 9.20674Z" fill="#FFC000"/>
<path d="M138.84 16.967L138.17 14.8857L133.337 18.3956L138.84 16.967Z" fill="#FFC000"/>
</svg>
